<?xml version="1.0" encoding="utf-8"?>
<!-- Generator: Adobe Illustrator 19.1.0, SVG Export Plug-In . SVG Version: 6.00 Build 0)  -->
<svg version="1.1" id="Layer_1" xmlns="http://www.w3.org/2000/svg" xmlns:xlink="http://www.w3.org/1999/xlink" x="0px" y="0px"
	 viewBox="-467 269 24 24" style="enable-background:new -467 269 24 24;" xml:space="preserve">
<style type="text/css">
	.st0{fill:#00B7BF;}
	.st1{fill:#31333C;}
</style>
<ellipse class="st0" cx="-455.1" cy="281" rx="12" ry="11.9"/>
<g>
	<path class="st1" d="M-463.1,278h1.9c1.2,0,2.1,0.4,2.1,1.5c0,0.6-0.3,1.1-1,1.3l0,0c0.8,0.1,1.3,0.6,1.3,1.4c0,1.2-1,1.7-2.3,1.7
		h-2C-463.1,283.9-463.1,278-463.1,278z M-461.3,280.4c0.8,0,1.2-0.3,1.2-0.9c0-0.5-0.4-0.8-1.1-0.8h-0.9v1.7H-461.3L-461.3,280.4z
		 M-461.2,283.1c0.9,0,1.3-0.3,1.3-1c0-0.6-0.5-0.9-1.3-0.9h-0.9v1.9H-461.2z"/>
	<path class="st1" d="M-456.1,279.4c1.2,0,1.8,0.9,1.8,2.1c0,0.2,0,0.4,0,0.5h-2.8c0.1,0.8,0.6,1.3,1.3,1.3c0.4,0,0.7-0.1,1-0.3
		l0.4,0.6c-0.4,0.3-1,0.5-1.5,0.5c-1.2,0-2.2-0.9-2.2-2.3C-458.2,280.2-457.2,279.4-456.1,279.4z M-455.2,281.3
		c0-0.7-0.3-1.1-0.9-1.1c-0.5,0-1,0.4-1.1,1.1H-455.2z"/>
	<path class="st1" d="M-453.3,280.3h-0.6v-0.8h0.7l0.1-1.2h0.9v1.2h1.1v0.8h-1.1v2.1c0,0.5,0.2,0.8,0.6,0.8c0.2,0,0.3,0,0.5-0.1
		l0.2,0.8c-0.2,0.1-0.5,0.2-0.9,0.2c-1,0-1.4-0.6-1.4-1.6L-453.3,280.3L-453.3,280.3z"/>
	<path class="st1" d="M-447.9,281.1c0-0.5-0.2-0.9-0.8-0.9c-0.4,0-0.9,0.2-1.2,0.4l-0.4-0.7c0.5-0.3,1.1-0.6,1.8-0.6
		c1.1,0,1.6,0.7,1.6,1.9v2.6h-0.8l-0.1-0.5l0,0c-0.4,0.3-0.8,0.6-1.4,0.6c-0.8,0-1.3-0.5-1.3-1.3
		C-450.5,281.8-449.7,281.3-447.9,281.1z M-448.9,283.2c0.4,0,0.6-0.2,1-0.5v-1c-1.2,0.2-1.6,0.5-1.6,0.9S-449.2,283.2-448.9,283.2z
		"/>
</g>
</svg>
