<?xml version="1.0" standalone="no"?>
<!DOCTYPE svg PUBLIC "-//W3C//DTD SVG 1.1//EN" "http://www.w3.org/Graphics/SVG/1.1/DTD/svg11.dtd" >
<svg>
<metadata>
Created by FontForge 20090622 at Mon Jul  4 15:35:58 2016
 By deploy user
Copyright (c) 2015, Andreas Larsen @larsenwork
</metadata>
<defs>
<font id="Gidole-Regular" horiz-adv-x="1100" >
  <font-face 
    font-family="Gidole"
    font-weight="400"
    font-stretch="normal"
    units-per-em="2048"
    panose-1="2 0 5 3 0 0 0 0 0 0"
    ascent="1638"
    descent="-410"
    x-height="1082"
    cap-height="1416"
    bbox="-300 -468 2178 1910"
    underline-thickness="99"
    underline-position="-99"
    unicode-range="U+0020-U+FEFF"
  />
<missing-glyph horiz-adv-x="748" 
d="M68 0v1365h544v-1365h-544zM136 68h408v1229h-408v-1229z" />
    <glyph glyph-name=".notdef" horiz-adv-x="748" 
d="M68 0v1365h544v-1365h-544zM136 68h408v1229h-408v-1229z" />
    <glyph glyph-name=".null" horiz-adv-x="0" 
 />
    <glyph glyph-name="nonmarkingreturn" horiz-adv-x="682" 
 />
    <glyph glyph-name="space" unicode=" " horiz-adv-x="590" 
 />
    <glyph glyph-name="exclam" unicode="!" horiz-adv-x="500" 
d="M250 204q49 0 79.5 -30.5t30.5 -79.5t-30.5 -79.5t-79.5 -30.5t-79.5 30.5t-30.5 79.5t30.5 79.5t79.5 30.5zM172 1416h156v-365q0 -106 -5 -272t-10 -279l-5 -112h-116q-20 422 -20 663v365z" />
    <glyph glyph-name="quotedbl" unicode="&#x22;" horiz-adv-x="760" 
d="M440 1330q0 44 28 72t72 28t72 -28t28 -72q0 -18 -6 -52l-45 -272h-98l-45 272q-6 34 -6 52zM120 1330q0 44 28 72t72 28t72 -28t28 -72q0 -18 -6 -52l-45 -272h-98l-45 272q-6 34 -6 52z" />
    <glyph glyph-name="numbersign" unicode="#" horiz-adv-x="1270" 
d="M825 997h-309l-71 -550h309zM835 0h-141l43 323h-309l-43 -323h-141l43 323h-161v124h178l71 550h-161v124h178l39 295h141l-39 -295h309l39 295h141l-39 -295h161v-124h-178l-71 -550h161v-124h-178z" />
    <glyph glyph-name="dollar" unicode="$" horiz-adv-x="1095" 
d="M491 1616h106v-183q173 -15 342 -120l-73 -122q-140 86 -269 101v-501q92 -19 159 -48t126 -89q107 -109 107 -265q0 -165 -112 -279q-106 -108 -280 -126v-184h-106v183q-202 16 -395 148l76 122q161 -112 319 -129v546q-162 35 -253 116q-53 47 -86.5 117.5
t-33.5 148.5q0 172 129 283q99 85 244 98v183zM597 647v-522q100 15 162 77q74 74 74 187q0 51 -19.5 98t-51.5 78q-56 55 -165 82zM491 814v478q-83 -12 -139 -61q-78 -68 -78 -178q0 -96 69 -163q52 -50 148 -76z" />
    <glyph glyph-name="percent" unicode="%" horiz-adv-x="1508" 
d="M1137 560q-27 0 -48 -7.5t-34.5 -17.5t-22.5 -29.5t-14 -34.5t-7 -42.5t-2.5 -43.5t-0.5 -46t0.5 -46t2.5 -43.5t7 -42.5t14 -34.5t22.5 -29.5t34.5 -17.5t48 -7.5t48 7.5t34.5 17.5t22.5 29.5t14 34.5t7 42.5t2.5 43.5t0.5 46t-0.5 46t-2.5 43.5t-7 42.5t-14 34.5
t-22.5 29.5t-34.5 17.5t-48 7.5zM1137 678q125 0 195 -80q23 -26 37.5 -56.5t20 -68.5t7 -64t1.5 -70t-1.5 -70t-7 -64t-20 -68.5t-37.5 -56.5q-70 -80 -195 -80t-195 80q-23 26 -37.5 56.5t-20 68.5t-7 64t-1.5 70t1.5 70t7 64t20 68.5t37.5 56.5q70 80 195 80zM371 1314
q-27 0 -48 -7.5t-34.5 -17.5t-22.5 -29.5t-14 -34.5t-7 -42.5t-2.5 -43.5t-0.5 -46t0.5 -46t2.5 -43.5t7 -42.5t14 -34.5t22.5 -29.5t34.5 -17.5t48 -7.5t48 7.5t34.5 17.5t22.5 29.5t14 34.5t7 42.5t2.5 43.5t0.5 46t-0.5 46t-2.5 43.5t-7 42.5t-14 34.5t-22.5 29.5
t-34.5 17.5t-48 7.5zM371 1432q125 0 195 -80q23 -26 37.5 -56.5t20 -68.5t7 -64t1.5 -70t-1.5 -70t-7 -64t-20 -68.5t-37.5 -56.5q-70 -80 -195 -80t-195 80q-23 26 -37.5 56.5t-20 68.5t-7 64t-1.5 70t1.5 70t7 64t20 68.5t37.5 56.5q70 80 195 80zM1081 1352l114 -72
l-768 -1216l-114 72z" />
    <glyph glyph-name="ampersand" unicode="&#x26;" horiz-adv-x="1395" 
d="M627 1432q135 0 225 -85.5t90 -220.5q0 -31 -4 -59t-15 -53l-19.5 -44.5t-27 -40.5t-27.5 -32.5t-31.5 -29.5l-29 -23t-30 -21.5t-24.5 -16.5l-61 -43l303 -406l120 133l106 -96l-139 -153l182 -241h-181l-100 133q-151 -149 -358 -149q-192 0 -309 111.5t-117 276.5
q0 59 17 113.5t40.5 92t56 71.5t56.5 53l49 37l9 6l64 46l-51 68q-1 1 -11.5 14.5t-16 21.5l-17.5 25.5t-19 31.5t-16.5 36t-15 42t-9.5 45.5t-4 51.5q0 135 88.5 220t226.5 85zM627 1298q-78 0 -121.5 -47t-43.5 -124q0 -19 2.5 -37.5t9 -35.5l11.5 -29t15.5 -28.5
l15 -23.5t17.5 -23.5t15 -19.5l42 -56l62 44l10 7q30 21 46 34.5t39 38.5t34 57t11 71q0 76 -45 124t-120 48zM330 372q0 -103 72.5 -178.5t203.5 -75.5q88 0 151.5 34t119.5 97l-322 430l-54 -39l-22 -16q-22 -16 -31.5 -24.5l-31 -28.5t-33.5 -38.5t-26 -43.5t-20.5 -55
t-6.5 -62z" />
    <glyph glyph-name="quotesingle" unicode="'" horiz-adv-x="440" 
d="M120 1330q0 44 28 72t72 28t72 -28t28 -72q0 -18 -6 -52l-45 -272h-98l-45 272q-6 34 -6 52z" />
    <glyph glyph-name="parenleft" unicode="(" horiz-adv-x="653" 
d="M467 -439q-223 181 -306 475q-51 184 -51 505q0 317 51 505q81 292 306 475l76 -88q-178 -165 -244 -407q-49 -181 -49 -485t49 -485q66 -242 244 -407z" />
    <glyph glyph-name="parenright" unicode=")" horiz-adv-x="653" 
d="M186 1521q223 -181 306 -475q51 -188 51 -505t-51 -505q-83 -294 -306 -475l-76 88q178 165 244 407q49 181 49 485t-49 485q-66 242 -244 407z" />
    <glyph glyph-name="asterisk" unicode="*" horiz-adv-x="1043" 
d="M881 1284l42 -129l-294 -91l187 -249l-118 -85l-176 251l-176 -251l-118 85l187 249l-295 91l43 129l289 -100l-5 312h150l-4 -311z" />
    <glyph glyph-name="plus" unicode="+" horiz-adv-x="1140" 
d="M160 474v134h335v343h150v-343h335v-134h-335v-343h-150v343h-335z" />
    <glyph glyph-name="comma" unicode="," horiz-adv-x="500" 
d="M250 204q49 0 79.5 -30.5t30.5 -79.5q0 -28 -24 -94l-91 -250h-98l57 243q-28 11 -46 38t-18 63q0 49 30.5 79.5t79.5 30.5z" />
    <glyph glyph-name="hyphen" unicode="-" horiz-adv-x="820" 
d="M160 474v134h500v-134h-500z" />
    <glyph glyph-name="period" unicode="." horiz-adv-x="500" 
d="M250 204q49 0 79.5 -30.5t30.5 -79.5t-30.5 -79.5t-79.5 -30.5t-79.5 30.5t-30.5 79.5t30.5 79.5t79.5 30.5z" />
    <glyph glyph-name="slash" unicode="/" horiz-adv-x="930" 
d="M677 1416h147l-571 -1506h-147z" />
    <glyph glyph-name="zero" unicode="0" horiz-adv-x="1108" 
d="M554 1435q93 0 172.5 -32.5t130.5 -88.5q29 -32 48.5 -65t32.5 -79.5t20 -83t10 -108.5t3.5 -119.5t0.5 -150.5t-0.5 -150.5t-3.5 -119.5t-10 -108.5t-20 -83t-32.5 -79.5t-48.5 -65q-51 -56 -130.5 -88.5t-172.5 -32.5t-172.5 32.5t-130.5 88.5q-29 32 -48.5 65
t-32.5 79.5t-20 83t-10 108.5t-3.5 119.5t-0.5 150.5t0.5 150.5t3.5 119.5t10 108.5t20 83t32.5 79.5t48.5 65q51 56 130.5 88.5t172.5 32.5zM554 1295q-120 0 -185 -73q-23 -25 -37.5 -62t-22.5 -72.5t-12 -105.5t-4.5 -119t-0.5 -155t0.5 -155t4.5 -119t12 -105.5
t22.5 -72.5t37.5 -62q65 -73 185 -73t185 73q23 25 37.5 62t22.5 72.5t12 105.5t4.5 119t0.5 155t-0.5 155t-4.5 119t-12 105.5t-22.5 72.5t-37.5 62q-65 73 -185 73z" />
    <glyph glyph-name="one" unicode="1" horiz-adv-x="758" 
d="M538 0h-156v1235l-197 -102l-65 128l300 155h118v-1416z" />
    <glyph glyph-name="two" unicode="2" horiz-adv-x="1108" 
d="M512 1435q179 0 293.5 -112.5t114.5 -282.5q0 -81 -30.5 -155t-95.5 -161l-440 -584h608v-140h-816v108l517 692q53 71 77 123t24 117q0 112 -69 183.5t-183 71.5q-134 0 -255 -115l-102 106q155 149 357 149z" />
    <glyph glyph-name="three" unicode="3" horiz-adv-x="1108" 
d="M164 145l106 102q117 -126 284 -126q121 0 194 74.5t73 194.5q0 65 -27 122t-69 91q-34 27 -78.5 40.5t-78 15.5t-103.5 2h-72v140h75q67 0 98.5 2t72 14t71.5 37q39 31 63.5 83t24.5 112q0 109 -66.5 177.5t-177.5 68.5q-160 0 -281 -128l-103 106q70 70 169 116t215 46
q175 0 287.5 -108.5t112.5 -279.5q0 -98 -47.5 -183t-124.5 -130q88 -50 141.5 -141.5t53.5 -200.5q0 -178 -117.5 -294.5t-305.5 -116.5q-120 0 -221 45.5t-169 118.5z" />
    <glyph glyph-name="four" unicode="4" horiz-adv-x="1142" 
d="M1012 490v-140h-120v-350h-156v350h-606v101l414 965h157l-398 -926h433v350h156v-350h120z" />
    <glyph glyph-name="five" unicode="5" horiz-adv-x="1108" 
d="M894 1416v-140h-538v-461q99 51 223 51q164 0 278.5 -124.5t114.5 -315.5q0 -190 -117 -317.5t-306 -127.5q-116 0 -216 46t-172 118l99 107q133 -131 289 -131q124 0 195.5 87.5t71.5 217.5q0 133 -72.5 219t-194.5 86q-121 0 -227 -70l-122 58v697h694z" />
    <glyph glyph-name="six" unicode="6" horiz-adv-x="1108" 
d="M554 761q-115 0 -191 -85t-76 -235t76 -235t191 -85t191 85t76 235t-76 235t-191 85zM584 891q115 0 206 -61.5t139 -164t48 -224.5q0 -195 -116.5 -327.5t-306.5 -132.5q-126 0 -223.5 62.5t-148.5 167t-51 231.5q0 68 18 136t36 108t55 110l321 620h166l-290 -552
q64 27 147 27z" />
    <glyph glyph-name="seven" unicode="7" horiz-adv-x="1108" 
d="M126 1276v140h856v-94l-545 -1322h-167l527 1276h-671z" />
    <glyph glyph-name="eight" unicode="8" horiz-adv-x="1108" 
d="M554 1435q174 0 284.5 -110.5t110.5 -276.5q0 -99 -42.5 -180t-122.5 -133q93 -54 143 -144t50 -200q0 -176 -118.5 -293t-304.5 -117t-304.5 117t-118.5 293q0 110 50 200t143 144q-80 52 -122.5 133t-42.5 180q0 166 110.5 276.5t284.5 110.5zM554 1295
q-107 0 -173 -66t-66 -181t66 -181t173 -66t173 66t66 181t-66 181t-173 66zM554 661q-119 0 -193 -72.5t-74 -197.5t74 -197.5t193 -72.5t193 72.5t74 197.5t-74 197.5t-193 72.5z" />
    <glyph glyph-name="nine" unicode="9" horiz-adv-x="1108" 
d="M554 1435q188 0 303 -132.5t115 -327.5q0 -92 -24.5 -167t-71.5 -166l-330 -642h-171l286 550q-63 -25 -137 -25q-116 0 -206 63t-136 165t-46 222q0 195 115 327.5t303 132.5zM554 1295q-113 0 -187.5 -85t-74.5 -235t74.5 -235t187.5 -85t187.5 85t74.5 235t-74.5 235
t-187.5 85z" />
    <glyph glyph-name="colon" unicode=":" horiz-adv-x="500" 
d="M250 204q49 0 79.5 -30.5t30.5 -79.5t-30.5 -79.5t-79.5 -30.5t-79.5 30.5t-30.5 79.5t30.5 79.5t79.5 30.5zM250 1101q49 0 79.5 -30.5t30.5 -79.5t-30.5 -79.5t-79.5 -30.5t-79.5 30.5t-30.5 79.5t30.5 79.5t79.5 30.5z" />
    <glyph glyph-name="semicolon" unicode=";" horiz-adv-x="500" 
d="M250 1101q49 0 79.5 -30.5t30.5 -79.5t-30.5 -79.5t-79.5 -30.5t-79.5 30.5t-30.5 79.5t30.5 79.5t79.5 30.5zM250 204q49 0 79.5 -30.5t30.5 -79.5q0 -28 -24 -94l-91 -250h-98l57 243q-28 11 -46 38t-18 63q0 49 30.5 79.5t79.5 30.5z" />
    <glyph glyph-name="less" unicode="&#x3c;" horiz-adv-x="963" 
d="M160 597l608 354l69 -120l-510 -290l510 -290l-69 -120l-608 354v112z" />
    <glyph glyph-name="equal" unicode="=" horiz-adv-x="1060" 
d="M180 634v134h700v-134h-700zM180 314v134h700v-134h-700z" />
    <glyph glyph-name="greater" unicode="&#x3e;" horiz-adv-x="963" 
d="M803 597v-112l-608 -354l-69 120l510 290l-510 290l69 120z" />
    <glyph glyph-name="question" unicode="?" horiz-adv-x="916" 
d="M421 204q49 0 79.5 -30.5t30.5 -79.5t-30.5 -79.5t-79.5 -30.5t-79.5 30.5t-30.5 79.5t30.5 79.5t79.5 30.5zM178 1193l-98 100q146 139 341 139q173 0 284 -108t111 -272q0 -120 -74 -221q-28 -38 -110 -102t-102 -99q-25 -43 -34 -82t-9 -101l-1 -60h-130q-1 35 -1 59
q0 86 13 143.5t53 115.5q19 28 46.5 54.5t65.5 58t53 45.5q80 74 80 188q0 109 -66.5 178t-178.5 69q-134 0 -243 -105z" />
    <glyph glyph-name="at" unicode="@" horiz-adv-x="1519" 
d="M719 537q0 -85 56.5 -144t158.5 -59q82 0 146 40t90 121q9 29 13.5 67t5 71.5t0.5 109.5h-145q-144 0 -190 -14q-65 -20 -100 -71.5t-35 -120.5zM821 1314q135 0 229 -19.5t164 -78.5q44 -38 71.5 -80.5t38 -94t13 -84t2.5 -90.5v-651h-150v115q-114 -131 -275 -131
q-152 0 -248.5 96.5t-96.5 240.5q0 108 61.5 191.5t173.5 117.5q33 10 73 15t70 5.5t91 0.5h151q0 62 -2 91.5t-15 69t-40 70.5q-45 51 -118 66.5t-192 15.5q-139 0 -222 -13.5t-142 -61.5q-27 -22 -47.5 -53t-34 -62t-22.5 -78.5t-14 -82t-7 -94t-2.5 -93.5t-0.5 -101
q0 -118 3.5 -191t15.5 -152.5t39 -132t70 -88.5q57 -47 132.5 -61t221.5 -14q201 0 294 9.5t195 50.5l53 -125q-79 -33 -169 -48.5t-159 -18t-214 -2.5q-177 0 -275.5 21t-180.5 90q-41 34 -71 75.5t-48.5 94t-30.5 102t-17.5 120t-7 127.5t-1.5 143t1.5 143.5t7 128
t17.5 120.5t30.5 102.5t48.5 93.5t71 74q84 69 189.5 90t275.5 21z" />
    <glyph glyph-name="A" unicode="A" horiz-adv-x="1190" 
d="M830 482l-235 723l-235 -723h470zM520 1416h150l480 -1416h-163l-111 342h-562l-111 -342h-163z" />
    <glyph glyph-name="B" unicode="B" horiz-adv-x="1166" 
d="M336 792h196q49 0 73 0.5t53.5 5.5t51.5 14q68 30 100 92t32 130q0 27 -6 55.5t-20 62t-43.5 62.5t-70.5 45q-44 17 -170 17h-196v-484zM336 652v-512h226q51 0 76 1t57.5 6t57.5 16q73 33 105 98.5t32 134.5q0 33 -7.5 65.5t-23 66t-45.5 61.5t-71 44q-23 9 -53.5 13.5
t-54 5t-73.5 0.5h-226zM846 735q94 -49 147 -135.5t53 -203.5q0 -129 -71.5 -234.5t-203.5 -142.5q-67 -19 -209 -19h-382v1416h352q134 0 194 -16q121 -32 196.5 -131t75.5 -235q0 -97 -39.5 -173.5t-112.5 -125.5z" />
    <glyph glyph-name="C" unicode="C" horiz-adv-x="1114" 
d="M618 1435q202 0 374 -121l-80 -120q-142 101 -294 101q-208 0 -282 -170q-32 -73 -41 -173t-9 -244t9 -244t41 -173q74 -170 282 -170q184 0 324 119l88 -116q-182 -143 -412 -143q-155 0 -264.5 69t-162.5 188q-27 60 -41.5 146.5t-17 153t-2.5 170.5q0 160 11.5 273
t49.5 197q55 120 164.5 188.5t262.5 68.5z" />
    <glyph glyph-name="D" unicode="D" horiz-adv-x="1217" 
d="M336 1276v-1136h203q51 0 80.5 1t73 9.5t71.5 24.5q35 20 62 50t44.5 59.5t29.5 75t18 79t9 89.5t3.5 87.5t0.5 92.5t-0.5 92.5t-3.5 87.5t-9 89.5t-18 79t-29.5 75t-44.5 59.5t-62 50q-28 16 -71.5 24.5t-73 9.5t-80.5 1h-203zM180 1416h359q150 0 229 -23
q92 -27 157.5 -90.5t102.5 -146.5q27 -62 41 -148.5t16 -143.5t2 -156t-2 -156t-16 -143.5t-41 -148.5q-37 -83 -102.5 -146.5t-157.5 -90.5q-79 -23 -229 -23h-359v1416z" />
    <glyph glyph-name="E" unicode="E" 
d="M180 1416h780v-140h-624v-484h534v-140h-534v-512h624v-140h-780v1416z" />
    <glyph glyph-name="F" unicode="F" horiz-adv-x="1060" 
d="M180 1416h760v-140h-604v-484h524v-140h-524v-652h-156v1416z" />
    <glyph glyph-name="G" unicode="G" horiz-adv-x="1236" 
d="M618 1435q202 0 374 -121l-80 -120q-142 101 -294 101q-208 0 -282 -170q-32 -73 -41 -173t-9 -244t9 -244t41 -173q74 -170 282 -170t282 170q44 100 49 311h-301v140h458q0 -126 -2.5 -194.5t-16.5 -157.5t-42 -152q-53 -119 -162 -188t-265 -69q-155 0 -264.5 69
t-162.5 188q-27 60 -41.5 146.5t-17 153t-2.5 170.5q0 160 11.5 273t49.5 197q55 120 164.5 188.5t262.5 68.5z" />
    <glyph glyph-name="H" unicode="H" horiz-adv-x="1280" 
d="M180 1416h156v-624h608v624h156v-1416h-156v652h-608v-652h-156v1416z" />
    <glyph glyph-name="I" unicode="I" horiz-adv-x="516" 
d="M336 1416v-1416h-156v1416h156z" />
    <glyph glyph-name="J" unicode="J" horiz-adv-x="958" 
d="M642 1416h156v-983q0 -125 -11 -176q-27 -123 -125 -199.5t-237 -76.5q-182 0 -345 122l89 116q119 -98 246 -98q77 0 133 37t79 106q15 45 15 169v983z" />
    <glyph glyph-name="K" unicode="K" horiz-adv-x="1179" 
d="M336 601l598 815h177l-505 -681l523 -735h-185l-437 624l-171 -224v-400h-156v1416h156v-815z" />
    <glyph glyph-name="L" unicode="L" horiz-adv-x="980" 
d="M180 1416h156v-1276h564v-140h-720v1416z" />
    <glyph glyph-name="M" unicode="M" horiz-adv-x="1494" 
d="M180 0v1416h156l411 -839l411 839h156v-1416h-156v1122l-340 -701h-142l-340 701v-1122h-156z" />
    <glyph glyph-name="N" unicode="N" horiz-adv-x="1294" 
d="M958 1416h156v-1416h-157l-621 1136v-1136h-156v1416h157l621 -1136v1136z" />
    <glyph glyph-name="O" unicode="O" horiz-adv-x="1256" 
d="M628 1435q156 0 267 -69t165 -186q31 -66 46.5 -158t17.5 -152t2 -162t-2 -162t-17.5 -152t-46.5 -158q-54 -117 -165 -186t-267 -69t-267 69t-165 186q-31 66 -46.5 158t-17.5 152t-2 162t2 162t17.5 152t46.5 158q54 117 165 186t267 69zM628 1295q-106 0 -179 -44.5
t-109 -123.5q-25 -53 -37.5 -132.5t-14.5 -136t-2 -150.5t2 -150.5t14.5 -136t37.5 -132.5q36 -79 109 -123.5t179 -44.5t179 44.5t109 123.5q25 53 37.5 132.5t14.5 136t2 150.5t-2 150.5t-14.5 136t-37.5 132.5q-36 79 -109 123.5t-179 44.5z" />
    <glyph glyph-name="P" unicode="P" horiz-adv-x="1126" 
d="M482 1276h-146v-620h146q55 0 81.5 0.5t61.5 5.5t62 15q90 33 136.5 113.5t46.5 175.5t-46.5 175.5t-136.5 113.5q-27 10 -62 15t-61.5 5.5t-81.5 0.5zM482 1416q145 0 213 -16q155 -37 243 -157t88 -277t-88 -277t-243 -157q-68 -16 -213 -16h-146v-516h-156v1416h302z
" />
    <glyph glyph-name="Q" unicode="Q" horiz-adv-x="1256" 
d="M628 1295q-106 0 -179 -44.5t-109 -123.5q-25 -53 -37.5 -132.5t-14.5 -136t-2 -150.5t2 -150.5t14.5 -136t37.5 -132.5q36 -79 109 -123.5t179 -44.5t179 44.5t109 123.5q25 53 37.5 132.5t14.5 136t2 150.5t-2 150.5t-14.5 136t-37.5 132.5q-36 79 -109 123.5
t-179 44.5zM628 1435q156 0 267 -69t165 -186q31 -66 46.5 -158t17.5 -152t2 -162t-2 -162t-17.5 -152t-46.5 -158q-46 -101 -136 -167l222 -223l-104 -104l-260 259q-72 -20 -154 -20q-156 0 -267 69t-165 186q-31 66 -46.5 158t-17.5 152t-2 162t2 162t17.5 152t46.5 158
q54 117 165 186t267 69z" />
    <glyph glyph-name="R" unicode="R" horiz-adv-x="1141" 
d="M507 1416q69 0 102.5 -1.5t79 -9.5t88.5 -26q113 -46 181 -151.5t68 -241.5q0 -137 -69 -243t-183 -151l277 -592h-169l-254 556h-292v-556h-156v1416h327zM507 1276h-171v-580h171q55 0 81.5 1t61 6.5t61.5 16.5q45 19 77.5 51.5t49.5 70.5t24.5 73.5t7.5 70.5
t-7.5 70.5t-24.5 73.5t-49.5 70.5t-77.5 51.5q-27 11 -61.5 16.5t-61 6.5t-81.5 1z" />
    <glyph glyph-name="S" unicode="S" horiz-adv-x="1045" 
d="M84 115l69 126q207 -120 364 -120q62 0 111 17.5t78.5 45t49 64t26.5 71t7 69.5q0 80 -36.5 144t-119.5 95q-40 15 -127.5 32.5t-131.5 32.5q-126 45 -193 142t-67 221q0 160 108 270t295 110q165 0 373 -100l-60 -129q-184 89 -313 89q-123 0 -185 -70t-62 -170
q0 -78 39 -141t121 -91q37 -13 126.5 -31t137.5 -36q125 -48 188 -145.5t63 -222.5q0 -81 -27.5 -153.5t-79 -129.5t-135 -90.5t-186.5 -33.5q-117 0 -220 36t-213 98z" />
    <glyph glyph-name="T" unicode="T" horiz-adv-x="1048" 
d="M60 1417h928v-140h-386v-1277h-156v1277h-386v140z" />
    <glyph glyph-name="U" unicode="U" horiz-adv-x="1236" 
d="M160 1416h156v-901q0 -146 20 -205q34 -99 113.5 -144t168.5 -45t168.5 45t113.5 144q20 59 20 205v901h156v-901q0 -58 -1 -88.5t-7 -75t-18 -81.5q-33 -100 -101.5 -166.5t-151 -94.5t-179.5 -28t-179.5 28t-151 94.5t-101.5 166.5q-12 37 -18 81.5t-7 75t-1 88.5v901z
" />
    <glyph glyph-name="V" unicode="V" horiz-adv-x="1190" 
d="M40 1416h163l392 -1205l392 1205h163l-480 -1416h-150z" />
    <glyph glyph-name="W" unicode="W" horiz-adv-x="1500" 
d="M220 1416l242 -1141l213 711h150l213 -711l242 1141h160l-311 -1416h-152l-227 762l-227 -762h-152l-311 1416h160z" />
    <glyph glyph-name="X" unicode="X" horiz-adv-x="1074" 
d="M55 1416h175l307 -570l307 570h175l-394 -694l409 -722h-175l-322 598l-322 -598h-175l409 722z" />
    <glyph glyph-name="Y" unicode="Y" horiz-adv-x="1082" 
d="M40 1416h169l332 -744l332 744h169l-423 -910v-506h-156v506z" />
    <glyph glyph-name="Z" unicode="Z" horiz-adv-x="1027" 
d="M105 1276v140h822v-101l-661 -1175h681v-140h-867v101l661 1175h-636z" />
    <glyph glyph-name="bracketleft" unicode="[" horiz-adv-x="652" 
d="M170 1538h332v-124h-192v-1746h192v-124h-332v1994z" />
    <glyph glyph-name="backslash" unicode="\" horiz-adv-x="930" 
d="M106 1416h147l571 -1506h-147z" />
    <glyph glyph-name="bracketright" unicode="]" horiz-adv-x="652" 
d="M482 1538v-1994h-332v124h192v1746h-192v124h332z" />
    <glyph glyph-name="asciicircum" unicode="^" horiz-adv-x="862" 
d="M571 1222l-140 138l-140 -138h-171l258 274h106l258 -274h-171z" />
    <glyph glyph-name="underscore" unicode="_" horiz-adv-x="840" 
d="M30 0h780v-150h-780v150z" />
    <glyph glyph-name="grave" unicode="`" horiz-adv-x="563" 
d="M120 1496h169l154 -274h-158z" />
    <glyph glyph-name="a" unicode="a" horiz-adv-x="1020" 
d="M250 321q0 -85 56.5 -144t158.5 -59q82 0 146 40t90 121q9 29 13.5 67t5 71.5t0.5 109.5h-145q-144 0 -190 -14q-65 -20 -100 -71.5t-35 -120.5zM870 651v-651h-150v115q-114 -131 -275 -131q-152 0 -248.5 96.5t-96.5 240.5q0 108 61.5 191.5t173.5 117.5q33 10 73 15
t70 5.5t91 0.5h151q0 80 -2.5 114.5t-13.5 63.5q-25 67 -84 101t-135 34q-111 0 -263 -73l-57 124q182 83 320 83q133 0 233 -64t136 -183q16 -53 16 -200z" />
    <glyph glyph-name="b" unicode="b" horiz-adv-x="1115" 
d="M595 1098q102 0 185 -44t130 -116q50 -77 65 -165.5t15 -231.5t-15 -231.5t-65 -165.5q-47 -72 -130 -116t-185 -44q-167 0 -285 131v-115h-150v1496h150v-529q118 131 285 131zM575 964q-134 0 -205 -98q-38 -52 -49 -126t-11 -199t11 -199t49 -126q71 -98 205 -98
t205 98q38 52 49 126t11 199t-11 199t-49 126q-71 98 -205 98z" />
    <glyph glyph-name="c" unicode="c" horiz-adv-x="964" 
d="M535 1098q165 0 327 -101l-71 -118q-131 85 -256 85q-131 0 -204 -105q-26 -38 -39 -99.5t-15 -102.5t-2 -110q0 -78 1.5 -119.5t13.5 -99.5t36 -98q35 -58 91 -85t118 -27q68 0 142.5 26t130.5 64l76 -114q-71 -48 -165 -79t-184 -31q-114 0 -204 50.5t-137 132.5
q-32 56 -48 123.5t-18.5 117t-2.5 139.5q0 78 2.5 125.5t18.5 118.5t48 124q49 82 137.5 132.5t203.5 50.5z" />
    <glyph glyph-name="d" unicode="d" horiz-adv-x="1115" 
d="M520 1098q167 0 285 -131v529h150v-1496h-150v115q-118 -131 -285 -131q-102 0 -185 44t-130 116q-50 77 -65 165.5t-15 231.5t15 231.5t65 165.5q47 72 130 116t185 44zM540 964q-134 0 -205 -98q-38 -52 -49 -126t-11 -199t11 -199t49 -126q71 -98 205 -98t205 98
q38 52 49 126t11 199t-11 199t-49 126q-71 98 -205 98z" />
    <glyph glyph-name="e" unicode="e" horiz-adv-x="1055" 
d="M550 -16q-116 0 -205 43.5t-141 119.5q-37 53 -55.5 126t-21 123.5t-2.5 144.5q0 77 1.5 116.5t10 96t25.5 102.5q42 110 140.5 176t227.5 66q127 0 226.5 -66.5t142.5 -176.5q25 -63 30.5 -125.5t5.5 -187.5v-33h-660q0 -65 2 -104.5t15.5 -95t39.5 -92.5
q69 -99 218 -99q133 0 286 73l57 -124q-177 -83 -343 -83zM785 633q-2 114 -29 181q-27 69 -87.5 109.5t-138.5 40.5q-81 0 -140 -40.5t-85 -108.5q-27 -70 -29 -182h509z" />
    <glyph glyph-name="f" unicode="f" horiz-adv-x="615" 
d="M210 1143q0 67 2 100t14.5 78t38.5 82q78 109 230 109q55 0 140 -17l-27 -132q-62 15 -113 15q-70 0 -104 -48q-21 -30 -26 -68t-5 -119v-61h200v-124h-200v-958h-150v958h-150v124h150v61z" />
    <glyph glyph-name="g" unicode="g" horiz-adv-x="1115" 
d="M520 1098q167 0 285 -131v115h150v-971q0 -176 -16 -238q-38 -147 -153 -223.5t-266 -76.5q-160 0 -336 73l50 126q156 -65 286 -65q104 0 177.5 51t96.5 150q11 48 11 207q-118 -131 -285 -131q-102 0 -185 44t-130 116q-50 77 -65 165.5t-15 231.5t15 231.5t65 165.5
q47 72 130 116t185 44zM540 964q-134 0 -205 -98q-38 -52 -49 -126t-11 -199t11 -199t49 -126q71 -98 205 -98t205 98q38 52 49 126t11 199t-11 199t-49 126q-71 98 -205 98z" />
    <glyph glyph-name="h" unicode="h" 
d="M585 1098q88 0 161 -36t121 -96q30 -37 48 -78t25 -91t8.5 -82t1.5 -90v-625h-150v615q0 76 -2 111.5t-15 80.5t-41 77q-68 80 -187 80t-187 -80q-28 -32 -41 -77t-15 -80.5t-2 -111.5v-615h-150v1496h150v-528q118 130 275 130z" />
    <glyph glyph-name="i" unicode="i" horiz-adv-x="480" 
d="M240 1435q41 0 67.5 -26.5t26.5 -67.5t-26.5 -67.5t-67.5 -26.5t-67.5 26.5t-26.5 67.5t26.5 67.5t67.5 26.5zM315 0h-150v1082h150v-1082z" />
    <glyph glyph-name="j" unicode="j" horiz-adv-x="480" 
d="M240 1435q41 0 67.5 -26.5t26.5 -67.5t-26.5 -67.5t-67.5 -26.5t-67.5 26.5t-26.5 67.5t26.5 67.5t67.5 26.5zM315 -134q0 -94 -10 -130q-21 -75 -82 -119.5t-143 -44.5q-71 0 -131 19l38 130q45 -15 83 -15q64 0 85 54q10 25 10 111v1211h150v-1216z" />
    <glyph glyph-name="k" unicode="k" horiz-adv-x="995" 
d="M160 1496h150v-1007l439 593h176l-401 -535l411 -547h-180l-325 443l-120 -156v-287h-150v1496z" />
    <glyph glyph-name="l" unicode="l" horiz-adv-x="486" 
d="M402 124l24 -128q-40 -12 -92 -12q-82 0 -136 66q-38 46 -38 141v1305h150v-1305q0 -45 11 -59t35 -14q22 0 46 6z" />
    <glyph glyph-name="m" unicode="m" horiz-adv-x="1660" 
d="M910 0h-150v637q0 62 -1 90.5t-7 62.5t-18 59q-26 54 -79.5 84.5t-119.5 30.5t-119.5 -30.5t-79.5 -84.5q-12 -25 -18 -59t-7 -62.5t-1 -90.5v-637h-150v1082h150v-111q110 127 255 127q99 0 174 -45.5t116 -125.5q53 80 133 125.5t177 45.5q109 0 194.5 -58t123.5 -160
q13 -34 19 -76.5t7 -71.5t1 -85v-647h-150v637q0 62 -1 90.5t-7 62.5t-18 59q-26 54 -79.5 84.5t-119.5 30.5t-119.5 -30.5t-79.5 -84.5q-12 -25 -18 -59t-7 -62.5t-1 -90.5v-637z" />
    <glyph glyph-name="n" unicode="n" 
d="M585 1098q111 0 201.5 -58.5t132.5 -163.5q15 -36 22 -82t8 -77.5t1 -91.5v-625h-150v615q0 95 -4 137.5t-22 81.5q-28 62 -86.5 96t-132.5 34t-132.5 -34t-86.5 -96q-18 -39 -22 -81.5t-4 -137.5v-615h-150v1082h150v-114q118 130 275 130z" />
    <glyph glyph-name="o" unicode="o" 
d="M550 964q-130 0 -199 -79q-27 -31 -43.5 -69.5t-23 -90t-8 -86t-1.5 -98.5t1.5 -98.5t8 -86t23 -90t43.5 -69.5q69 -79 199 -79t199 79q27 31 43.5 69.5t23 90t8 86t1.5 98.5t-1.5 98.5t-8 86t-23 90t-43.5 69.5q-69 79 -199 79zM550 1098q99 0 180 -34.5t133 -91.5
q40 -44 64.5 -95.5t34 -115t11.5 -105t2 -115.5t-2 -115.5t-11.5 -105t-34 -115t-64.5 -95.5q-52 -57 -133 -91.5t-180 -34.5t-180 34.5t-133 91.5q-40 44 -64.5 95.5t-34 115t-11.5 105t-2 115.5t2 115.5t11.5 105t34 115t64.5 95.5q52 57 133 91.5t180 34.5z" />
    <glyph glyph-name="p" unicode="p" horiz-adv-x="1115" 
d="M595 1098q102 0 185 -44t130 -116q50 -77 65 -165.5t15 -231.5t-15 -231.5t-65 -165.5q-47 -72 -130 -116t-185 -44q-167 0 -285 131v-529h-150v1496h150v-115q118 131 285 131zM575 964q-134 0 -205 -98q-38 -52 -49 -126t-11 -199t11 -199t49 -126q71 -98 205 -98
t205 98q38 52 49 126t11 199t-11 199t-49 126q-71 98 -205 98z" />
    <glyph glyph-name="q" unicode="q" horiz-adv-x="1115" 
d="M520 1098q167 0 285 -131v115h150v-1496h-150v529q-118 -131 -285 -131q-102 0 -185 44t-130 116q-50 77 -65 165.5t-15 231.5t15 231.5t65 165.5q47 72 130 116t185 44zM540 964q-134 0 -205 -98q-38 -52 -49 -126t-11 -199t11 -199t49 -126q71 -98 205 -98t205 98
q38 52 49 126t11 199t-11 199t-49 126q-71 98 -205 98z" />
    <glyph glyph-name="r" unicode="r" horiz-adv-x="697" 
d="M310 968q109 130 255 130q41 0 92 -11l-22 -132q-63 9 -90 9q-76 0 -132 -36t-81 -97q-22 -53 -22 -188v-643h-150v1082h150v-114z" />
    <glyph glyph-name="s" unicode="s" horiz-adv-x="963" 
d="M478 1098q149 0 343 -82l-51 -127q-176 75 -292 75q-58 0 -102 -17t-66 -44t-32.5 -54t-10.5 -53q0 -50 27.5 -87.5t69.5 -56.5q41 -19 134.5 -32.5t156.5 -36.5q88 -33 148 -107t60 -175q0 -127 -103 -222t-282 -95q-168 0 -378 93l54 125q186 -84 324 -84
q62 0 109.5 17t73.5 45t39 58.5t13 62.5q0 57 -34 99t-84 61q-34 13 -137 29t-164 44q-77 36 -127 104t-50 158q0 123 98.5 212.5t262.5 89.5z" />
    <glyph glyph-name="t" unicode="t" horiz-adv-x="652" 
d="M190 303v655h-150v124h150v234h150v-234h200v-124h-200v-655q0 -108 9 -130q23 -55 86 -55q52 0 114 32l58 -124q-96 -42 -182 -42q-85 0 -143.5 41t-80.5 117q-11 38 -11 161z" />
    <glyph glyph-name="u" unicode="u" horiz-adv-x="1090" 
d="M150 1082h150v-625q0 -135 15 -181q25 -77 87 -117.5t143 -40.5t143 40.5t87 117.5q15 46 15 181v625h150v-635q0 -53 -1 -81.5t-7 -70.5t-19 -76q-42 -114 -137.5 -174.5t-230.5 -60.5t-230.5 60.5t-137.5 174.5q-13 34 -19 76t-7 70.5t-1 81.5v635z" />
    <glyph glyph-name="v" unicode="v" horiz-adv-x="990" 
d="M423 0l-363 1082h157l278 -890l278 890h157l-363 -1082h-144z" />
    <glyph glyph-name="w" unicode="w" horiz-adv-x="1408" 
d="M329 0l-259 1082h153l186 -834l222 834h146l222 -834l186 834h153l-259 -1082h-146l-229 856l-229 -856h-146z" />
    <glyph glyph-name="x" unicode="x" horiz-adv-x="950" 
d="M880 0h-169l-236 421l-236 -421h-169l320 545l-315 537h169l231 -413l231 413h169l-315 -537z" />
    <glyph glyph-name="y" unicode="y" horiz-adv-x="987" 
d="M94 -409l33 130q51 -14 95 -14q72 0 120 38q19 15 33.5 37.5t21.5 41t18 52.5l37 122l-392 1084h156l302 -885l256 885h153l-377 -1241q-20 -66 -43.5 -110t-62.5 -78q-90 -80 -222 -80q-56 0 -128 18z" />
    <glyph glyph-name="z" unicode="z" horiz-adv-x="880" 
d="M800 134v-134h-720v108l526 840h-519v134h704v-108l-526 -840h535z" />
    <glyph glyph-name="braceleft" unicode="{" horiz-adv-x="703" 
d="M264 541q157 -129 157 -367q0 -37 -5 -104t-5 -97q0 -232 162 -319l-43 -98q-259 110 -259 417q0 37 5 104t5 97q0 234 -171 311v112q171 77 171 311q0 30 -5 97t-5 104q0 307 259 417l43 -98q-162 -87 -162 -319q0 -30 5 -97t5 -104q0 -238 -157 -367z" />
    <glyph glyph-name="bar" unicode="|" horiz-adv-x="492" 
d="M176 1538h140v-1994h-140v1994z" />
    <glyph glyph-name="braceright" unicode="}" horiz-adv-x="703" 
d="M439 541q-157 129 -157 367q0 37 5 104t5 97q0 232 -162 319l43 98q259 -110 259 -417q0 -37 -5 -104t-5 -97q0 -234 171 -311v-112q-171 -77 -171 -311q0 -30 5 -97t5 -104q0 -307 -259 -417l-43 98q162 87 162 319q0 30 -5 97t-5 104q0 238 157 367z" />
    <glyph glyph-name="asciitilde" unicode="~" horiz-adv-x="1114" 
d="M376 678q59 0 114.5 -22t91 -48t78 -48t78.5 -22q45 0 82.5 36t54.5 95l139 -44q-28 -95 -101 -158t-175 -63q-59 0 -114.5 22t-91 48t-78 48t-78.5 22q-45 0 -82.5 -36t-54.5 -95l-139 44q28 95 101 158t175 63z" />
    <glyph glyph-name="uni00A0" unicode="&#xa0;" horiz-adv-x="590" 
 />
    <glyph glyph-name="exclamdown" unicode="&#xa1;" horiz-adv-x="500" 
d="M250 798q-49 0 -79.5 30.5t-30.5 79.5t30.5 79.5t79.5 30.5t79.5 -30.5t30.5 -79.5t-30.5 -79.5t-79.5 -30.5zM172 -414v365q0 107 5 273t10 278l5 112h116q20 -424 20 -663v-365h-156z" />
    <glyph glyph-name="cent" unicode="&#xa2;" horiz-adv-x="1019" 
d="M505 1282h100v-186q171 -16 310 -133l-84 -106q-109 89 -226 104v-840q142 17 238 123l100 -92q-132 -148 -338 -166v-206h-100v206q-104 10 -186 57t-129 121q-25 40 -40 82.5t-21 97t-7.5 90.5t-1.5 107q0 97 2.5 145t18 114t48.5 117q48 75 129 122t187 57v186z
M505 121v840q-131 -15 -192 -107q-36 -54 -44.5 -119t-8.5 -194q0 -86 2 -126.5t13 -91.5t35 -89q60 -96 195 -113z" />
    <glyph glyph-name="sterling" unicode="&#xa3;" horiz-adv-x="1014" 
d="M551 1435q173 0 297 -113l-98 -108q-88 81 -199 81q-100 0 -161 -62.5t-61 -168.5q0 -61 31.5 -184t38.5 -158h405v-124h-390q2 -17 2 -52q0 -214 -99 -406h591v-140h-788v107q67 94 103.5 208t36.5 231q0 35 -2 52h-138v124h121q-8 38 -27.5 107t-30 123.5t-10.5 111.5
q0 166 108.5 268.5t269.5 102.5z" />
    <glyph glyph-name="currency" unicode="&#xa4;" horiz-adv-x="1170" 
d="M585 764q-95 0 -155 -59.5t-60 -163.5t60 -163.5t155 -59.5t155 59.5t60 163.5t-60 163.5t-155 59.5zM236 91l-101 101l145 145q-60 88 -60 204t60 204l-145 145l101 101l147 -147q89 54 202 54t202 -54l147 147l101 -101l-145 -145q60 -88 60 -204t-60 -204l145 -145
l-101 -101l-147 147q-89 -54 -202 -54t-202 54z" />
    <glyph glyph-name="yen" unicode="&#xa5;" horiz-adv-x="1162" 
d="M80 1416h169l332 -744l332 744h169l-314 -671h194v-124h-255l-48 -95v-75h303v-124h-303v-327h-156v327h-303v124h303v75l-48 95h-255v124h194z" />
    <glyph glyph-name="brokenbar" unicode="&#xa6;" horiz-adv-x="492" 
d="M176 1538h140v-840h-140v840zM176 394h140v-850h-140v850z" />
    <glyph glyph-name="section" unicode="&#xa7;" horiz-adv-x="1001" 
d="M491 1490q171 0 331 -97l-72 -118q-122 81 -259 81q-83 0 -136 -42t-53 -116t50 -109t135 -46q51 -7 80.5 -12t69 -17.5t69.5 -30.5q64 -38 105 -104.5t41 -150.5q0 -69 -33 -129.5t-98 -101.5q72 -38 113.5 -102.5t41.5 -147.5q0 -100 -56.5 -175t-142.5 -110.5
t-186 -35.5q-197 0 -386 112l70 118q150 -96 316 -96q100 0 167.5 48t67.5 139q0 88 -72 135q-45 29 -154 43q-50 6 -73 9.5t-67.5 16.5t-79.5 33q-65 37 -107.5 103t-42.5 149q0 80 41.5 141t108.5 97q-128 81 -128 224q0 130 97.5 211t241.5 81zM600 545q43 24 72.5 73
t29.5 110q0 52 -24.5 90t-60.5 57q-38 20 -120.5 30.5t-102.5 16.5q-48 -26 -81 -74t-33 -112q0 -47 23 -83.5t59 -56.5q29 -16 69.5 -25t91.5 -14.5t77 -11.5z" />
    <glyph glyph-name="dieresis" unicode="&#xa8;" horiz-adv-x="810" 
d="M596 1435q41 0 67.5 -26.5t26.5 -67.5t-26.5 -67.5t-67.5 -26.5t-67.5 26.5t-26.5 67.5t26.5 67.5t67.5 26.5zM214 1435q41 0 67.5 -26.5t26.5 -67.5t-26.5 -67.5t-67.5 -26.5t-67.5 26.5t-26.5 67.5t26.5 67.5t67.5 26.5z" />
    <glyph glyph-name="copyright" unicode="&#xa9;" horiz-adv-x="1564" 
d="M782 1448q371 0 533 -225q40 -55 64.5 -120.5t34 -142t12 -125.5t2.5 -127t-2.5 -127t-12 -125.5t-34 -142t-64.5 -120.5q-162 -225 -533 -225t-533 225q-40 55 -64.5 120.5t-34 142t-12 125.5t-2.5 127t2.5 127t12 125.5t34 142t64.5 120.5q162 225 533 225zM782 1348
q-307 0 -439 -179q-32 -43 -53 -99.5t-29 -124t-10.5 -117t-2.5 -120.5t2.5 -120.5t10.5 -117t29 -124t53 -99.5q132 -179 439 -179t439 179q32 43 53 99.5t29 124t10.5 117t2.5 120.5t-2.5 120.5t-10.5 117t-29 124t-53 99.5q-132 179 -439 179zM1041 355
q-112 -121 -278 -121q-103 0 -175.5 44.5t-110.5 123.5q-19 40 -29 96t-12 98.5t-2 110.5q0 211 40 301q35 79 110 126.5t179 47.5q142 0 252 -92l-90 -106q-78 64 -162 64q-37 0 -65 -10.5t-47 -26t-32 -43.5t-19.5 -52.5t-10.5 -65t-4.5 -68.5t-0.5 -75t1 -76t4.5 -69
t10.5 -64.5t20 -52t32 -42.5t47 -25t64 -10q56 0 96.5 22t80.5 63z" />
    <glyph glyph-name="ordfeminine" unicode="&#xaa;" horiz-adv-x="789" 
d="M232 895q0 -58 35.5 -90.5t93.5 -32.5q83 0 121 54q24 32 29.5 72t5.5 123h-79q-79 0 -111 -5t-55 -25q-40 -35 -40 -96zM517 1129q0 37 -1 56t-8 44.5t-22 42.5q-36 42 -112 42q-78 0 -170 -46l-52 108q112 56 222 56q72 0 128.5 -24t90.5 -67q26 -33 39 -74t15 -69.5
t2 -85.5v-445h-132v80q-65 -93 -171 -93q-104 0 -175 66.5t-71 174.5q0 106 77 171q36 30 80.5 44.5t78 16.5t102.5 2h79z" />
    <glyph glyph-name="guillemotleft" unicode="&#xab;" horiz-adv-x="942" 
d="M704 939l118 -72l-210 -328l210 -328l-118 -72l-244 400zM372 955l118 -72l-218 -344l218 -344l-118 -72l-252 416z" />
    <glyph glyph-name="logicalnot" unicode="&#xac;" horiz-adv-x="940" 
d="M120 608h700v-408h-150v274h-550v134z" />
    <glyph glyph-name="uni00AD" unicode="&#xad;" horiz-adv-x="820" 
d="M180 474v134h500v-134h-500z" />
    <glyph glyph-name="registered" unicode="&#xae;" horiz-adv-x="1564" 
d="M782 1448q371 0 533 -225q40 -55 64.5 -120.5t34 -142t12 -125.5t2.5 -127t-2.5 -127t-12 -125.5t-34 -142t-64.5 -120.5q-162 -225 -533 -225t-533 225q-40 55 -64.5 120.5t-34 142t-12 125.5t-2.5 127t2.5 127t12 125.5t34 142t64.5 120.5q162 225 533 225zM782 1348
q-307 0 -439 -179q-32 -43 -53 -99.5t-29 -124t-10.5 -117t-2.5 -120.5t2.5 -120.5t10.5 -117t29 -124t53 -99.5q132 -179 439 -179t439 179q32 43 53 99.5t29 124t10.5 117t2.5 120.5t-2.5 120.5t-10.5 117t-29 124t-53 99.5q-132 179 -439 179zM658 713h38q54 0 79 1t54 8
t50 21q57 41 57 126q0 86 -57 127q-27 19 -64.5 24.5t-118.5 5.5h-38v-313zM508 1160h188q66 0 101 -2t85.5 -16t90.5 -42q52 -37 82.5 -97t30.5 -134q0 -83 -39.5 -151t-111.5 -100l168 -360h-162l-147 321h-136v-321h-150v902z" />
    <glyph glyph-name="macron" unicode="&#xaf;" horiz-adv-x="810" 
d="M120 1386h570v-134h-570v134z" />
    <glyph glyph-name="degree" unicode="&#xb0;" horiz-adv-x="692" 
d="M346 1393q-49 0 -81.5 -36t-32.5 -105t32.5 -105t81.5 -36t81.5 36t32.5 105t-32.5 105t-81.5 36zM346 1511q110 0 178 -76t68 -183t-68 -183t-178 -76t-178 76t-68 183t68 183t178 76z" />
    <glyph glyph-name="plusminus" unicode="&#xb1;" 
d="M170 184v134h770v-134h-770zM160 664v134h315v233h150v-233h315v-134h-315v-243h-150v243h-315z" />
    <glyph glyph-name="uni00B2" unicode="&#xb2;" horiz-adv-x="746" 
d="M351 1605q111 0 188 -61.5t77 -159.5q0 -19 -2.5 -35.5t-9 -33l-11 -27t-17 -27l-17.5 -23t-21 -25t-20 -23.5l-199 -233h317v-118h-506v96l286 330q49 56 58.5 76t9.5 43q0 50 -37.5 76.5t-95.5 26.5q-79 0 -145 -55l-76 96q97 77 221 77z" />
    <glyph glyph-name="uni00B3" unicode="&#xb3;" horiz-adv-x="757" 
d="M647 1054q0 -105 -81.5 -166t-192.5 -61q-141 0 -243 86l80 92q71 -60 163 -60q61 0 101.5 28.5t40.5 80.5q0 57 -51 91q-36 24 -169 24l-1 118q84 0 114 4t56 23q37 27 37 75q0 47 -36.5 72.5t-91.5 25.5q-90 0 -163 -62l-76 96q106 84 239 84q109 0 184.5 -60
t75.5 -156q0 -101 -86 -159q100 -63 100 -176z" />
    <glyph glyph-name="acute" unicode="&#xb4;" horiz-adv-x="563" 
d="M443 1496l-165 -274h-158l154 274h169z" />
    <glyph glyph-name="mu" unicode="&#xb5;" horiz-adv-x="1070" 
d="M160 1082h150v-586q0 -85 2 -123.5t13.5 -85t35.5 -79.5q65 -90 194 -90q133 0 197 90q23 32 34 78.5t12.5 85.5t1.5 124v586h150v-586q0 -93 -2.5 -139.5t-18 -110t-48.5 -112.5q-46 -69 -125.5 -109.5t-180.5 -40.5q-160 0 -265 128v-526h-150v1496z" />
    <glyph glyph-name="paragraph" unicode="&#xb6;" horiz-adv-x="1136" 
d="M800 1276h-206v-1276h-156v536q-137 32 -223 132q-105 124 -105 298q0 177 105 298q38 44 86.5 74t90 45t101 23t92.5 9t93 1h278v-1416h-156v1276z" />
    <glyph glyph-name="periodcentered" unicode="&#xb7;" horiz-adv-x="500" 
d="M270 651q49 0 79.5 -30.5t30.5 -79.5t-30.5 -79.5t-79.5 -30.5t-79.5 30.5t-30.5 79.5t30.5 79.5t79.5 30.5z" />
    <glyph glyph-name="cedilla" unicode="&#xb8;" horiz-adv-x="587" 
d="M194 -306q33 0 51.5 22.5t18.5 55.5q0 64 -75 90l39 138h124l-28 -97q34 -17 57 -50.5t23 -81.5q0 -90 -58 -145.5t-148 -55.5q-37 0 -89 14l38 119q23 -9 47 -9z" />
    <glyph glyph-name="uni00B9" unicode="&#xb9;" horiz-adv-x="538" 
d="M418 839h-132v600l-110 -58l-56 108l199 104h99v-754z" />
    <glyph glyph-name="ordmasculine" unicode="&#xba;" horiz-adv-x="844" 
d="M422 1314q-88 0 -131 -60q-26 -36 -32.5 -83.5t-6.5 -127.5q0 -54 1.5 -83.5t10.5 -66t27 -61.5q43 -60 131 -60t131 60q26 36 32.5 83.5t6.5 127.5q0 54 -1.5 83.5t-10.5 66t-27 61.5q-43 60 -131 60zM422 1432q135 0 217 -84q52 -53 68.5 -123t16.5 -182t-16.5 -182
t-68.5 -123q-82 -84 -217 -84t-217 84q-52 53 -68.5 123t-16.5 182t16.5 182t68.5 123q82 84 217 84z" />
    <glyph glyph-name="guillemotright" unicode="&#xbb;" horiz-adv-x="942" 
d="M218 139l-118 72l210 328l-210 328l118 72l244 -400zM550 123l-118 72l218 344l-218 344l118 72l252 -416z" />
    <glyph glyph-name="onequarter" unicode="&#xbc;" horiz-adv-x="1367" 
d="M1008 1360l108 -68l-768 -1216l-108 68zM1251 283v-118h-64v-165h-132v165h-357v83l260 506h140l-242 -471h199v164h132v-164h64zM428 662h-132v600l-110 -58l-56 108l199 104h99v-754z" />
    <glyph glyph-name="onehalf" unicode="&#xbd;" horiz-adv-x="1517" 
d="M1007 1360l108 -68l-768 -1216l-108 68zM1109 766q111 0 188 -61.5t77 -159.5q0 -19 -2.5 -35.5t-9 -33l-11 -27t-17 -27l-17.5 -23t-21 -25t-20 -23.5l-199 -233h317v-118h-506v96l286 330q49 56 58.5 76t9.5 43q0 50 -37.5 76.5t-95.5 26.5q-79 0 -145 -55l-76 96
q97 77 221 77zM428 663h-132v600l-110 -58l-56 108l199 104h99v-754z" />
    <glyph glyph-name="threequarters" unicode="&#xbe;" horiz-adv-x="1532" 
d="M1175 1360l108 -68l-768 -1216l-108 68zM1416 283v-118h-64v-165h-132v165h-357v83l260 506h140l-242 -471h199v164h132v-164h64zM660 877q0 -105 -81.5 -166t-192.5 -61q-141 0 -243 86l80 92q71 -60 163 -60q61 0 101.5 28.5t40.5 80.5q0 57 -51 91q-36 24 -169 24
l-1 118q84 0 114 4t56 23q37 27 37 75q0 47 -36.5 72.5t-91.5 25.5q-90 0 -163 -62l-76 96q106 84 239 84q109 0 184.5 -60t75.5 -156q0 -101 -86 -159q100 -63 100 -176z" />
    <glyph glyph-name="questiondown" unicode="&#xbf;" horiz-adv-x="726" 
d="M455 798q-49 0 -79.5 30.5t-30.5 79.5t30.5 79.5t79.5 30.5t79.5 -30.5t30.5 -79.5t-30.5 -79.5t-79.5 -30.5zM698 -191l98 -100q-146 -139 -341 -139q-173 0 -284 108t-111 272q0 120 74 221q28 38 110 102t102 99q25 43 34 82t9 101l1 60h130q1 -35 1 -59
q0 -86 -13 -143.5t-53 -115.5q-19 -28 -46.5 -54.5t-65.5 -58t-53 -45.5q-80 -74 -80 -188q0 -109 66.5 -178t178.5 -69q134 0 243 105z" />
    <glyph glyph-name="Agrave" unicode="&#xc0;" horiz-adv-x="1190" 
d="M381 1830h169l154 -274h-158zM830 482l-235 723l-235 -723h470zM520 1416h150l480 -1416h-163l-111 342h-562l-111 -342h-163z" />
    <glyph glyph-name="Aacute" unicode="&#xc1;" horiz-adv-x="1190" 
d="M807 1830l-165 -274h-158l154 274h169zM830 482l-235 723l-235 -723h470zM520 1416h150l480 -1416h-163l-111 342h-562l-111 -342h-163z" />
    <glyph glyph-name="Acircumflex" unicode="&#xc2;" horiz-adv-x="1190" 
d="M735 1556l-140 138l-140 -138h-171l258 274h106l258 -274h-171zM830 482l-235 723l-235 -723h470zM520 1416h150l480 -1416h-163l-111 342h-562l-111 -342h-163z" />
    <glyph glyph-name="Atilde" unicode="&#xc3;" horiz-adv-x="1190" 
d="M691 1680q48 0 89 70l115 -71q-31 -54 -83.5 -88.5t-120.5 -34.5q-44 0 -81 15t-64 30t-47 15q-48 0 -89 -70l-115 71q31 54 83.5 88.5t120.5 34.5q44 0 81 -15t64 -30t47 -15zM830 482l-235 723l-235 -723h470zM520 1416h150l480 -1416h-163l-111 342h-562l-111 -342
h-163z" />
    <glyph glyph-name="Adieresis" unicode="&#xc4;" horiz-adv-x="1190" 
d="M786 1769q41 0 67.5 -26.5t26.5 -67.5t-26.5 -67.5t-67.5 -26.5t-67.5 26.5t-26.5 67.5t26.5 67.5t67.5 26.5zM404 1769q41 0 67.5 -26.5t26.5 -67.5t-26.5 -67.5t-67.5 -26.5t-67.5 26.5t-26.5 67.5t26.5 67.5t67.5 26.5zM830 482l-235 723l-235 -723h470zM520 1416h150
l480 -1416h-163l-111 342h-562l-111 -342h-163z" />
    <glyph glyph-name="Aring" unicode="&#xc5;" horiz-adv-x="1190" 
d="M595 1716q92 0 150.5 -58.5t58.5 -144.5q0 -58 -28.5 -106t-77.5 -73l452 -1334h-163l-111 342h-562l-111 -342h-163l452 1334q-49 25 -77.5 73t-28.5 106q0 86 58.5 144.5t150.5 58.5zM595 1610q-41 0 -66 -25t-25 -72t25 -72t66 -25t66 25t25 72t-25 72t-66 25z
M830 482l-235 723l-235 -723h470z" />
    <glyph glyph-name="AE" unicode="&#xc6;" horiz-adv-x="1609" 
d="M809 1269l-378 -787h378v787zM30 0l690 1416h749v-140h-504v-484h434v-140h-434v-512h504v-140h-660v342h-445l-164 -342h-170z" />
    <glyph glyph-name="Ccedilla" unicode="&#xc7;" horiz-adv-x="1114" 
d="M522 -306q33 0 51.5 22.5t18.5 55.5q0 64 -75 90l35 123q-130 14 -222 81t-139 172q-27 60 -41.5 146.5t-17 153t-2.5 170.5q0 160 11.5 273t49.5 197q55 120 164.5 188.5t262.5 68.5q202 0 374 -121l-80 -120q-142 101 -294 101q-208 0 -282 -170q-32 -73 -41 -173
t-9 -244t9 -244t41 -173q74 -170 282 -170q184 0 324 119l88 -116q-157 -124 -355 -141l-23 -80q34 -17 57 -50.5t23 -81.5q0 -90 -58 -145.5t-148 -55.5q-37 0 -89 14l38 119q23 -9 47 -9z" />
    <glyph glyph-name="Egrave" unicode="&#xc8;" 
d="M363 1830h169l154 -274h-158zM180 1416h780v-140h-624v-484h534v-140h-534v-512h624v-140h-780v1416z" />
    <glyph glyph-name="Eacute" unicode="&#xc9;" 
d="M789 1830l-165 -274h-158l154 274h169zM180 1416h780v-140h-624v-484h534v-140h-534v-512h624v-140h-780v1416z" />
    <glyph glyph-name="Ecircumflex" unicode="&#xca;" 
d="M717 1556l-140 138l-140 -138h-171l258 274h106l258 -274h-171zM180 1416h780v-140h-624v-484h534v-140h-534v-512h624v-140h-780v1416z" />
    <glyph glyph-name="Edieresis" unicode="&#xcb;" 
d="M768 1769q41 0 67.5 -26.5t26.5 -67.5t-26.5 -67.5t-67.5 -26.5t-67.5 26.5t-26.5 67.5t26.5 67.5t67.5 26.5zM386 1769q41 0 67.5 -26.5t26.5 -67.5t-26.5 -67.5t-67.5 -26.5t-67.5 26.5t-26.5 67.5t26.5 67.5t67.5 26.5zM180 1416h780v-140h-624v-484h534v-140h-534
v-512h624v-140h-780v1416z" />
    <glyph glyph-name="Igrave" unicode="&#xcc;" horiz-adv-x="516" 
d="M44 1830h169l154 -274h-158zM336 1416v-1416h-156v1416h156z" />
    <glyph glyph-name="Iacute" unicode="&#xcd;" horiz-adv-x="516" 
d="M470 1830l-165 -274h-158l154 274h169zM336 1416v-1416h-156v1416h156z" />
    <glyph glyph-name="Icircumflex" unicode="&#xce;" horiz-adv-x="516" 
d="M398 1556l-140 138l-140 -138h-171l258 274h106l258 -274h-171zM336 1416v-1416h-156v1416h156z" />
    <glyph glyph-name="Idieresis" unicode="&#xcf;" horiz-adv-x="516" 
d="M449 1769q41 0 67.5 -26.5t26.5 -67.5t-26.5 -67.5t-67.5 -26.5t-67.5 26.5t-26.5 67.5t26.5 67.5t67.5 26.5zM67 1769q41 0 67.5 -26.5t26.5 -67.5t-26.5 -67.5t-67.5 -26.5t-67.5 26.5t-26.5 67.5t26.5 67.5t67.5 26.5zM336 1416v-1416h-156v1416h156z" />
    <glyph glyph-name="Eth" unicode="&#xd0;" horiz-adv-x="1277" 
d="M80 652v140h160v624h359q150 0 229 -23q92 -27 157.5 -90.5t102.5 -146.5q27 -62 41 -148.5t16 -143.5t2 -156t-2 -156t-16 -143.5t-41 -148.5q-37 -83 -102.5 -146.5t-157.5 -90.5q-79 -23 -229 -23h-359v652h-160zM396 792h240v-140h-240v-512h203q51 0 80.5 1t73 9.5
t71.5 24.5q35 20 62 50t44.5 59.5t29.5 75t18 79t9 89.5t3.5 87.5t0.5 92.5t-0.5 92.5t-3.5 87.5t-9 89.5t-18 79t-29.5 75t-44.5 59.5t-62 50q-28 16 -71.5 24.5t-73 9.5t-80.5 1h-203v-484z" />
    <glyph glyph-name="Ntilde" unicode="&#xd1;" horiz-adv-x="1294" 
d="M743 1680q48 0 89 70l115 -71q-31 -54 -83.5 -88.5t-120.5 -34.5q-44 0 -81 15t-64 30t-47 15q-48 0 -89 -70l-115 71q31 54 83.5 88.5t120.5 34.5q44 0 81 -15t64 -30t47 -15zM958 1416h156v-1416h-157l-621 1136v-1136h-156v1416h157l621 -1136v1136z" />
    <glyph glyph-name="Ograve" unicode="&#xd2;" horiz-adv-x="1256" 
d="M414 1830h169l154 -274h-158zM628 1435q156 0 267 -69t165 -186q31 -66 46.5 -158t17.5 -152t2 -162t-2 -162t-17.5 -152t-46.5 -158q-54 -117 -165 -186t-267 -69t-267 69t-165 186q-31 66 -46.5 158t-17.5 152t-2 162t2 162t17.5 152t46.5 158q54 117 165 186t267 69z
M628 1295q-106 0 -179 -44.5t-109 -123.5q-25 -53 -37.5 -132.5t-14.5 -136t-2 -150.5t2 -150.5t14.5 -136t37.5 -132.5q36 -79 109 -123.5t179 -44.5t179 44.5t109 123.5q25 53 37.5 132.5t14.5 136t2 150.5t-2 150.5t-14.5 136t-37.5 132.5q-36 79 -109 123.5t-179 44.5z
" />
    <glyph glyph-name="Oacute" unicode="&#xd3;" horiz-adv-x="1256" 
d="M840 1830l-165 -274h-158l154 274h169zM628 1435q156 0 267 -69t165 -186q31 -66 46.5 -158t17.5 -152t2 -162t-2 -162t-17.5 -152t-46.5 -158q-54 -117 -165 -186t-267 -69t-267 69t-165 186q-31 66 -46.5 158t-17.5 152t-2 162t2 162t17.5 152t46.5 158q54 117 165 186
t267 69zM628 1295q-106 0 -179 -44.5t-109 -123.5q-25 -53 -37.5 -132.5t-14.5 -136t-2 -150.5t2 -150.5t14.5 -136t37.5 -132.5q36 -79 109 -123.5t179 -44.5t179 44.5t109 123.5q25 53 37.5 132.5t14.5 136t2 150.5t-2 150.5t-14.5 136t-37.5 132.5q-36 79 -109 123.5
t-179 44.5z" />
    <glyph glyph-name="Ocircumflex" unicode="&#xd4;" horiz-adv-x="1256" 
d="M768 1556l-140 138l-140 -138h-171l258 274h106l258 -274h-171zM628 1435q156 0 267 -69t165 -186q31 -66 46.5 -158t17.5 -152t2 -162t-2 -162t-17.5 -152t-46.5 -158q-54 -117 -165 -186t-267 -69t-267 69t-165 186q-31 66 -46.5 158t-17.5 152t-2 162t2 162t17.5 152
t46.5 158q54 117 165 186t267 69zM628 1295q-106 0 -179 -44.5t-109 -123.5q-25 -53 -37.5 -132.5t-14.5 -136t-2 -150.5t2 -150.5t14.5 -136t37.5 -132.5q36 -79 109 -123.5t179 -44.5t179 44.5t109 123.5q25 53 37.5 132.5t14.5 136t2 150.5t-2 150.5t-14.5 136
t-37.5 132.5q-36 79 -109 123.5t-179 44.5z" />
    <glyph glyph-name="Otilde" unicode="&#xd5;" horiz-adv-x="1256" 
d="M724 1680q48 0 89 70l115 -71q-31 -54 -83.5 -88.5t-120.5 -34.5q-44 0 -81 15t-64 30t-47 15q-48 0 -89 -70l-115 71q31 54 83.5 88.5t120.5 34.5q44 0 81 -15t64 -30t47 -15zM628 1435q156 0 267 -69t165 -186q31 -66 46.5 -158t17.5 -152t2 -162t-2 -162t-17.5 -152
t-46.5 -158q-54 -117 -165 -186t-267 -69t-267 69t-165 186q-31 66 -46.5 158t-17.5 152t-2 162t2 162t17.5 152t46.5 158q54 117 165 186t267 69zM628 1295q-106 0 -179 -44.5t-109 -123.5q-25 -53 -37.5 -132.5t-14.5 -136t-2 -150.5t2 -150.5t14.5 -136t37.5 -132.5
q36 -79 109 -123.5t179 -44.5t179 44.5t109 123.5q25 53 37.5 132.5t14.5 136t2 150.5t-2 150.5t-14.5 136t-37.5 132.5q-36 79 -109 123.5t-179 44.5z" />
    <glyph glyph-name="Odieresis" unicode="&#xd6;" horiz-adv-x="1256" 
d="M819 1769q41 0 67.5 -26.5t26.5 -67.5t-26.5 -67.5t-67.5 -26.5t-67.5 26.5t-26.5 67.5t26.5 67.5t67.5 26.5zM437 1769q41 0 67.5 -26.5t26.5 -67.5t-26.5 -67.5t-67.5 -26.5t-67.5 26.5t-26.5 67.5t26.5 67.5t67.5 26.5zM628 1435q156 0 267 -69t165 -186
q31 -66 46.5 -158t17.5 -152t2 -162t-2 -162t-17.5 -152t-46.5 -158q-54 -117 -165 -186t-267 -69t-267 69t-165 186q-31 66 -46.5 158t-17.5 152t-2 162t2 162t17.5 152t46.5 158q54 117 165 186t267 69zM628 1295q-106 0 -179 -44.5t-109 -123.5q-25 -53 -37.5 -132.5
t-14.5 -136t-2 -150.5t2 -150.5t14.5 -136t37.5 -132.5q36 -79 109 -123.5t179 -44.5t179 44.5t109 123.5q25 53 37.5 132.5t14.5 136t2 150.5t-2 150.5t-14.5 136t-37.5 132.5q-36 79 -109 123.5t-179 44.5z" />
    <glyph glyph-name="multiply" unicode="&#xd7;" horiz-adv-x="1010" 
d="M860 279l-93 -93l-262 262l-262 -262l-93 93l262 262l-262 262l93 93l262 -262l262 262l93 -93l-262 -262z" />
    <glyph glyph-name="Oslash" unicode="&#xd8;" horiz-adv-x="1258" 
d="M241 -64l-112 68l102 169q-35 51 -57 115.5t-30.5 143t-11 134.5t-2.5 142q0 102 2 162t17.5 152t46.5 158q54 117 165 186t267 69q181 0 305 -95l84 140l112 -68l-103 -171q35 -49 57 -113t30.5 -144t10.5 -134.5t2 -141.5q0 -102 -2 -162t-17.5 -152t-46.5 -158
q-54 -117 -165 -186t-267 -69q-181 0 -304 94zM628 1295q-106 0 -179 -44.5t-109 -123.5q-25 -53 -37.5 -132.5t-14.5 -136t-2 -150.5q0 -83 1.5 -134t10.5 -122.5t27 -123.5l531 884q-85 83 -228 83zM932 1086l-531 -883q85 -82 227 -82q106 0 179 44.5t109 123.5
q25 53 37.5 132.5t14.5 136t2 150.5q0 82 -1.5 133t-10.5 122t-26 123z" />
    <glyph glyph-name="Ugrave" unicode="&#xd9;" horiz-adv-x="1236" 
d="M404 1830h169l154 -274h-158zM160 1416h156v-901q0 -146 20 -205q34 -99 113.5 -144t168.5 -45t168.5 45t113.5 144q20 59 20 205v901h156v-901q0 -58 -1 -88.5t-7 -75t-18 -81.5q-33 -100 -101.5 -166.5t-151 -94.5t-179.5 -28t-179.5 28t-151 94.5t-101.5 166.5
q-12 37 -18 81.5t-7 75t-1 88.5v901z" />
    <glyph glyph-name="Uacute" unicode="&#xda;" horiz-adv-x="1236" 
d="M830 1830l-165 -274h-158l154 274h169zM160 1416h156v-901q0 -146 20 -205q34 -99 113.5 -144t168.5 -45t168.5 45t113.5 144q20 59 20 205v901h156v-901q0 -58 -1 -88.5t-7 -75t-18 -81.5q-33 -100 -101.5 -166.5t-151 -94.5t-179.5 -28t-179.5 28t-151 94.5
t-101.5 166.5q-12 37 -18 81.5t-7 75t-1 88.5v901z" />
    <glyph glyph-name="Ucircumflex" unicode="&#xdb;" horiz-adv-x="1236" 
d="M758 1556l-140 138l-140 -138h-171l258 274h106l258 -274h-171zM160 1416h156v-901q0 -146 20 -205q34 -99 113.5 -144t168.5 -45t168.5 45t113.5 144q20 59 20 205v901h156v-901q0 -58 -1 -88.5t-7 -75t-18 -81.5q-33 -100 -101.5 -166.5t-151 -94.5t-179.5 -28
t-179.5 28t-151 94.5t-101.5 166.5q-12 37 -18 81.5t-7 75t-1 88.5v901z" />
    <glyph glyph-name="Udieresis" unicode="&#xdc;" horiz-adv-x="1236" 
d="M809 1769q41 0 67.5 -26.5t26.5 -67.5t-26.5 -67.5t-67.5 -26.5t-67.5 26.5t-26.5 67.5t26.5 67.5t67.5 26.5zM427 1769q41 0 67.5 -26.5t26.5 -67.5t-26.5 -67.5t-67.5 -26.5t-67.5 26.5t-26.5 67.5t26.5 67.5t67.5 26.5zM160 1416h156v-901q0 -146 20 -205
q34 -99 113.5 -144t168.5 -45t168.5 45t113.5 144q20 59 20 205v901h156v-901q0 -58 -1 -88.5t-7 -75t-18 -81.5q-33 -100 -101.5 -166.5t-151 -94.5t-179.5 -28t-179.5 28t-151 94.5t-101.5 166.5q-12 37 -18 81.5t-7 75t-1 88.5v901z" />
    <glyph glyph-name="Yacute" unicode="&#xdd;" horiz-adv-x="1082" 
d="M753 1830l-165 -274h-158l154 274h169zM40 1416h169l332 -744l332 744h169l-423 -910v-506h-156v506z" />
    <glyph glyph-name="Thorn" unicode="&#xde;" horiz-adv-x="1146" 
d="M180 1416h156v-210h146q145 0 213 -16q155 -37 243 -157t88 -277t-88 -277t-243 -157q-68 -16 -213 -16h-146v-306h-156v1416zM336 1066v-620h146q55 0 81.5 0.5t61.5 5.5t62 15q90 33 136.5 113.5t46.5 175.5t-46.5 175.5t-136.5 113.5q-27 10 -62 15t-61.5 5.5
t-81.5 0.5h-146z" />
    <glyph glyph-name="germandbls" unicode="&#xdf;" horiz-adv-x="1130" 
d="M515 1462q155 0 255 -99t100 -248q0 -159 -106 -247q130 -51 188 -156t58 -270q0 -192 -84 -306q-51 -70 -137 -111t-194 -41q-57 0 -126 12l22 132q53 -10 104 -10q137 0 205 92q60 82 60 232q0 184 -81 261q-36 34 -82.5 50t-85 18.5t-121.5 2.5v134q40 0 61 1.5t51 12
t55 32.5q29 25 46 67.5t17 93.5q0 95 -56.5 154t-148.5 59q-97 0 -156 -68q-23 -26 -34.5 -64t-13 -67t-1.5 -87v-1042h-150v1042q0 70 3 108.5t21.5 92.5t55.5 98q46 55 118 88t157 33z" />
    <glyph glyph-name="agrave" unicode="&#xe0;" horiz-adv-x="1020" 
d="M271 1496h169l154 -274h-158zM250 321q0 -85 56.5 -144t158.5 -59q82 0 146 40t90 121q9 29 13.5 67t5 71.5t0.5 109.5h-145q-144 0 -190 -14q-65 -20 -100 -71.5t-35 -120.5zM870 651v-651h-150v115q-114 -131 -275 -131q-152 0 -248.5 96.5t-96.5 240.5
q0 108 61.5 191.5t173.5 117.5q33 10 73 15t70 5.5t91 0.5h151q0 80 -2.5 114.5t-13.5 63.5q-25 67 -84 101t-135 34q-111 0 -263 -73l-57 124q182 83 320 83q133 0 233 -64t136 -183q16 -53 16 -200z" />
    <glyph glyph-name="aacute" unicode="&#xe1;" horiz-adv-x="1020" 
d="M697 1496l-165 -274h-158l154 274h169zM250 321q0 -85 56.5 -144t158.5 -59q82 0 146 40t90 121q9 29 13.5 67t5 71.5t0.5 109.5h-145q-144 0 -190 -14q-65 -20 -100 -71.5t-35 -120.5zM870 651v-651h-150v115q-114 -131 -275 -131q-152 0 -248.5 96.5t-96.5 240.5
q0 108 61.5 191.5t173.5 117.5q33 10 73 15t70 5.5t91 0.5h151q0 80 -2.5 114.5t-13.5 63.5q-25 67 -84 101t-135 34q-111 0 -263 -73l-57 124q182 83 320 83q133 0 233 -64t136 -183q16 -53 16 -200z" />
    <glyph glyph-name="acircumflex" unicode="&#xe2;" horiz-adv-x="1020" 
d="M625 1222l-140 138l-140 -138h-171l258 274h106l258 -274h-171zM250 321q0 -85 56.5 -144t158.5 -59q82 0 146 40t90 121q9 29 13.5 67t5 71.5t0.5 109.5h-145q-144 0 -190 -14q-65 -20 -100 -71.5t-35 -120.5zM870 651v-651h-150v115q-114 -131 -275 -131
q-152 0 -248.5 96.5t-96.5 240.5q0 108 61.5 191.5t173.5 117.5q33 10 73 15t70 5.5t91 0.5h151q0 80 -2.5 114.5t-13.5 63.5q-25 67 -84 101t-135 34q-111 0 -263 -73l-57 124q182 83 320 83q133 0 233 -64t136 -183q16 -53 16 -200z" />
    <glyph glyph-name="atilde" unicode="&#xe3;" horiz-adv-x="1020" 
d="M581 1346q48 0 89 70l115 -71q-31 -54 -83.5 -88.5t-120.5 -34.5q-44 0 -81 15t-64 30t-47 15q-48 0 -89 -70l-115 71q31 54 83.5 88.5t120.5 34.5q44 0 81 -15t64 -30t47 -15zM250 321q0 -85 56.5 -144t158.5 -59q82 0 146 40t90 121q9 29 13.5 67t5 71.5t0.5 109.5
h-145q-144 0 -190 -14q-65 -20 -100 -71.5t-35 -120.5zM870 651v-651h-150v115q-114 -131 -275 -131q-152 0 -248.5 96.5t-96.5 240.5q0 108 61.5 191.5t173.5 117.5q33 10 73 15t70 5.5t91 0.5h151q0 80 -2.5 114.5t-13.5 63.5q-25 67 -84 101t-135 34q-111 0 -263 -73
l-57 124q182 83 320 83q133 0 233 -64t136 -183q16 -53 16 -200z" />
    <glyph glyph-name="adieresis" unicode="&#xe4;" horiz-adv-x="1020" 
d="M676 1435q41 0 67.5 -26.5t26.5 -67.5t-26.5 -67.5t-67.5 -26.5t-67.5 26.5t-26.5 67.5t26.5 67.5t67.5 26.5zM294 1435q41 0 67.5 -26.5t26.5 -67.5t-26.5 -67.5t-67.5 -26.5t-67.5 26.5t-26.5 67.5t26.5 67.5t67.5 26.5zM250 321q0 -85 56.5 -144t158.5 -59
q82 0 146 40t90 121q9 29 13.5 67t5 71.5t0.5 109.5h-145q-144 0 -190 -14q-65 -20 -100 -71.5t-35 -120.5zM870 651v-651h-150v115q-114 -131 -275 -131q-152 0 -248.5 96.5t-96.5 240.5q0 108 61.5 191.5t173.5 117.5q33 10 73 15t70 5.5t91 0.5h151q0 80 -2.5 114.5
t-13.5 63.5q-25 67 -84 101t-135 34q-111 0 -263 -73l-57 124q182 83 320 83q133 0 233 -64t136 -183q16 -53 16 -200z" />
    <glyph glyph-name="aring" unicode="&#xe5;" horiz-adv-x="1020" 
d="M485 1398q92 0 150.5 -58.5t58.5 -144.5q0 -73 -53 -129q75 -20 132 -77.5t81 -137.5q16 -53 16 -200v-651h-150v115q-114 -131 -275 -131q-152 0 -248.5 96.5t-96.5 240.5q0 108 61.5 191.5t173.5 117.5q33 10 73 15t70 5.5t91 0.5h151q0 80 -2.5 114.5t-13.5 63.5
q-25 67 -84 101t-135 34q-111 0 -263 -73l-57 124l36 15l42.5 17.5t37.5 12.5t44 11q-49 54 -49 124q0 86 58.5 144.5t150.5 58.5zM485 1292q-41 0 -66 -25t-25 -72t25 -72t66 -25t66 25t25 72t-25 72t-66 25zM250 321q0 -85 56.5 -144t158.5 -59q82 0 146 40t90 121
q9 29 13.5 67t5 71.5t0.5 109.5h-145q-144 0 -190 -14q-65 -20 -100 -71.5t-35 -120.5z" />
    <glyph glyph-name="ae" unicode="&#xe6;" horiz-adv-x="1610" 
d="M250 321q0 -100 63 -154q55 -49 142 -49q63 0 113 24t78 65q39 56 49.5 119.5t10.5 200.5h-181q-83 0 -128 -9t-83 -41q-64 -55 -64 -156zM706 651q0 89 -7.5 133t-32.5 84q-28 47 -78.5 71.5t-112.5 24.5q-98 0 -251 -72l-59 123q162 83 310 83q108 0 189.5 -44.5
t121.5 -124.5q42 77 123 123t184 46q108 0 195 -50t135 -128q41 -67 54 -142.5t13 -198.5v-70h-640q0 -104 9.5 -170.5t42.5 -117.5q64 -103 213 -103q124 0 277 73l59 -123q-178 -84 -336 -84q-115 0 -200.5 45.5t-135.5 129.5q-48 -83 -131.5 -129t-192.5 -46
q-149 0 -248 89q-107 97 -107 248q0 74 28.5 136.5t76.5 104.5q36 32 77 51.5t88.5 27t76.5 9t78 1.5h181zM851 633h489q0 153 -54 231q-69 100 -193 100t-190 -101q-50 -76 -52 -230z" />
    <glyph glyph-name="ccedilla" unicode="&#xe7;" horiz-adv-x="964" 
d="M439 -306q33 0 51.5 22.5t18.5 55.5q0 64 -75 90l36 127q-92 13 -164 61t-112 117q-32 56 -48 123.5t-18.5 117t-2.5 139.5q0 78 2.5 125.5t18.5 118.5t48 124q49 82 137.5 132.5t203.5 50.5q165 0 327 -101l-71 -118q-131 85 -256 85q-131 0 -204 -105
q-26 -38 -39 -99.5t-15 -102.5t-2 -110q0 -78 1.5 -119.5t13.5 -99.5t36 -98q35 -58 91 -85t118 -27q68 0 142.5 26t130.5 64l76 -114q-59 -40 -136 -69t-155 -38l-24 -84q34 -17 57 -50.5t23 -81.5q0 -90 -58 -145.5t-148 -55.5q-37 0 -89 14l38 119q23 -9 47 -9z" />
    <glyph glyph-name="egrave" unicode="&#xe8;" horiz-adv-x="1055" 
d="M316 1496h169l154 -274h-158zM550 -16q-116 0 -205 43.5t-141 119.5q-37 53 -55.5 126t-21 123.5t-2.5 144.5q0 77 1.5 116.5t10 96t25.5 102.5q42 110 140.5 176t227.5 66q127 0 226.5 -66.5t142.5 -176.5q25 -63 30.5 -125.5t5.5 -187.5v-33h-660q0 -65 2 -104.5
t15.5 -95t39.5 -92.5q69 -99 218 -99q133 0 286 73l57 -124q-177 -83 -343 -83zM785 633q-2 114 -29 181q-27 69 -87.5 109.5t-138.5 40.5q-81 0 -140 -40.5t-85 -108.5q-27 -70 -29 -182h509z" />
    <glyph glyph-name="eacute" unicode="&#xe9;" horiz-adv-x="1055" 
d="M742 1496l-165 -274h-158l154 274h169zM550 -16q-116 0 -205 43.5t-141 119.5q-37 53 -55.5 126t-21 123.5t-2.5 144.5q0 77 1.5 116.5t10 96t25.5 102.5q42 110 140.5 176t227.5 66q127 0 226.5 -66.5t142.5 -176.5q25 -63 30.5 -125.5t5.5 -187.5v-33h-660
q0 -65 2 -104.5t15.5 -95t39.5 -92.5q69 -99 218 -99q133 0 286 73l57 -124q-177 -83 -343 -83zM785 633q-2 114 -29 181q-27 69 -87.5 109.5t-138.5 40.5q-81 0 -140 -40.5t-85 -108.5q-27 -70 -29 -182h509z" />
    <glyph glyph-name="ecircumflex" unicode="&#xea;" horiz-adv-x="1055" 
d="M670 1222l-140 138l-140 -138h-171l258 274h106l258 -274h-171zM550 -16q-116 0 -205 43.5t-141 119.5q-37 53 -55.5 126t-21 123.5t-2.5 144.5q0 77 1.5 116.5t10 96t25.5 102.5q42 110 140.5 176t227.5 66q127 0 226.5 -66.5t142.5 -176.5q25 -63 30.5 -125.5
t5.5 -187.5v-33h-660q0 -65 2 -104.5t15.5 -95t39.5 -92.5q69 -99 218 -99q133 0 286 73l57 -124q-177 -83 -343 -83zM785 633q-2 114 -29 181q-27 69 -87.5 109.5t-138.5 40.5q-81 0 -140 -40.5t-85 -108.5q-27 -70 -29 -182h509z" />
    <glyph glyph-name="edieresis" unicode="&#xeb;" horiz-adv-x="1055" 
d="M721 1435q41 0 67.5 -26.5t26.5 -67.5t-26.5 -67.5t-67.5 -26.5t-67.5 26.5t-26.5 67.5t26.5 67.5t67.5 26.5zM339 1435q41 0 67.5 -26.5t26.5 -67.5t-26.5 -67.5t-67.5 -26.5t-67.5 26.5t-26.5 67.5t26.5 67.5t67.5 26.5zM550 -16q-116 0 -205 43.5t-141 119.5
q-37 53 -55.5 126t-21 123.5t-2.5 144.5q0 77 1.5 116.5t10 96t25.5 102.5q42 110 140.5 176t227.5 66q127 0 226.5 -66.5t142.5 -176.5q25 -63 30.5 -125.5t5.5 -187.5v-33h-660q0 -65 2 -104.5t15.5 -95t39.5 -92.5q69 -99 218 -99q133 0 286 73l57 -124
q-177 -83 -343 -83zM785 633q-2 114 -29 181q-27 69 -87.5 109.5t-138.5 40.5q-81 0 -140 -40.5t-85 -108.5q-27 -70 -29 -182h509z" />
    <glyph glyph-name="igrave" unicode="&#xec;" horiz-adv-x="470" 
d="M21 1496h169l154 -274h-158zM310 0h-150v1082h150v-1082z" />
    <glyph glyph-name="iacute" unicode="&#xed;" horiz-adv-x="470" 
d="M447 1496l-165 -274h-158l154 274h169zM310 0h-150v1082h150v-1082z" />
    <glyph glyph-name="icircumflex" unicode="&#xee;" horiz-adv-x="470" 
d="M375 1222l-140 138l-140 -138h-171l258 274h106l258 -274h-171zM310 0h-150v1082h150v-1082z" />
    <glyph glyph-name="idieresis" unicode="&#xef;" horiz-adv-x="470" 
d="M426 1435q41 0 67.5 -26.5t26.5 -67.5t-26.5 -67.5t-67.5 -26.5t-67.5 26.5t-26.5 67.5t26.5 67.5t67.5 26.5zM44 1435q41 0 67.5 -26.5t26.5 -67.5t-26.5 -67.5t-67.5 -26.5t-67.5 26.5t-26.5 67.5t26.5 67.5t67.5 26.5zM310 0h-150v1082h150v-1082z" />
    <glyph glyph-name="eth" unicode="&#xf0;" horiz-adv-x="1115" 
d="M550 964q-130 0 -199 -79q-27 -31 -43.5 -69.5t-23 -90t-8 -86t-1.5 -98.5t1.5 -98.5t8 -86t23 -90t43.5 -69.5q69 -79 199 -79q134 0 201 79q35 41 52 104t19.5 109t2.5 131q0 64 -1.5 98.5t-8 86t-23 90t-43.5 69.5q-69 79 -199 79zM454 1218l-40 80l160 80
q-72 56 -203 114l45 108q147 -67 206 -105q41 -27 75 -56l194 97l40 -80l-167 -83q89 -101 139 -233q34 -89 50.5 -203.5t19 -188.5t2.5 -207q0 -72 -2.5 -115t-11.5 -105.5t-32.5 -114t-60.5 -96.5q-47 -58 -123.5 -92t-174.5 -34q-222 0 -335 126q-39 44 -63 95t-33.5 115
t-11.5 105.5t-2 115.5q0 73 2.5 118.5t12 106t32 111t59.5 95.5q47 58 122 92t167 34q177 0 285 -121q-40 207 -160 336z" />
    <glyph glyph-name="ntilde" unicode="&#xf1;" 
d="M671 1346q48 0 89 70l115 -71q-31 -54 -83.5 -88.5t-120.5 -34.5q-44 0 -81 15t-64 30t-47 15q-48 0 -89 -70l-115 71q31 54 83.5 88.5t120.5 34.5q44 0 81 -15t64 -30t47 -15zM585 1098q111 0 201.5 -58.5t132.5 -163.5q15 -36 22 -82t8 -77.5t1 -91.5v-625h-150v615
q0 95 -4 137.5t-22 81.5q-28 62 -86.5 96t-132.5 34t-132.5 -34t-86.5 -96q-18 -39 -22 -81.5t-4 -137.5v-615h-150v1082h150v-114q118 130 275 130z" />
    <glyph glyph-name="ograve" unicode="&#xf2;" 
d="M336 1496h169l154 -274h-158zM550 964q-130 0 -199 -79q-27 -31 -43.5 -69.5t-23 -90t-8 -86t-1.5 -98.5t1.5 -98.5t8 -86t23 -90t43.5 -69.5q69 -79 199 -79t199 79q27 31 43.5 69.5t23 90t8 86t1.5 98.5t-1.5 98.5t-8 86t-23 90t-43.5 69.5q-69 79 -199 79zM550 1098
q99 0 180 -34.5t133 -91.5q40 -44 64.5 -95.5t34 -115t11.5 -105t2 -115.5t-2 -115.5t-11.5 -105t-34 -115t-64.5 -95.5q-52 -57 -133 -91.5t-180 -34.5t-180 34.5t-133 91.5q-40 44 -64.5 95.5t-34 115t-11.5 105t-2 115.5t2 115.5t11.5 105t34 115t64.5 95.5
q52 57 133 91.5t180 34.5z" />
    <glyph glyph-name="oacute" unicode="&#xf3;" 
d="M762 1496l-165 -274h-158l154 274h169zM550 964q-130 0 -199 -79q-27 -31 -43.5 -69.5t-23 -90t-8 -86t-1.5 -98.5t1.5 -98.5t8 -86t23 -90t43.5 -69.5q69 -79 199 -79t199 79q27 31 43.5 69.5t23 90t8 86t1.5 98.5t-1.5 98.5t-8 86t-23 90t-43.5 69.5q-69 79 -199 79z
M550 1098q99 0 180 -34.5t133 -91.5q40 -44 64.5 -95.5t34 -115t11.5 -105t2 -115.5t-2 -115.5t-11.5 -105t-34 -115t-64.5 -95.5q-52 -57 -133 -91.5t-180 -34.5t-180 34.5t-133 91.5q-40 44 -64.5 95.5t-34 115t-11.5 105t-2 115.5t2 115.5t11.5 105t34 115t64.5 95.5
q52 57 133 91.5t180 34.5z" />
    <glyph glyph-name="ocircumflex" unicode="&#xf4;" 
d="M690 1222l-140 138l-140 -138h-171l258 274h106l258 -274h-171zM550 964q-130 0 -199 -79q-27 -31 -43.5 -69.5t-23 -90t-8 -86t-1.5 -98.5t1.5 -98.5t8 -86t23 -90t43.5 -69.5q69 -79 199 -79t199 79q27 31 43.5 69.5t23 90t8 86t1.5 98.5t-1.5 98.5t-8 86t-23 90
t-43.5 69.5q-69 79 -199 79zM550 1098q99 0 180 -34.5t133 -91.5q40 -44 64.5 -95.5t34 -115t11.5 -105t2 -115.5t-2 -115.5t-11.5 -105t-34 -115t-64.5 -95.5q-52 -57 -133 -91.5t-180 -34.5t-180 34.5t-133 91.5q-40 44 -64.5 95.5t-34 115t-11.5 105t-2 115.5t2 115.5
t11.5 105t34 115t64.5 95.5q52 57 133 91.5t180 34.5z" />
    <glyph glyph-name="otilde" unicode="&#xf5;" 
d="M646 1346q48 0 89 70l115 -71q-31 -54 -83.5 -88.5t-120.5 -34.5q-44 0 -81 15t-64 30t-47 15q-48 0 -89 -70l-115 71q31 54 83.5 88.5t120.5 34.5q44 0 81 -15t64 -30t47 -15zM550 964q-130 0 -199 -79q-27 -31 -43.5 -69.5t-23 -90t-8 -86t-1.5 -98.5t1.5 -98.5t8 -86
t23 -90t43.5 -69.5q69 -79 199 -79t199 79q27 31 43.5 69.5t23 90t8 86t1.5 98.5t-1.5 98.5t-8 86t-23 90t-43.5 69.5q-69 79 -199 79zM550 1098q99 0 180 -34.5t133 -91.5q40 -44 64.5 -95.5t34 -115t11.5 -105t2 -115.5t-2 -115.5t-11.5 -105t-34 -115t-64.5 -95.5
q-52 -57 -133 -91.5t-180 -34.5t-180 34.5t-133 91.5q-40 44 -64.5 95.5t-34 115t-11.5 105t-2 115.5t2 115.5t11.5 105t34 115t64.5 95.5q52 57 133 91.5t180 34.5z" />
    <glyph glyph-name="odieresis" unicode="&#xf6;" 
d="M741 1435q41 0 67.5 -26.5t26.5 -67.5t-26.5 -67.5t-67.5 -26.5t-67.5 26.5t-26.5 67.5t26.5 67.5t67.5 26.5zM359 1435q41 0 67.5 -26.5t26.5 -67.5t-26.5 -67.5t-67.5 -26.5t-67.5 26.5t-26.5 67.5t26.5 67.5t67.5 26.5zM550 964q-130 0 -199 -79q-27 -31 -43.5 -69.5
t-23 -90t-8 -86t-1.5 -98.5t1.5 -98.5t8 -86t23 -90t43.5 -69.5q69 -79 199 -79t199 79q27 31 43.5 69.5t23 90t8 86t1.5 98.5t-1.5 98.5t-8 86t-23 90t-43.5 69.5q-69 79 -199 79zM550 1098q99 0 180 -34.5t133 -91.5q40 -44 64.5 -95.5t34 -115t11.5 -105t2 -115.5
t-2 -115.5t-11.5 -105t-34 -115t-64.5 -95.5q-52 -57 -133 -91.5t-180 -34.5t-180 34.5t-133 91.5q-40 44 -64.5 95.5t-34 115t-11.5 105t-2 115.5t2 115.5t11.5 105t34 115t64.5 95.5q52 57 133 91.5t180 34.5z" />
    <glyph glyph-name="divide" unicode="&#xf7;" horiz-adv-x="1140" 
d="M570 324q41 0 67.5 -26.5t26.5 -67.5t-26.5 -67.5t-67.5 -26.5t-67.5 26.5t-26.5 67.5t26.5 67.5t67.5 26.5zM160 608h820v-134h-820v134zM570 946q41 0 67.5 -26.5t26.5 -67.5t-26.5 -67.5t-67.5 -26.5t-67.5 26.5t-26.5 67.5t26.5 67.5t67.5 26.5z" />
    <glyph glyph-name="oslash" unicode="&#xf8;" 
d="M237 -73l-104 66l86 138q-33 43 -54 92t-28.5 109.5t-9.5 99.5t-2 109q0 74 2 115.5t11.5 105t34 115t64.5 95.5q52 57 133 91.5t180 34.5q135 0 237 -63l76 120l104 -66l-86 -138q33 -43 54 -92t28.5 -109.5t9.5 -99.5t2 -109q0 -74 -2 -115.5t-11.5 -105t-34 -115
t-64.5 -95.5q-52 -57 -133 -91.5t-180 -34.5q-135 0 -237 63zM550 964q-130 0 -199 -79q-27 -31 -43.5 -69.5t-23 -90t-8 -86t-1.5 -98.5t1 -98.5t8.5 -85t22.5 -87.5l406 647q-66 47 -163 47zM793 812l-406 -647q66 -47 163 -47q130 0 199 79q27 31 43.5 69.5t23 90t8 86
t1.5 98.5t-1 98.5t-8.5 85t-22.5 87.5z" />
    <glyph glyph-name="ugrave" unicode="&#xf9;" horiz-adv-x="1090" 
d="M331 1496h169l154 -274h-158zM150 1082h150v-625q0 -135 15 -181q25 -77 87 -117.5t143 -40.5t143 40.5t87 117.5q15 46 15 181v625h150v-635q0 -53 -1 -81.5t-7 -70.5t-19 -76q-42 -114 -137.5 -174.5t-230.5 -60.5t-230.5 60.5t-137.5 174.5q-13 34 -19 76t-7 70.5
t-1 81.5v635z" />
    <glyph glyph-name="uacute" unicode="&#xfa;" horiz-adv-x="1090" 
d="M757 1496l-165 -274h-158l154 274h169zM150 1082h150v-625q0 -135 15 -181q25 -77 87 -117.5t143 -40.5t143 40.5t87 117.5q15 46 15 181v625h150v-635q0 -53 -1 -81.5t-7 -70.5t-19 -76q-42 -114 -137.5 -174.5t-230.5 -60.5t-230.5 60.5t-137.5 174.5q-13 34 -19 76
t-7 70.5t-1 81.5v635z" />
    <glyph glyph-name="ucircumflex" unicode="&#xfb;" horiz-adv-x="1090" 
d="M685 1222l-140 138l-140 -138h-171l258 274h106l258 -274h-171zM150 1082h150v-625q0 -135 15 -181q25 -77 87 -117.5t143 -40.5t143 40.5t87 117.5q15 46 15 181v625h150v-635q0 -53 -1 -81.5t-7 -70.5t-19 -76q-42 -114 -137.5 -174.5t-230.5 -60.5t-230.5 60.5
t-137.5 174.5q-13 34 -19 76t-7 70.5t-1 81.5v635z" />
    <glyph glyph-name="udieresis" unicode="&#xfc;" horiz-adv-x="1090" 
d="M736 1435q41 0 67.5 -26.5t26.5 -67.5t-26.5 -67.5t-67.5 -26.5t-67.5 26.5t-26.5 67.5t26.5 67.5t67.5 26.5zM354 1435q41 0 67.5 -26.5t26.5 -67.5t-26.5 -67.5t-67.5 -26.5t-67.5 26.5t-26.5 67.5t26.5 67.5t67.5 26.5zM150 1082h150v-625q0 -135 15 -181
q25 -77 87 -117.5t143 -40.5t143 40.5t87 117.5q15 46 15 181v625h150v-635q0 -53 -1 -81.5t-7 -70.5t-19 -76q-42 -114 -137.5 -174.5t-230.5 -60.5t-230.5 60.5t-137.5 174.5q-13 34 -19 76t-7 70.5t-1 81.5v635z" />
    <glyph glyph-name="yacute" unicode="&#xfd;" horiz-adv-x="987" 
d="M706 1496l-165 -274h-158l154 274h169zM94 -409l33 130q51 -14 95 -14q72 0 120 38q19 15 33.5 37.5t21.5 41t18 52.5l37 122l-392 1084h156l302 -885l256 885h153l-377 -1241q-20 -66 -43.5 -110t-62.5 -78q-90 -80 -222 -80q-56 0 -128 18z" />
    <glyph glyph-name="thorn" unicode="&#xfe;" horiz-adv-x="1115" 
d="M595 1098q102 0 185 -44t130 -116q50 -77 65 -165.5t15 -231.5t-15 -231.5t-65 -165.5q-47 -72 -130 -116t-185 -44q-167 0 -285 131v-529h-150v1910h150v-529q118 131 285 131zM575 964q-134 0 -205 -98q-38 -52 -49 -126t-11 -199t11 -199t49 -126q71 -98 205 -98
t205 98q38 52 49 126t11 199t-11 199t-49 126q-71 98 -205 98z" />
    <glyph glyph-name="ydieresis" unicode="&#xff;" horiz-adv-x="987" 
d="M685 1435q41 0 67.5 -26.5t26.5 -67.5t-26.5 -67.5t-67.5 -26.5t-67.5 26.5t-26.5 67.5t26.5 67.5t67.5 26.5zM303 1435q41 0 67.5 -26.5t26.5 -67.5t-26.5 -67.5t-67.5 -26.5t-67.5 26.5t-26.5 67.5t26.5 67.5t67.5 26.5zM94 -409l33 130q51 -14 95 -14q72 0 120 38
q19 15 33.5 37.5t21.5 41t18 52.5l37 122l-392 1084h156l302 -885l256 885h153l-377 -1241q-20 -66 -43.5 -110t-62.5 -78q-90 -80 -222 -80q-56 0 -128 18z" />
    <glyph glyph-name="Amacron" unicode="&#x100;" horiz-adv-x="1190" 
d="M310 1720h570v-134h-570v134zM830 482l-235 723l-235 -723h470zM520 1416h150l480 -1416h-163l-111 342h-562l-111 -342h-163z" />
    <glyph glyph-name="amacron" unicode="&#x101;" horiz-adv-x="1020" 
d="M200 1386h570v-134h-570v134zM250 321q0 -85 56.5 -144t158.5 -59q82 0 146 40t90 121q9 29 13.5 67t5 71.5t0.5 109.5h-145q-144 0 -190 -14q-65 -20 -100 -71.5t-35 -120.5zM870 651v-651h-150v115q-114 -131 -275 -131q-152 0 -248.5 96.5t-96.5 240.5
q0 108 61.5 191.5t173.5 117.5q33 10 73 15t70 5.5t91 0.5h151q0 80 -2.5 114.5t-13.5 63.5q-25 67 -84 101t-135 34q-111 0 -263 -73l-57 124q182 83 320 83q133 0 233 -64t136 -183q16 -53 16 -200z" />
    <glyph glyph-name="Abreve" unicode="&#x102;" horiz-adv-x="1190" 
d="M331 1830h140q0 -81 36.5 -122.5t88.5 -41.5t88.5 41.5t36.5 122.5h140q0 -119 -72 -203.5t-193 -84.5t-193 84.5t-72 203.5zM830 482l-235 723l-235 -723h470zM520 1416h150l480 -1416h-163l-111 342h-562l-111 -342h-163z" />
    <glyph glyph-name="abreve" unicode="&#x103;" horiz-adv-x="1020" 
d="M221 1496h140q0 -81 36.5 -122.5t88.5 -41.5t88.5 41.5t36.5 122.5h140q0 -119 -72 -203.5t-193 -84.5t-193 84.5t-72 203.5zM250 321q0 -85 56.5 -144t158.5 -59q82 0 146 40t90 121q9 29 13.5 67t5 71.5t0.5 109.5h-145q-144 0 -190 -14q-65 -20 -100 -71.5t-35 -120.5
zM870 651v-651h-150v115q-114 -131 -275 -131q-152 0 -248.5 96.5t-96.5 240.5q0 108 61.5 191.5t173.5 117.5q33 10 73 15t70 5.5t91 0.5h151q0 80 -2.5 114.5t-13.5 63.5q-25 67 -84 101t-135 34q-111 0 -263 -73l-57 124q182 83 320 83q133 0 233 -64t136 -183
q16 -53 16 -200z" />
    <glyph glyph-name="Aogonek" unicode="&#x104;" horiz-adv-x="1190" 
d="M948 -216q0 -39 22 -64.5t59 -25.5t74 25l65 -110q-67 -39 -139 -39q-94 0 -149.5 56t-55.5 137q0 141 163 237l-111 342h-562l-111 -342h-163l480 1416h150l480 -1416q-35 -13 -67.5 -31t-64 -44t-51 -63t-19.5 -78zM830 482l-235 723l-235 -723h470z" />
    <glyph glyph-name="aogonek" unicode="&#x105;" horiz-adv-x="1020" 
d="M668 -216q0 -39 22 -64.5t59 -25.5t74 25l65 -110q-67 -39 -139 -39q-94 0 -149.5 56t-55.5 137q0 147 176 244v108q-114 -131 -275 -131q-152 0 -248.5 96.5t-96.5 240.5q0 108 61.5 191.5t173.5 117.5q33 10 73 15t70 5.5t91 0.5h151q0 80 -2.5 114.5t-13.5 63.5
q-25 67 -84 101t-135 34q-111 0 -263 -73l-57 124q182 83 320 83q133 0 233 -64t136 -183q16 -53 16 -200v-651q-35 -13 -67.5 -31t-64 -44t-51 -63t-19.5 -78zM250 321q0 -85 56.5 -144t158.5 -59q82 0 146 40t90 121q9 29 13.5 67t5 71.5t0.5 109.5h-145q-144 0 -190 -14
q-65 -20 -100 -71.5t-35 -120.5z" />
    <glyph glyph-name="Cacute" unicode="&#x106;" horiz-adv-x="1114" 
d="M830 1830l-165 -274h-158l154 274h169zM618 1435q202 0 374 -121l-80 -120q-142 101 -294 101q-208 0 -282 -170q-32 -73 -41 -173t-9 -244t9 -244t41 -173q74 -170 282 -170q184 0 324 119l88 -116q-182 -143 -412 -143q-155 0 -264.5 69t-162.5 188q-27 60 -41.5 146.5
t-17 153t-2.5 170.5q0 160 11.5 273t49.5 197q55 120 164.5 188.5t262.5 68.5z" />
    <glyph glyph-name="cacute" unicode="&#x107;" horiz-adv-x="964" 
d="M747 1496l-165 -274h-158l154 274h169zM535 1098q165 0 327 -101l-71 -118q-131 85 -256 85q-131 0 -204 -105q-26 -38 -39 -99.5t-15 -102.5t-2 -110q0 -78 1.5 -119.5t13.5 -99.5t36 -98q35 -58 91 -85t118 -27q68 0 142.5 26t130.5 64l76 -114q-71 -48 -165 -79
t-184 -31q-114 0 -204 50.5t-137 132.5q-32 56 -48 123.5t-18.5 117t-2.5 139.5q0 78 2.5 125.5t18.5 118.5t48 124q49 82 137.5 132.5t203.5 50.5z" />
    <glyph glyph-name="Ccircumflex" unicode="&#x108;" horiz-adv-x="1114" 
d="M758 1556l-140 138l-140 -138h-171l258 274h106l258 -274h-171zM618 1435q202 0 374 -121l-80 -120q-142 101 -294 101q-208 0 -282 -170q-32 -73 -41 -173t-9 -244t9 -244t41 -173q74 -170 282 -170q184 0 324 119l88 -116q-182 -143 -412 -143q-155 0 -264.5 69
t-162.5 188q-27 60 -41.5 146.5t-17 153t-2.5 170.5q0 160 11.5 273t49.5 197q55 120 164.5 188.5t262.5 68.5z" />
    <glyph glyph-name="ccircumflex" unicode="&#x109;" horiz-adv-x="964" 
d="M675 1222l-140 138l-140 -138h-171l258 274h106l258 -274h-171zM535 1098q165 0 327 -101l-71 -118q-131 85 -256 85q-131 0 -204 -105q-26 -38 -39 -99.5t-15 -102.5t-2 -110q0 -78 1.5 -119.5t13.5 -99.5t36 -98q35 -58 91 -85t118 -27q68 0 142.5 26t130.5 64l76 -114
q-71 -48 -165 -79t-184 -31q-114 0 -204 50.5t-137 132.5q-32 56 -48 123.5t-18.5 117t-2.5 139.5q0 78 2.5 125.5t18.5 118.5t48 124q49 82 137.5 132.5t203.5 50.5z" />
    <glyph glyph-name="Cdotaccent" unicode="&#x10a;" horiz-adv-x="1114" 
d="M618 1769q41 0 67.5 -26.5t26.5 -67.5t-26.5 -67.5t-67.5 -26.5t-67.5 26.5t-26.5 67.5t26.5 67.5t67.5 26.5zM618 1435q202 0 374 -121l-80 -120q-142 101 -294 101q-208 0 -282 -170q-32 -73 -41 -173t-9 -244t9 -244t41 -173q74 -170 282 -170q184 0 324 119l88 -116
q-182 -143 -412 -143q-155 0 -264.5 69t-162.5 188q-27 60 -41.5 146.5t-17 153t-2.5 170.5q0 160 11.5 273t49.5 197q55 120 164.5 188.5t262.5 68.5z" />
    <glyph glyph-name="cdotaccent" unicode="&#x10b;" horiz-adv-x="964" 
d="M535 1435q41 0 67.5 -26.5t26.5 -67.5t-26.5 -67.5t-67.5 -26.5t-67.5 26.5t-26.5 67.5t26.5 67.5t67.5 26.5zM535 1098q165 0 327 -101l-71 -118q-131 85 -256 85q-131 0 -204 -105q-26 -38 -39 -99.5t-15 -102.5t-2 -110q0 -78 1.5 -119.5t13.5 -99.5t36 -98
q35 -58 91 -85t118 -27q68 0 142.5 26t130.5 64l76 -114q-71 -48 -165 -79t-184 -31q-114 0 -204 50.5t-137 132.5q-32 56 -48 123.5t-18.5 117t-2.5 139.5q0 78 2.5 125.5t18.5 118.5t48 124q49 82 137.5 132.5t203.5 50.5z" />
    <glyph glyph-name="Ccaron" unicode="&#x10c;" horiz-adv-x="1114" 
d="M478 1830l140 -138l140 138h171l-258 -274h-106l-258 274h171zM618 1435q202 0 374 -121l-80 -120q-142 101 -294 101q-208 0 -282 -170q-32 -73 -41 -173t-9 -244t9 -244t41 -173q74 -170 282 -170q184 0 324 119l88 -116q-182 -143 -412 -143q-155 0 -264.5 69
t-162.5 188q-27 60 -41.5 146.5t-17 153t-2.5 170.5q0 160 11.5 273t49.5 197q55 120 164.5 188.5t262.5 68.5z" />
    <glyph glyph-name="ccaron" unicode="&#x10d;" horiz-adv-x="964" 
d="M395 1496l140 -138l140 138h171l-258 -274h-106l-258 274h171zM535 1098q165 0 327 -101l-71 -118q-131 85 -256 85q-131 0 -204 -105q-26 -38 -39 -99.5t-15 -102.5t-2 -110q0 -78 1.5 -119.5t13.5 -99.5t36 -98q35 -58 91 -85t118 -27q68 0 142.5 26t130.5 64l76 -114
q-71 -48 -165 -79t-184 -31q-114 0 -204 50.5t-137 132.5q-32 56 -48 123.5t-18.5 117t-2.5 139.5q0 78 2.5 125.5t18.5 118.5t48 124q49 82 137.5 132.5t203.5 50.5z" />
    <glyph glyph-name="Dcaron" unicode="&#x10e;" horiz-adv-x="1217" 
d="M447 1830l140 -138l140 138h171l-258 -274h-106l-258 274h171zM336 1276v-1136h203q51 0 80.5 1t73 9.5t71.5 24.5q35 20 62 50t44.5 59.5t29.5 75t18 79t9 89.5t3.5 87.5t0.5 92.5t-0.5 92.5t-3.5 87.5t-9 89.5t-18 79t-29.5 75t-44.5 59.5t-62 50q-28 16 -71.5 24.5
t-73 9.5t-80.5 1h-203zM180 1416h359q150 0 229 -23q92 -27 157.5 -90.5t102.5 -146.5q27 -62 41 -148.5t16 -143.5t2 -156t-2 -156t-16 -143.5t-41 -148.5q-37 -83 -102.5 -146.5t-157.5 -90.5q-79 -23 -229 -23h-359v1416z" />
    <glyph glyph-name="dcaron" unicode="&#x10f;" horiz-adv-x="1469" 
d="M1239 1592q49 0 79.5 -30.5t30.5 -79.5q0 -31 -25 -92l-90 -222h-98l57 213q-28 11 -46 38t-18 63q0 49 30.5 79.5t79.5 30.5zM520 1098q167 0 285 -131v529h150v-1496h-150v115q-118 -131 -285 -131q-102 0 -185 44t-130 116q-50 77 -65 165.5t-15 231.5t15 231.5
t65 165.5q47 72 130 116t185 44zM540 964q-134 0 -205 -98q-38 -52 -49 -126t-11 -199t11 -199t49 -126q71 -98 205 -98t205 98q38 52 49 126t11 199t-11 199t-49 126q-71 98 -205 98z" />
    <glyph glyph-name="Dcroat" unicode="&#x110;" horiz-adv-x="1277" 
d="M80 652v140h160v624h359q150 0 229 -23q92 -27 157.5 -90.5t102.5 -146.5q27 -62 41 -148.5t16 -143.5t2 -156t-2 -156t-16 -143.5t-41 -148.5q-37 -83 -102.5 -146.5t-157.5 -90.5q-79 -23 -229 -23h-359v652h-160zM396 792h240v-140h-240v-512h203q51 0 80.5 1t73 9.5
t71.5 24.5q35 20 62 50t44.5 59.5t29.5 75t18 79t9 89.5t3.5 87.5t0.5 92.5t-0.5 92.5t-3.5 87.5t-9 89.5t-18 79t-29.5 75t-44.5 59.5t-62 50q-28 16 -71.5 24.5t-73 9.5t-80.5 1h-203v-484z" />
    <glyph glyph-name="dcroat" unicode="&#x111;" horiz-adv-x="1150" 
d="M1090 1360v-124h-135v-1236h-150v115q-118 -131 -285 -131q-102 0 -185 44t-130 116q-50 77 -65 165.5t-15 231.5t15 231.5t65 165.5q47 72 130 116t185 44q167 0 285 -131v269h-247v124h247v136h150v-136h135zM540 964q-134 0 -205 -98q-38 -52 -49 -126t-11 -199
t11 -199t49 -126q71 -98 205 -98t205 98q38 52 49 126t11 199t-11 199t-49 126q-71 98 -205 98z" />
    <glyph glyph-name="Emacron" unicode="&#x112;" 
d="M292 1720h570v-134h-570v134zM180 1416h780v-140h-624v-484h534v-140h-534v-512h624v-140h-780v1416z" />
    <glyph glyph-name="emacron" unicode="&#x113;" horiz-adv-x="1055" 
d="M245 1386h570v-134h-570v134zM550 -16q-116 0 -205 43.5t-141 119.5q-37 53 -55.5 126t-21 123.5t-2.5 144.5q0 77 1.5 116.5t10 96t25.5 102.5q42 110 140.5 176t227.5 66q127 0 226.5 -66.5t142.5 -176.5q25 -63 30.5 -125.5t5.5 -187.5v-33h-660q0 -65 2 -104.5
t15.5 -95t39.5 -92.5q69 -99 218 -99q133 0 286 73l57 -124q-177 -83 -343 -83zM785 633q-2 114 -29 181q-27 69 -87.5 109.5t-138.5 40.5q-81 0 -140 -40.5t-85 -108.5q-27 -70 -29 -182h509z" />
    <glyph glyph-name="Ebreve" unicode="&#x114;" 
d="M313 1830h140q0 -81 36.5 -122.5t88.5 -41.5t88.5 41.5t36.5 122.5h140q0 -119 -72 -203.5t-193 -84.5t-193 84.5t-72 203.5zM180 1416h780v-140h-624v-484h534v-140h-534v-512h624v-140h-780v1416z" />
    <glyph glyph-name="ebreve" unicode="&#x115;" horiz-adv-x="1055" 
d="M266 1496h140q0 -81 36.5 -122.5t88.5 -41.5t88.5 41.5t36.5 122.5h140q0 -119 -72 -203.5t-193 -84.5t-193 84.5t-72 203.5zM550 -16q-116 0 -205 43.5t-141 119.5q-37 53 -55.5 126t-21 123.5t-2.5 144.5q0 77 1.5 116.5t10 96t25.5 102.5q42 110 140.5 176t227.5 66
q127 0 226.5 -66.5t142.5 -176.5q25 -63 30.5 -125.5t5.5 -187.5v-33h-660q0 -65 2 -104.5t15.5 -95t39.5 -92.5q69 -99 218 -99q133 0 286 73l57 -124q-177 -83 -343 -83zM785 633q-2 114 -29 181q-27 69 -87.5 109.5t-138.5 40.5q-81 0 -140 -40.5t-85 -108.5
q-27 -70 -29 -182h509z" />
    <glyph glyph-name="Edotaccent" unicode="&#x116;" 
d="M577 1769q41 0 67.5 -26.5t26.5 -67.5t-26.5 -67.5t-67.5 -26.5t-67.5 26.5t-26.5 67.5t26.5 67.5t67.5 26.5zM180 1416h780v-140h-624v-484h534v-140h-534v-512h624v-140h-780v1416z" />
    <glyph glyph-name="edotaccent" unicode="&#x117;" horiz-adv-x="1055" 
d="M530 1435q41 0 67.5 -26.5t26.5 -67.5t-26.5 -67.5t-67.5 -26.5t-67.5 26.5t-26.5 67.5t26.5 67.5t67.5 26.5zM550 -16q-116 0 -205 43.5t-141 119.5q-37 53 -55.5 126t-21 123.5t-2.5 144.5q0 77 1.5 116.5t10 96t25.5 102.5q42 110 140.5 176t227.5 66
q127 0 226.5 -66.5t142.5 -176.5q25 -63 30.5 -125.5t5.5 -187.5v-33h-660q0 -65 2 -104.5t15.5 -95t39.5 -92.5q69 -99 218 -99q133 0 286 73l57 -124q-177 -83 -343 -83zM785 633q-2 114 -29 181q-27 69 -87.5 109.5t-138.5 40.5q-81 0 -140 -40.5t-85 -108.5
q-27 -70 -29 -182h509z" />
    <glyph glyph-name="Eogonek" unicode="&#x118;" 
d="M758 -216q0 -39 22 -64.5t59 -25.5t74 25l65 -110q-67 -39 -139 -39q-94 0 -149.5 56t-55.5 137q0 141 163 237h-617v1416h780v-140h-624v-484h534v-140h-534v-512h624v-140q-35 -13 -67.5 -31t-64 -44t-51 -63t-19.5 -78z" />
    <glyph glyph-name="eogonek" unicode="&#x119;" horiz-adv-x="1055" 
d="M785 633q-2 114 -29 181q-27 69 -87.5 109.5t-138.5 40.5q-81 0 -140 -40.5t-85 -108.5q-27 -70 -29 -182h509zM625 -176q0 -39 22 -64.5t59 -25.5q36 0 74 25l65 -110q-67 -39 -139 -39q-94 0 -149.5 56t-55.5 137q0 107 128 191q-37 -10 -79 -10q-116 0 -205 43.5
t-141 119.5q-37 53 -55.5 126t-21 123.5t-2.5 144.5q0 77 1.5 116.5t10 96t25.5 102.5q42 110 140.5 176t227.5 66q127 0 226.5 -66.5t142.5 -176.5q25 -63 30.5 -125.5t5.5 -187.5v-33h-660q0 -64 2.5 -104.5t15.5 -95.5t39 -92q69 -99 218 -99q133 0 286 73l57 -124
q-118 -50 -159 -76q-109 -69 -109 -167z" />
    <glyph glyph-name="Ecaron" unicode="&#x11a;" 
d="M437 1830l140 -138l140 138h171l-258 -274h-106l-258 274h171zM180 1416h780v-140h-624v-484h534v-140h-534v-512h624v-140h-780v1416z" />
    <glyph glyph-name="ecaron" unicode="&#x11b;" horiz-adv-x="1055" 
d="M390 1496l140 -138l140 138h171l-258 -274h-106l-258 274h171zM550 -16q-116 0 -205 43.5t-141 119.5q-37 53 -55.5 126t-21 123.5t-2.5 144.5q0 77 1.5 116.5t10 96t25.5 102.5q42 110 140.5 176t227.5 66q127 0 226.5 -66.5t142.5 -176.5q25 -63 30.5 -125.5
t5.5 -187.5v-33h-660q0 -65 2 -104.5t15.5 -95t39.5 -92.5q69 -99 218 -99q133 0 286 73l57 -124q-177 -83 -343 -83zM785 633q-2 114 -29 181q-27 69 -87.5 109.5t-138.5 40.5q-81 0 -140 -40.5t-85 -108.5q-27 -70 -29 -182h509z" />
    <glyph glyph-name="Gcircumflex" unicode="&#x11c;" horiz-adv-x="1236" 
d="M758 1556l-140 138l-140 -138h-171l258 274h106l258 -274h-171zM618 1435q202 0 374 -121l-80 -120q-142 101 -294 101q-208 0 -282 -170q-32 -73 -41 -173t-9 -244t9 -244t41 -173q74 -170 282 -170t282 170q44 100 49 311h-301v140h458q0 -126 -2.5 -194.5
t-16.5 -157.5t-42 -152q-53 -119 -162 -188t-265 -69q-155 0 -264.5 69t-162.5 188q-27 60 -41.5 146.5t-17 153t-2.5 170.5q0 160 11.5 273t49.5 197q55 120 164.5 188.5t262.5 68.5z" />
    <glyph glyph-name="gcircumflex" unicode="&#x11d;" horiz-adv-x="1115" 
d="M660 1222l-140 138l-140 -138h-171l258 274h106l258 -274h-171zM520 1098q167 0 285 -131v115h150v-971q0 -176 -16 -238q-38 -147 -153 -223.5t-266 -76.5q-160 0 -336 73l50 126q156 -65 286 -65q104 0 177.5 51t96.5 150q11 48 11 207q-118 -131 -285 -131
q-102 0 -185 44t-130 116q-50 77 -65 165.5t-15 231.5t15 231.5t65 165.5q47 72 130 116t185 44zM540 964q-134 0 -205 -98q-38 -52 -49 -126t-11 -199t11 -199t49 -126q71 -98 205 -98t205 98q38 52 49 126t11 199t-11 199t-49 126q-71 98 -205 98z" />
    <glyph glyph-name="Gbreve" unicode="&#x11e;" horiz-adv-x="1236" 
d="M354 1830h140q0 -81 36.5 -122.5t88.5 -41.5t88.5 41.5t36.5 122.5h140q0 -119 -72 -203.5t-193 -84.5t-193 84.5t-72 203.5zM618 1435q202 0 374 -121l-80 -120q-142 101 -294 101q-208 0 -282 -170q-32 -73 -41 -173t-9 -244t9 -244t41 -173q74 -170 282 -170t282 170
q44 100 49 311h-301v140h458q0 -126 -2.5 -194.5t-16.5 -157.5t-42 -152q-53 -119 -162 -188t-265 -69q-155 0 -264.5 69t-162.5 188q-27 60 -41.5 146.5t-17 153t-2.5 170.5q0 160 11.5 273t49.5 197q55 120 164.5 188.5t262.5 68.5z" />
    <glyph glyph-name="gbreve" unicode="&#x11f;" horiz-adv-x="1115" 
d="M256 1496h140q0 -81 36.5 -122.5t88.5 -41.5t88.5 41.5t36.5 122.5h140q0 -119 -72 -203.5t-193 -84.5t-193 84.5t-72 203.5zM520 1098q167 0 285 -131v115h150v-971q0 -176 -16 -238q-38 -147 -153 -223.5t-266 -76.5q-160 0 -336 73l50 126q156 -65 286 -65
q104 0 177.5 51t96.5 150q11 48 11 207q-118 -131 -285 -131q-102 0 -185 44t-130 116q-50 77 -65 165.5t-15 231.5t15 231.5t65 165.5q47 72 130 116t185 44zM540 964q-134 0 -205 -98q-38 -52 -49 -126t-11 -199t11 -199t49 -126q71 -98 205 -98t205 98q38 52 49 126
t11 199t-11 199t-49 126q-71 98 -205 98z" />
    <glyph glyph-name="Gdotaccent" unicode="&#x120;" horiz-adv-x="1236" 
d="M618 1769q41 0 67.5 -26.5t26.5 -67.5t-26.5 -67.5t-67.5 -26.5t-67.5 26.5t-26.5 67.5t26.5 67.5t67.5 26.5zM618 1435q202 0 374 -121l-80 -120q-142 101 -294 101q-208 0 -282 -170q-32 -73 -41 -173t-9 -244t9 -244t41 -173q74 -170 282 -170t282 170q44 100 49 311
h-301v140h458q0 -126 -2.5 -194.5t-16.5 -157.5t-42 -152q-53 -119 -162 -188t-265 -69q-155 0 -264.5 69t-162.5 188q-27 60 -41.5 146.5t-17 153t-2.5 170.5q0 160 11.5 273t49.5 197q55 120 164.5 188.5t262.5 68.5z" />
    <glyph glyph-name="gdotaccent" unicode="&#x121;" horiz-adv-x="1115" 
d="M520 1435q41 0 67.5 -26.5t26.5 -67.5t-26.5 -67.5t-67.5 -26.5t-67.5 26.5t-26.5 67.5t26.5 67.5t67.5 26.5zM520 1098q167 0 285 -131v115h150v-971q0 -176 -16 -238q-38 -147 -153 -223.5t-266 -76.5q-160 0 -336 73l50 126q156 -65 286 -65q104 0 177.5 51t96.5 150
q11 48 11 207q-118 -131 -285 -131q-102 0 -185 44t-130 116q-50 77 -65 165.5t-15 231.5t15 231.5t65 165.5q47 72 130 116t185 44zM540 964q-134 0 -205 -98q-38 -52 -49 -126t-11 -199t11 -199t49 -126q71 -98 205 -98t205 98q38 52 49 126t11 199t-11 199t-49 126
q-71 98 -205 98z" />
    <glyph glyph-name="uni0122" unicode="&#x122;" horiz-adv-x="1236" 
d="M716 -220q0 -32 -25 -82l-72 -153h-92l53 149q-57 21 -57 86q0 41 28 68t68 27t68.5 -27t28.5 -68zM618 1435q202 0 374 -121l-80 -120q-142 101 -294 101q-208 0 -282 -170q-32 -73 -41 -173t-9 -244t9 -244t41 -173q74 -170 282 -170t282 170q44 100 49 311h-301v140
h458q0 -126 -2.5 -194.5t-16.5 -157.5t-42 -152q-53 -119 -162 -188t-265 -69q-155 0 -264.5 69t-162.5 188q-27 60 -41.5 146.5t-17 153t-2.5 170.5q0 160 11.5 273t49.5 197q55 120 164.5 188.5t262.5 68.5z" />
    <glyph glyph-name="uni0123" unicode="&#x123;" horiz-adv-x="1115" 
d="M423 1301q0 32 25 82l72 153h92l-53 -149q57 -21 57 -86q0 -41 -28 -68t-68 -27t-68.5 27t-28.5 68zM520 1098q167 0 285 -131v115h150v-971q0 -176 -16 -238q-38 -147 -153 -223.5t-266 -76.5q-160 0 -336 73l50 126q156 -65 286 -65q104 0 177.5 51t96.5 150
q11 48 11 207q-118 -131 -285 -131q-102 0 -185 44t-130 116q-50 77 -65 165.5t-15 231.5t15 231.5t65 165.5q47 72 130 116t185 44zM540 964q-134 0 -205 -98q-38 -52 -49 -126t-11 -199t11 -199t49 -126q71 -98 205 -98t205 98q38 52 49 126t11 199t-11 199t-49 126
q-71 98 -205 98z" />
    <glyph glyph-name="Hcircumflex" unicode="&#x124;" horiz-adv-x="1280" 
d="M780 1556l-140 138l-140 -138h-171l258 274h106l258 -274h-171zM180 1416h156v-624h608v624h156v-1416h-156v652h-608v-652h-156v1416z" />
    <glyph glyph-name="hcircumflex" unicode="&#x125;" 
d="M374 1636l-140 138l-140 -138h-171l258 274h106l258 -274h-171zM585 1098q88 0 161 -36t121 -96q30 -37 48 -78t25 -91t8.5 -82t1.5 -90v-625h-150v615q0 76 -2 111.5t-15 80.5t-41 77q-68 80 -187 80t-187 -80q-28 -32 -41 -77t-15 -80.5t-2 -111.5v-615h-150v1496h150
v-528q118 130 275 130z" />
    <glyph glyph-name="Hbar" unicode="&#x126;" horiz-adv-x="1380" 
d="M1300 1260v-124h-146v-1136h-156v652h-608v-652h-156v1136h-154v124h154v156h156v-156h608v156h156v-156h146zM998 1136h-608v-344h608v344z" />
    <glyph glyph-name="hbar" unicode="&#x127;" horiz-adv-x="1130" 
d="M625 1098q88 0 161 -36t121 -96q30 -37 48 -78t25 -91t8.5 -82t1.5 -90v-625h-150v615q0 76 -2 111.5t-15 80.5t-41 77q-68 80 -187 80t-187 -80q-28 -32 -41 -77t-15 -80.5t-2 -111.5v-615h-150v1236h-140v124h140v136h150v-136h242v-124h-242v-268q118 130 275 130z
" />
    <glyph glyph-name="Itilde" unicode="&#x128;" horiz-adv-x="516" 
d="M354 1680q48 0 89 70l115 -71q-31 -54 -83.5 -88.5t-120.5 -34.5q-44 0 -81 15t-64 30t-47 15q-48 0 -89 -70l-115 71q31 54 83.5 88.5t120.5 34.5q44 0 81 -15t64 -30t47 -15zM336 1416v-1416h-156v1416h156z" />
    <glyph glyph-name="itilde" unicode="&#x129;" horiz-adv-x="470" 
d="M331 1346q48 0 89 70l115 -71q-31 -54 -83.5 -88.5t-120.5 -34.5q-44 0 -81 15t-64 30t-47 15q-48 0 -89 -70l-115 71q31 54 83.5 88.5t120.5 34.5q44 0 81 -15t64 -30t47 -15zM310 0h-150v1082h150v-1082z" />
    <glyph glyph-name="Imacron" unicode="&#x12a;" horiz-adv-x="516" 
d="M-27 1720h570v-134h-570v134zM336 1416v-1416h-156v1416h156z" />
    <glyph glyph-name="imacron" unicode="&#x12b;" horiz-adv-x="470" 
d="M-50 1386h570v-134h-570v134zM310 0h-150v1082h150v-1082z" />
    <glyph glyph-name="Ibreve" unicode="&#x12c;" horiz-adv-x="516" 
d="M-6 1830h140q0 -81 36.5 -122.5t88.5 -41.5t88.5 41.5t36.5 122.5h140q0 -119 -72 -203.5t-193 -84.5t-193 84.5t-72 203.5zM336 1416v-1416h-156v1416h156z" />
    <glyph glyph-name="ibreve" unicode="&#x12d;" horiz-adv-x="470" 
d="M-29 1496h140q0 -81 36.5 -122.5t88.5 -41.5t88.5 41.5t36.5 122.5h140q0 -119 -72 -203.5t-193 -84.5t-193 84.5t-72 203.5zM310 0h-150v1082h150v-1082z" />
    <glyph glyph-name="Iogonek" unicode="&#x12e;" horiz-adv-x="516" 
d="M130 -216q0 -39 22 -64.5t59 -25.5t74 25l65 -110q-67 -39 -139 -39q-94 0 -149.5 56t-55.5 137q0 146 174 243v1410h156v-1416h-4q-35 -13 -67.5 -31t-64 -44t-51 -63t-19.5 -78z" />
    <glyph glyph-name="iogonek" unicode="&#x12f;" horiz-adv-x="480" 
d="M113 -216q0 -39 22 -64.5t59 -25.5q36 0 74 25l65 -110q-67 -39 -139 -39q-94 0 -149.5 56t-55.5 137q0 147 176 244v1075h150v-1082q-35 -13 -67.5 -31t-64 -44t-51 -63t-19.5 -78zM240 1435q41 0 67.5 -26.5t26.5 -67.5t-26.5 -67.5t-67.5 -26.5t-67.5 26.5t-26.5 67.5
t26.5 67.5t67.5 26.5z" />
    <glyph glyph-name="Idotaccent" unicode="&#x130;" horiz-adv-x="516" 
d="M258 1769q41 0 67.5 -26.5t26.5 -67.5t-26.5 -67.5t-67.5 -26.5t-67.5 26.5t-26.5 67.5t26.5 67.5t67.5 26.5zM336 1416v-1416h-156v1416h156z" />
    <glyph glyph-name="dotlessi" unicode="&#x131;" horiz-adv-x="470" 
d="M310 0h-150v1082h150v-1082z" />
    <glyph glyph-name="Jcircumflex" unicode="&#x134;" horiz-adv-x="958" 
d="M860 1556l-140 138l-140 -138h-171l258 274h106l258 -274h-171zM642 1416h156v-983q0 -125 -11 -176q-27 -123 -125 -199.5t-237 -76.5q-182 0 -345 122l89 116q119 -98 246 -98q77 0 133 37t79 106q15 45 15 169v983z" />
    <glyph glyph-name="jcircumflex" unicode="&#x135;" horiz-adv-x="480" 
d="M380 1222l-140 138l-140 -138h-171l258 274h106l258 -274h-171zM315 -134q0 -94 -10 -130q-21 -75 -82 -119.5t-143 -44.5q-71 0 -131 19l38 130q45 -15 83 -15q64 0 85 54q10 25 10 111v1211h150v-1216z" />
    <glyph glyph-name="uni0136" unicode="&#x136;" horiz-adv-x="1179" 
d="M712 -220q0 -32 -25 -82l-72 -153h-92l53 149q-57 21 -57 86q0 41 28 68t68 27t68.5 -27t28.5 -68zM336 601l598 815h177l-505 -681l523 -735h-185l-437 624l-171 -224v-400h-156v1416h156v-815z" />
    <glyph glyph-name="uni0137" unicode="&#x137;" horiz-adv-x="995" 
d="M587 -220q0 -32 -25 -82l-72 -153h-92l53 149q-57 21 -57 86q0 41 28 68t68 27t68.5 -27t28.5 -68zM160 1496h150v-1007l439 593h176l-401 -535l411 -547h-180l-325 443l-120 -156v-287h-150v1496z" />
    <glyph glyph-name="kgreenlandic" unicode="&#x138;" horiz-adv-x="995" 
d="M160 1082h150v-593l439 593h176l-401 -535l411 -547h-180l-325 443l-120 -156v-287h-150v1082z" />
    <glyph glyph-name="Lacute" unicode="&#x139;" horiz-adv-x="980" 
d="M471 1830l-165 -274h-158l154 274h169zM180 1416h156v-1276h564v-140h-720v1416z" />
    <glyph glyph-name="lacute" unicode="&#x13a;" horiz-adv-x="486" 
d="M479 1892l-165 -274h-158l154 274h169zM402 124l24 -128q-40 -12 -92 -12q-82 0 -136 66q-38 46 -38 141v1305h150v-1305q0 -45 11 -59t35 -14q22 0 46 6z" />
    <glyph glyph-name="uni013B" unicode="&#x13b;" horiz-adv-x="980" 
d="M639 -220q0 -32 -25 -82l-72 -153h-92l53 149q-57 21 -57 86q0 41 28 68t68 27t68.5 -27t28.5 -68zM180 1416h156v-1276h564v-140h-720v1416z" />
    <glyph glyph-name="lcedilla" unicode="&#x13c;" horiz-adv-x="486" 
d="M431 -233q0 -32 -25 -82l-72 -153h-92l53 149q-57 21 -57 86q0 41 28 68t68 27t68.5 -27t28.5 -68zM402 124l24 -128q-40 -12 -92 -12q-82 0 -136 66q-38 46 -38 141v1305h150v-1305q0 -45 11 -59t35 -14q22 0 46 6z" />
    <glyph glyph-name="Lcaron" unicode="&#x13d;" horiz-adv-x="980" 
d="M685 1512q49 0 79.5 -30.5t30.5 -79.5q0 -31 -25 -92l-90 -222h-98l57 213q-28 11 -46 38t-18 63q0 49 30.5 79.5t79.5 30.5zM180 1416h156v-1276h564v-140h-720v1416z" />
    <glyph glyph-name="lcaron" unicode="&#x13e;" horiz-adv-x="824" 
d="M594 1592q49 0 79.5 -30.5t30.5 -79.5q0 -31 -25 -92l-90 -222h-98l57 213q-28 11 -46 38t-18 63q0 49 30.5 79.5t79.5 30.5zM402 124l24 -128q-40 -12 -92 -12q-82 0 -136 66q-38 46 -38 141v1305h150v-1305q0 -45 11 -59t35 -14q22 0 46 6z" />
    <glyph glyph-name="Ldot" unicode="&#x13f;" horiz-adv-x="980" 
d="M651 832q49 0 79.5 -30.5t30.5 -79.5t-30.5 -79.5t-79.5 -30.5t-79.5 30.5t-30.5 79.5t30.5 79.5t79.5 30.5zM180 1416h156v-1276h564v-140h-720v1416z" />
    <glyph glyph-name="ldot" unicode="&#x140;" horiz-adv-x="814" 
d="M584 834q49 0 79.5 -30.5t30.5 -79.5t-30.5 -79.5t-79.5 -30.5t-79.5 30.5t-30.5 79.5t30.5 79.5t79.5 30.5zM402 124l24 -128q-40 -12 -92 -12q-82 0 -136 66q-38 46 -38 141v1305h150v-1305q0 -45 11 -59t35 -14q22 0 46 6z" />
    <glyph glyph-name="Lslash" unicode="&#x141;" horiz-adv-x="1057" 
d="M565 998l76 -108l-228 -159v-591h564v-140h-720v623l-116 -81l-76 108l192 134v632h156v-524z" />
    <glyph glyph-name="lslash" unicode="&#x142;" horiz-adv-x="696" 
d="M137 542l-72 104l213 148v702h150v-597l131 91l72 -104l-203 -141v-554q0 -45 11 -59t35 -14q22 0 46 6l24 -128q-41 -12 -92 -12q-82 0 -136 66q-38 46 -38 141v449z" />
    <glyph glyph-name="Nacute" unicode="&#x143;" horiz-adv-x="1294" 
d="M859 1830l-165 -274h-158l154 274h169zM958 1416h156v-1416h-157l-621 1136v-1136h-156v1416h157l621 -1136v1136z" />
    <glyph glyph-name="nacute" unicode="&#x144;" 
d="M787 1496l-165 -274h-158l154 274h169zM585 1098q111 0 201.5 -58.5t132.5 -163.5q15 -36 22 -82t8 -77.5t1 -91.5v-625h-150v615q0 95 -4 137.5t-22 81.5q-28 62 -86.5 96t-132.5 34t-132.5 -34t-86.5 -96q-18 -39 -22 -81.5t-4 -137.5v-615h-150v1082h150v-114
q118 130 275 130z" />
    <glyph glyph-name="uni0145" unicode="&#x145;" horiz-adv-x="1294" 
d="M745 -220q0 -32 -25 -82l-72 -153h-92l53 149q-57 21 -57 86q0 41 28 68t68 27t68.5 -27t28.5 -68zM958 1416h156v-1416h-157l-621 1136v-1136h-156v1416h157l621 -1136v1136z" />
    <glyph glyph-name="uni0146" unicode="&#x146;" 
d="M648 -220q0 -32 -25 -82l-72 -153h-92l53 149q-57 21 -57 86q0 41 28 68t68 27t68.5 -27t28.5 -68zM585 1098q111 0 201.5 -58.5t132.5 -163.5q15 -36 22 -82t8 -77.5t1 -91.5v-625h-150v615q0 95 -4 137.5t-22 81.5q-28 62 -86.5 96t-132.5 34t-132.5 -34t-86.5 -96
q-18 -39 -22 -81.5t-4 -137.5v-615h-150v1082h150v-114q118 130 275 130z" />
    <glyph glyph-name="Ncaron" unicode="&#x147;" horiz-adv-x="1294" 
d="M507 1830l140 -138l140 138h171l-258 -274h-106l-258 274h171zM958 1416h156v-1416h-157l-621 1136v-1136h-156v1416h157l621 -1136v1136z" />
    <glyph glyph-name="ncaron" unicode="&#x148;" 
d="M435 1496l140 -138l140 138h171l-258 -274h-106l-258 274h171zM585 1098q111 0 201.5 -58.5t132.5 -163.5q15 -36 22 -82t8 -77.5t1 -91.5v-625h-150v615q0 95 -4 137.5t-22 81.5q-28 62 -86.5 96t-132.5 34t-132.5 -34t-86.5 -96q-18 -39 -22 -81.5t-4 -137.5v-615h-150
v1082h150v-114q118 130 275 130z" />
    <glyph glyph-name="napostrophe" unicode="&#x149;" horiz-adv-x="1370" 
d="M875 1098q111 0 201.5 -58.5t132.5 -163.5q15 -36 22 -82t8 -77.5t1 -91.5v-625h-150v615q0 95 -4 137.5t-22 81.5q-28 62 -86.5 96t-132.5 34t-132.5 -34t-86.5 -96q-18 -39 -22 -81.5t-4 -137.5v-615h-150v1082h150v-114q118 130 275 130zM270 1512q49 0 79.5 -30.5
t30.5 -79.5q0 -31 -25 -92l-90 -222h-98l57 213q-28 11 -46 38t-18 63q0 49 30.5 79.5t79.5 30.5z" />
    <glyph glyph-name="Eng" unicode="&#x14a;" horiz-adv-x="1286" 
d="M954 1416h156v-1537q0 -80 -6.5 -120.5t-27.5 -77.5q-65 -114 -219 -114q-64 0 -124 25l51 131q37 -16 76 -16q55 0 78 38q11 18 13.5 44t2.5 90v119l-622 1138v-1136h-156v1416h157l621 -1136v1136z" />
    <glyph glyph-name="eng" unicode="&#x14b;" 
d="M950 -134q0 -94 -10 -130q-21 -75 -82 -119.5t-143 -44.5q-71 0 -131 19l38 130q45 -15 83 -15q64 0 85 54q10 25 10 111v744q0 95 -4 137.5t-22 81.5q-28 62 -86.5 96t-132.5 34t-132.5 -34t-86.5 -96q-18 -39 -22 -81.5t-4 -137.5v-615h-150v1082h150v-114
q118 130 275 130q111 0 201.5 -58.5t132.5 -163.5q15 -36 22 -82t8 -77.5t1 -91.5v-759z" />
    <glyph glyph-name="Omacron" unicode="&#x14c;" horiz-adv-x="1256" 
d="M383 1720h570v-134h-570v134zM648 1435q156 0 267 -69t165 -186q31 -66 46.5 -158t17.5 -152t2 -162t-2 -162t-17.5 -152t-46.5 -158q-54 -117 -165 -186t-267 -69t-267 69t-165 186q-31 66 -46.5 158t-17.5 152t-2 162t2 162t17.5 152t46.5 158q54 117 165 186t267 69z
M648 1295q-106 0 -179 -44.5t-109 -123.5q-25 -53 -37.5 -132.5t-14.5 -136t-2 -150.5t2 -150.5t14.5 -136t37.5 -132.5q36 -79 109 -123.5t179 -44.5t179 44.5t109 123.5q25 53 37.5 132.5t14.5 136t2 150.5t-2 150.5t-14.5 136t-37.5 132.5q-36 79 -109 123.5t-179 44.5z
" />
    <glyph glyph-name="omacron" unicode="&#x14d;" 
d="M305 1386h570v-134h-570v134zM570 964q-130 0 -199 -79q-27 -31 -43.5 -69.5t-23 -90t-8 -86t-1.5 -98.5t1.5 -98.5t8 -86t23 -90t43.5 -69.5q69 -79 199 -79t199 79q27 31 43.5 69.5t23 90t8 86t1.5 98.5t-1.5 98.5t-8 86t-23 90t-43.5 69.5q-69 79 -199 79zM570 1098
q99 0 180 -34.5t133 -91.5q40 -44 64.5 -95.5t34 -115t11.5 -105t2 -115.5t-2 -115.5t-11.5 -105t-34 -115t-64.5 -95.5q-52 -57 -133 -91.5t-180 -34.5t-180 34.5t-133 91.5q-40 44 -64.5 95.5t-34 115t-11.5 105t-2 115.5t2 115.5t11.5 105t34 115t64.5 95.5
q52 57 133 91.5t180 34.5z" />
    <glyph glyph-name="Obreve" unicode="&#x14e;" horiz-adv-x="1256" 
d="M404 1791h140q0 -81 36.5 -122.5t88.5 -41.5t88.5 41.5t36.5 122.5h140q0 -119 -72 -203.5t-193 -84.5t-193 84.5t-72 203.5zM648 1435q156 0 267 -69t165 -186q31 -66 46.5 -158t17.5 -152t2 -162t-2 -162t-17.5 -152t-46.5 -158q-54 -117 -165 -186t-267 -69t-267 69
t-165 186q-31 66 -46.5 158t-17.5 152t-2 162t2 162t17.5 152t46.5 158q54 117 165 186t267 69zM648 1295q-106 0 -179 -44.5t-109 -123.5q-25 -53 -37.5 -132.5t-14.5 -136t-2 -150.5t2 -150.5t14.5 -136t37.5 -132.5q36 -79 109 -123.5t179 -44.5t179 44.5t109 123.5
q25 53 37.5 132.5t14.5 136t2 150.5t-2 150.5t-14.5 136t-37.5 132.5q-36 79 -109 123.5t-179 44.5z" />
    <glyph glyph-name="obreve" unicode="&#x14f;" 
d="M326 1497h140q0 -81 36.5 -122.5t88.5 -41.5t88.5 41.5t36.5 122.5h140q0 -119 -72 -203.5t-193 -84.5t-193 84.5t-72 203.5zM570 964q-130 0 -199 -79q-27 -31 -43.5 -69.5t-23 -90t-8 -86t-1.5 -98.5t1.5 -98.5t8 -86t23 -90t43.5 -69.5q69 -79 199 -79t199 79
q27 31 43.5 69.5t23 90t8 86t1.5 98.5t-1.5 98.5t-8 86t-23 90t-43.5 69.5q-69 79 -199 79zM570 1098q99 0 180 -34.5t133 -91.5q40 -44 64.5 -95.5t34 -115t11.5 -105t2 -115.5t-2 -115.5t-11.5 -105t-34 -115t-64.5 -95.5q-52 -57 -133 -91.5t-180 -34.5t-180 34.5
t-133 91.5q-40 44 -64.5 95.5t-34 115t-11.5 105t-2 115.5t2 115.5t11.5 105t34 115t64.5 95.5q52 57 133 91.5t180 34.5z" />
    <glyph glyph-name="Ohungarumlaut" unicode="&#x150;" horiz-adv-x="1256" 
d="M988 1830l-164 -274h-148l153 274h159zM690 1830l-164 -274h-148l153 274h159zM628 1435q156 0 267 -69t165 -186q31 -66 46.5 -158t17.5 -152t2 -162t-2 -162t-17.5 -152t-46.5 -158q-54 -117 -165 -186t-267 -69t-267 69t-165 186q-31 66 -46.5 158t-17.5 152t-2 162
t2 162t17.5 152t46.5 158q54 117 165 186t267 69zM628 1295q-106 0 -179 -44.5t-109 -123.5q-25 -53 -37.5 -132.5t-14.5 -136t-2 -150.5t2 -150.5t14.5 -136t37.5 -132.5q36 -79 109 -123.5t179 -44.5t179 44.5t109 123.5q25 53 37.5 132.5t14.5 136t2 150.5t-2 150.5
t-14.5 136t-37.5 132.5q-36 79 -109 123.5t-179 44.5z" />
    <glyph glyph-name="ohungarumlaut" unicode="&#x151;" 
d="M910 1496l-164 -274h-148l153 274h159zM612 1496l-164 -274h-148l153 274h159zM550 964q-130 0 -199 -79q-27 -31 -43.5 -69.5t-23 -90t-8 -86t-1.5 -98.5t1.5 -98.5t8 -86t23 -90t43.5 -69.5q69 -79 199 -79t199 79q27 31 43.5 69.5t23 90t8 86t1.5 98.5t-1.5 98.5
t-8 86t-23 90t-43.5 69.5q-69 79 -199 79zM550 1098q99 0 180 -34.5t133 -91.5q40 -44 64.5 -95.5t34 -115t11.5 -105t2 -115.5t-2 -115.5t-11.5 -105t-34 -115t-64.5 -95.5q-52 -57 -133 -91.5t-180 -34.5t-180 34.5t-133 91.5q-40 44 -64.5 95.5t-34 115t-11.5 105
t-2 115.5t2 115.5t11.5 105t34 115t64.5 95.5q52 57 133 91.5t180 34.5z" />
    <glyph glyph-name="OE" unicode="&#x152;" horiz-adv-x="1670" 
d="M588 1295q-198 0 -262 -167q-19 -48 -28 -127.5t-10.5 -136t-1.5 -156.5t1.5 -156.5t10.5 -136t28 -127.5q64 -167 262 -167t262 167q19 48 28 127.5t10.5 136t1.5 156.5t-1.5 156.5t-10.5 136t-28 127.5q-64 167 -262 167zM1046 652q-1 -187 -22.5 -308.5t-92.5 -203.5
h599v-140h-809q-63 -19 -133 -19q-152 0 -258 71t-151 190q-23 60 -34.5 148t-13 148.5t-1.5 169.5t1.5 169.5t13 148.5t34.5 148q45 119 151 190t258 71q70 0 133 -19h809v-140h-599q69 -78 91 -193.5t24 -290.5h414v-140h-414z" />
    <glyph glyph-name="oe" unicode="&#x153;" horiz-adv-x="1715" 
d="M956 633h489q0 153 -54 231q-69 100 -193 100t-190 -101q-50 -76 -52 -230zM882 913q41 86 124.5 135.5t191.5 49.5t195 -50t135 -128q41 -67 54 -142.5t13 -198.5v-70h-640q0 -102 10 -169t42 -119q64 -103 213 -103q124 0 277 73l59 -123q-178 -84 -336 -84
q-239 0 -340 184q-54 -85 -140.5 -134.5t-199.5 -49.5q-107 0 -193.5 44t-137.5 116q-30 43 -48.5 89t-25.5 104t-8.5 95.5t-1.5 108.5t1.5 108.5t8.5 95.5t25.5 104t48.5 89q51 72 137.5 116t193.5 44q224 0 342 -185zM540 964q-136 0 -205 -98q-28 -39 -42 -99t-16 -102.5
t-2 -123.5t2 -123.5t16 -102.5t42 -99q69 -98 205 -98t205 98q28 39 42 99t16 102.5t2 123.5t-2 123.5t-16 102.5t-42 99q-69 98 -205 98z" />
    <glyph glyph-name="Racute" unicode="&#x154;" horiz-adv-x="1141" 
d="M768 1830l-165 -274h-158l154 274h169zM507 1416q69 0 102.5 -1.5t79 -9.5t88.5 -26q113 -46 181 -151.5t68 -241.5q0 -137 -69 -243t-183 -151l277 -592h-169l-254 556h-292v-556h-156v1416h327zM507 1276h-171v-580h171q55 0 81.5 1t61 6.5t61.5 16.5q45 19 77.5 51.5
t49.5 70.5t24.5 73.5t7.5 70.5t-7.5 70.5t-24.5 73.5t-49.5 70.5t-77.5 51.5q-27 11 -61.5 16.5t-61 6.5t-81.5 1z" />
    <glyph glyph-name="racute" unicode="&#x155;" horiz-adv-x="697" 
d="M677 1496l-165 -274h-158l154 274h169zM310 968q109 130 255 130q41 0 92 -11l-22 -132q-63 9 -90 9q-76 0 -132 -36t-81 -97q-22 -53 -22 -188v-643h-150v1082h150v-114z" />
    <glyph glyph-name="uni0156" unicode="&#x156;" horiz-adv-x="1141" 
d="M699 -220q0 -32 -25 -82l-72 -153h-92l53 149q-57 21 -57 86q0 41 28 68t68 27t68.5 -27t28.5 -68zM507 1416q69 0 102.5 -1.5t79 -9.5t88.5 -26q113 -46 181 -151.5t68 -241.5q0 -137 -69 -243t-183 -151l277 -592h-169l-254 556h-292v-556h-156v1416h327zM507 1276
h-171v-580h171q55 0 81.5 1t61 6.5t61.5 16.5q45 19 77.5 51.5t49.5 70.5t24.5 73.5t7.5 70.5t-7.5 70.5t-24.5 73.5t-49.5 70.5t-77.5 51.5q-27 11 -61.5 16.5t-61 6.5t-81.5 1z" />
    <glyph glyph-name="uni0157" unicode="&#x157;" horiz-adv-x="697" 
d="M332 -220q0 -32 -25 -82l-72 -153h-92l53 149q-57 21 -57 86q0 41 28 68t68 27t68.5 -27t28.5 -68zM310 968q109 130 255 130q41 0 92 -11l-22 -132q-63 9 -90 9q-76 0 -132 -36t-81 -97q-22 -53 -22 -188v-643h-150v1082h150v-114z" />
    <glyph glyph-name="Rcaron" unicode="&#x158;" horiz-adv-x="1141" 
d="M416 1830l140 -138l140 138h171l-258 -274h-106l-258 274h171zM507 1416q69 0 102.5 -1.5t79 -9.5t88.5 -26q113 -46 181 -151.5t68 -241.5q0 -137 -69 -243t-183 -151l277 -592h-169l-254 556h-292v-556h-156v1416h327zM507 1276h-171v-580h171q55 0 81.5 1t61 6.5
t61.5 16.5q45 19 77.5 51.5t49.5 70.5t24.5 73.5t7.5 70.5t-7.5 70.5t-24.5 73.5t-49.5 70.5t-77.5 51.5q-27 11 -61.5 16.5t-61 6.5t-81.5 1z" />
    <glyph glyph-name="rcaron" unicode="&#x159;" horiz-adv-x="697" 
d="M325 1496l140 -138l140 138h171l-258 -274h-106l-258 274h171zM310 968q109 130 255 130q41 0 92 -11l-22 -132q-63 9 -90 9q-76 0 -132 -36t-81 -97q-22 -53 -22 -188v-643h-150v1082h150v-114z" />
    <glyph glyph-name="Sacute" unicode="&#x15a;" horiz-adv-x="1045" 
d="M729 1830l-165 -274h-158l154 274h169zM84 115l69 126q207 -120 364 -120q62 0 111 17.5t78.5 45t49 64t26.5 71t7 69.5q0 80 -36.5 144t-119.5 95q-40 15 -127.5 32.5t-131.5 32.5q-126 45 -193 142t-67 221q0 160 108 270t295 110q165 0 373 -100l-60 -129
q-184 89 -313 89q-123 0 -185 -70t-62 -170q0 -78 39 -141t121 -91q37 -13 126.5 -31t137.5 -36q125 -48 188 -145.5t63 -222.5q0 -81 -27.5 -153.5t-79 -129.5t-135 -90.5t-186.5 -33.5q-117 0 -220 36t-213 98z" />
    <glyph glyph-name="sacute" unicode="&#x15b;" horiz-adv-x="963" 
d="M690 1496l-165 -274h-158l154 274h169zM478 1098q149 0 343 -82l-51 -127q-176 75 -292 75q-58 0 -102 -17t-66 -44t-32.5 -54t-10.5 -53q0 -50 27.5 -87.5t69.5 -56.5q41 -19 134.5 -32.5t156.5 -36.5q88 -33 148 -107t60 -175q0 -127 -103 -222t-282 -95
q-168 0 -378 93l54 125q186 -84 324 -84q62 0 109.5 17t73.5 45t39 58.5t13 62.5q0 57 -34 99t-84 61q-34 13 -137 29t-164 44q-77 36 -127 104t-50 158q0 123 98.5 212.5t262.5 89.5z" />
    <glyph glyph-name="Scircumflex" unicode="&#x15c;" horiz-adv-x="1045" 
d="M697 1556l-140 138l-140 -138h-171l258 274h106l258 -274h-171zM104 115l69 126q207 -120 364 -120q62 0 111 17.5t78.5 45t49 64t26.5 71t7 69.5q0 80 -36.5 144t-119.5 95q-40 15 -127.5 32.5t-131.5 32.5q-126 45 -193 142t-67 221q0 160 108 270t295 110
q165 0 373 -100l-60 -129q-184 89 -313 89q-123 0 -185 -70t-62 -170q0 -78 39 -141t121 -91q37 -13 126.5 -31t137.5 -36q125 -48 188 -145.5t63 -222.5q0 -81 -27.5 -153.5t-79 -129.5t-135 -90.5t-186.5 -33.5q-117 0 -220 36t-213 98z" />
    <glyph glyph-name="scircumflex" unicode="&#x15d;" horiz-adv-x="963" 
d="M658 1222l-140 138l-140 -138h-171l258 274h106l258 -274h-171zM498 1098q149 0 343 -82l-51 -127q-176 75 -292 75q-58 0 -102 -17t-66 -44t-32.5 -54t-10.5 -53q0 -50 27.5 -87.5t69.5 -56.5q41 -19 134.5 -32.5t156.5 -36.5q88 -33 148 -107t60 -175q0 -127 -103 -222
t-282 -95q-168 0 -378 93l54 125q186 -84 324 -84q62 0 109.5 17t73.5 45t39 58.5t13 62.5q0 57 -34 99t-84 61q-34 13 -137 29t-164 44q-77 36 -127 104t-50 158q0 123 98.5 212.5t262.5 89.5z" />
    <glyph glyph-name="Scedilla" unicode="&#x15e;" horiz-adv-x="1045" 
d="M461 -306q33 0 51.5 22.5t18.5 55.5q0 64 -75 90l34 121q-103 7 -195 42t-191 90l69 126q207 -120 364 -120q62 0 111 17.5t78.5 45t49 64t26.5 71t7 69.5q0 80 -36.5 144t-119.5 95q-40 15 -127.5 32.5t-131.5 32.5q-126 45 -193 142t-67 221q0 160 108 270t295 110
q165 0 373 -100l-60 -129q-184 89 -313 89q-123 0 -185 -70t-62 -170q0 -78 39 -141t121 -91q37 -13 126.5 -31t137.5 -36q125 -48 188 -145.5t63 -222.5q0 -73 -22.5 -139.5t-65 -121t-110 -92t-152.5 -49.5l-24 -83q34 -17 57 -50.5t23 -81.5q0 -90 -58 -145.5t-148 -55.5
q-37 0 -89 14l38 119q23 -9 47 -9z" />
    <glyph glyph-name="scedilla" unicode="&#x15f;" horiz-adv-x="963" 
d="M422 -306q33 0 51.5 22.5t18.5 55.5q0 64 -75 90l35 124q-150 10 -332 91l54 125q186 -84 324 -84q62 0 109.5 17t73.5 45t39 58.5t13 62.5q0 57 -34 99t-84 61q-34 13 -137 29t-164 44q-77 36 -127 104t-50 158q0 123 98.5 212.5t262.5 89.5q149 0 343 -82l-51 -127
q-176 75 -292 75q-58 0 -102 -17t-66 -44t-32.5 -54t-10.5 -53q0 -50 27.5 -87.5t69.5 -56.5q41 -19 134.5 -32.5t156.5 -36.5q88 -33 148 -107t60 -175q0 -53 -20 -103.5t-57 -93.5t-96.5 -73.5t-132.5 -40.5l-25 -87q34 -17 57 -50.5t23 -81.5q0 -90 -58 -145.5
t-148 -55.5q-37 0 -89 14l38 119q23 -9 47 -9z" />
    <glyph glyph-name="Scaron" unicode="&#x160;" horiz-adv-x="1045" 
d="M377 1830l140 -138l140 138h171l-258 -274h-106l-258 274h171zM84 115l69 126q207 -120 364 -120q62 0 111 17.5t78.5 45t49 64t26.5 71t7 69.5q0 80 -36.5 144t-119.5 95q-40 15 -127.5 32.5t-131.5 32.5q-126 45 -193 142t-67 221q0 160 108 270t295 110
q165 0 373 -100l-60 -129q-184 89 -313 89q-123 0 -185 -70t-62 -170q0 -78 39 -141t121 -91q37 -13 126.5 -31t137.5 -36q125 -48 188 -145.5t63 -222.5q0 -81 -27.5 -153.5t-79 -129.5t-135 -90.5t-186.5 -33.5q-117 0 -220 36t-213 98z" />
    <glyph glyph-name="scaron" unicode="&#x161;" horiz-adv-x="963" 
d="M338 1496l140 -138l140 138h171l-258 -274h-106l-258 274h171zM478 1098q149 0 343 -82l-51 -127q-176 75 -292 75q-58 0 -102 -17t-66 -44t-32.5 -54t-10.5 -53q0 -50 27.5 -87.5t69.5 -56.5q41 -19 134.5 -32.5t156.5 -36.5q88 -33 148 -107t60 -175q0 -127 -103 -222
t-282 -95q-168 0 -378 93l54 125q186 -84 324 -84q62 0 109.5 17t73.5 45t39 58.5t13 62.5q0 57 -34 99t-84 61q-34 13 -137 29t-164 44q-77 36 -127 104t-50 158q0 123 98.5 212.5t262.5 89.5z" />
    <glyph glyph-name="uni0162" unicode="&#x162;" horiz-adv-x="1048" 
d="M428 -306q33 0 51.5 22.5t18.5 55.5q0 64 -75 90l39 138h-16v1277h-386v140h928v-140h-386v-1277h-16l-28 -97q34 -17 57 -50.5t23 -81.5q0 -90 -58 -145.5t-148 -55.5q-37 0 -89 14l38 119q23 -9 47 -9z" />
    <glyph glyph-name="uni0163" unicode="&#x163;" horiz-adv-x="652" 
d="M359 -306q33 0 51.5 22.5t18.5 55.5q0 64 -75 90l36 127q-64 12 -107.5 51.5t-61.5 101.5q-11 38 -11 161v655h-150v124h150v234h150v-234h200v-124h-200v-655q0 -108 9 -130q23 -55 86 -55q52 0 114 32l58 -124q-64 -28 -113 -36l-25 -87q34 -17 57 -50.5t23 -81.5
q0 -90 -58 -145.5t-148 -55.5q-37 0 -89 14l38 119q23 -9 47 -9z" />
    <glyph glyph-name="Tcaron" unicode="&#x164;" horiz-adv-x="1048" 
d="M384 1830l140 -138l140 138h171l-258 -274h-106l-258 274h171zM60 1417h928v-140h-386v-1277h-156v1277h-386v140z" />
    <glyph glyph-name="tcaron" unicode="&#x165;" horiz-adv-x="996" 
d="M786 1590q49 0 79.5 -30.5t30.5 -79.5q0 -31 -25 -92l-90 -222h-98l57 213q-28 11 -46 38t-18 63q0 49 30.5 79.5t79.5 30.5zM210 303v655h-150v124h150v234h150v-234h200v-124h-200v-655q0 -108 9 -130q23 -55 86 -55q52 0 114 32l58 -124q-96 -42 -182 -42
q-85 0 -143.5 41t-80.5 117q-11 38 -11 161z" />
    <glyph glyph-name="Tbar" unicode="&#x166;" horiz-adv-x="1048" 
d="M60 1417h928v-140h-386v-431h198v-124h-198v-722h-156v722h-198v124h198v431h-386v140z" />
    <glyph glyph-name="tbar" unicode="&#x167;" horiz-adv-x="687" 
d="M560 782v-124h-200v-355q0 -108 9 -130q23 -55 86 -55q52 0 114 32l58 -124q-96 -42 -182 -42q-85 0 -143.5 41t-80.5 117q-11 38 -11 161v355h-150v124h150v176h-150v124h150v234h150v-234h200v-124h-200v-176h200z" />
    <glyph glyph-name="Utilde" unicode="&#x168;" horiz-adv-x="1236" 
d="M754 1680q48 0 89 70l115 -71q-31 -54 -83.5 -88.5t-120.5 -34.5q-44 0 -81 15t-64 30t-47 15q-48 0 -89 -70l-115 71q31 54 83.5 88.5t120.5 34.5q44 0 81 -15t64 -30t47 -15zM180 1416h156v-901q0 -146 20 -205q34 -99 113.5 -144t168.5 -45t168.5 45t113.5 144
q20 59 20 205v901h156v-901q0 -58 -1 -88.5t-7 -75t-18 -81.5q-33 -100 -101.5 -166.5t-151 -94.5t-179.5 -28t-179.5 28t-151 94.5t-101.5 166.5q-12 37 -18 81.5t-7 75t-1 88.5v901z" />
    <glyph glyph-name="utilde" unicode="&#x169;" horiz-adv-x="1090" 
d="M681 1346q48 0 89 70l115 -71q-31 -54 -83.5 -88.5t-120.5 -34.5q-44 0 -81 15t-64 30t-47 15q-48 0 -89 -70l-115 71q31 54 83.5 88.5t120.5 34.5q44 0 81 -15t64 -30t47 -15zM170 1082h150v-625q0 -135 15 -181q25 -77 87 -117.5t143 -40.5t143 40.5t87 117.5
q15 46 15 181v625h150v-635q0 -53 -1 -81.5t-7 -70.5t-19 -76q-42 -114 -137.5 -174.5t-230.5 -60.5t-230.5 60.5t-137.5 174.5q-13 34 -19 76t-7 70.5t-1 81.5v635z" />
    <glyph glyph-name="Umacron" unicode="&#x16a;" horiz-adv-x="1236" 
d="M373 1720h570v-134h-570v134zM180 1416h156v-901q0 -146 20 -205q34 -99 113.5 -144t168.5 -45t168.5 45t113.5 144q20 59 20 205v901h156v-901q0 -58 -1 -88.5t-7 -75t-18 -81.5q-33 -100 -101.5 -166.5t-151 -94.5t-179.5 -28t-179.5 28t-151 94.5t-101.5 166.5
q-12 37 -18 81.5t-7 75t-1 88.5v901z" />
    <glyph glyph-name="umacron" unicode="&#x16b;" horiz-adv-x="1090" 
d="M300 1386h570v-134h-570v134zM170 1082h150v-625q0 -135 15 -181q25 -77 87 -117.5t143 -40.5t143 40.5t87 117.5q15 46 15 181v625h150v-635q0 -53 -1 -81.5t-7 -70.5t-19 -76q-42 -114 -137.5 -174.5t-230.5 -60.5t-230.5 60.5t-137.5 174.5q-13 34 -19 76t-7 70.5
t-1 81.5v635z" />
    <glyph glyph-name="Ubreve" unicode="&#x16c;" horiz-adv-x="1236" 
d="M394 1831h140q0 -81 36.5 -122.5t88.5 -41.5t88.5 41.5t36.5 122.5h140q0 -119 -72 -203.5t-193 -84.5t-193 84.5t-72 203.5zM180 1416h156v-901q0 -146 20 -205q34 -99 113.5 -144t168.5 -45t168.5 45t113.5 144q20 59 20 205v901h156v-901q0 -58 -1 -88.5t-7 -75
t-18 -81.5q-33 -100 -101.5 -166.5t-151 -94.5t-179.5 -28t-179.5 28t-151 94.5t-101.5 166.5q-12 37 -18 81.5t-7 75t-1 88.5v901z" />
    <glyph glyph-name="ubreve" unicode="&#x16d;" horiz-adv-x="1090" 
d="M321 1497h140q0 -81 36.5 -122.5t88.5 -41.5t88.5 41.5t36.5 122.5h140q0 -119 -72 -203.5t-193 -84.5t-193 84.5t-72 203.5zM170 1082h150v-625q0 -135 15 -181q25 -77 87 -117.5t143 -40.5t143 40.5t87 117.5q15 46 15 181v625h150v-635q0 -53 -1 -81.5t-7 -70.5
t-19 -76q-42 -114 -137.5 -174.5t-230.5 -60.5t-230.5 60.5t-137.5 174.5q-13 34 -19 76t-7 70.5t-1 81.5v635z" />
    <glyph glyph-name="Uring" unicode="&#x16e;" horiz-adv-x="1236" 
d="M658 1766q-41 0 -66 -25t-25 -72t25 -72t66 -25t66 25t25 72t-25 72t-66 25zM658 1872q92 0 150.5 -58.5t58.5 -144.5t-58.5 -144.5t-150.5 -58.5t-150.5 58.5t-58.5 144.5t58.5 144.5t150.5 58.5zM180 1416h156v-901q0 -146 20 -205q34 -99 113.5 -144t168.5 -45
t168.5 45t113.5 144q20 59 20 205v901h156v-901q0 -58 -1 -88.5t-7 -75t-18 -81.5q-33 -100 -101.5 -166.5t-151 -94.5t-179.5 -28t-179.5 28t-151 94.5t-101.5 166.5q-12 37 -18 81.5t-7 75t-1 88.5v901z" />
    <glyph glyph-name="uring" unicode="&#x16f;" horiz-adv-x="1090" 
d="M585 1432q-41 0 -66 -25t-25 -72t25 -72t66 -25t66 25t25 72t-25 72t-66 25zM585 1538q92 0 150.5 -58.5t58.5 -144.5t-58.5 -144.5t-150.5 -58.5t-150.5 58.5t-58.5 144.5t58.5 144.5t150.5 58.5zM170 1082h150v-625q0 -135 15 -181q25 -77 87 -117.5t143 -40.5
t143 40.5t87 117.5q15 46 15 181v625h150v-635q0 -53 -1 -81.5t-7 -70.5t-19 -76q-42 -114 -137.5 -174.5t-230.5 -60.5t-230.5 60.5t-137.5 174.5q-13 34 -19 76t-7 70.5t-1 81.5v635z" />
    <glyph glyph-name="Uhungarumlaut" unicode="&#x170;" horiz-adv-x="1236" 
d="M978 1830l-164 -274h-148l153 274h159zM680 1830l-164 -274h-148l153 274h159zM160 1416h156v-901q0 -146 20 -205q34 -99 113.5 -144t168.5 -45t168.5 45t113.5 144q20 59 20 205v901h156v-901q0 -58 -1 -88.5t-7 -75t-18 -81.5q-33 -100 -101.5 -166.5t-151 -94.5
t-179.5 -28t-179.5 28t-151 94.5t-101.5 166.5q-12 37 -18 81.5t-7 75t-1 88.5v901z" />
    <glyph glyph-name="uhungarumlaut" unicode="&#x171;" horiz-adv-x="1090" 
d="M905 1496l-164 -274h-148l153 274h159zM607 1496l-164 -274h-148l153 274h159zM150 1082h150v-625q0 -135 15 -181q25 -77 87 -117.5t143 -40.5t143 40.5t87 117.5q15 46 15 181v625h150v-635q0 -53 -1 -81.5t-7 -70.5t-19 -76q-42 -114 -137.5 -174.5t-230.5 -60.5
t-230.5 60.5t-137.5 174.5q-13 34 -19 76t-7 70.5t-1 81.5v635z" />
    <glyph glyph-name="Uogonek" unicode="&#x172;" horiz-adv-x="1236" 
d="M531 -216q0 -39 22 -64.5t59 -25.5q36 0 74 25l65 -110q-67 -39 -139 -39q-94 0 -149.5 56t-55.5 137q0 131 160 222q-185 12 -303 152q-37 46 -59.5 95t-31.5 111.5t-11 104.5t-2 123v845h156v-845q0 -93 2.5 -140t19.5 -108.5t52 -103.5q81 -98 228 -98t228 98
q35 42 52 103.5t19.5 108.5t2.5 140v845h156v-845q0 -81 -2 -123t-11 -104.5t-31.5 -111.5t-59.5 -95q-91 -110 -242 -144q-72 -16 -135.5 -74t-63.5 -135z" />
    <glyph glyph-name="uogonek" unicode="&#x173;" horiz-adv-x="1090" 
d="M418 -216q0 -39 22 -64.5t59 -25.5t74 25l65 -110q-67 -39 -139 -39q-94 0 -149.5 56t-55.5 137q0 74 41.5 131t110.5 99q-97 20 -166 77.5t-103 148.5q-13 34 -19 76t-7 70.5t-1 81.5v635h150v-625q0 -135 15 -181q25 -77 87 -117.5t143 -40.5t143 40.5t87 117.5
q15 46 15 181v625h150v-635q0 -53 -1 -81.5t-7 -70.5t-19 -76q-39 -105 -124 -165t-205 -69q-25 -11 -47 -24.5t-44.5 -32.5t-38.5 -40t-26 -48t-10 -56z" />
    <glyph glyph-name="Wcircumflex" unicode="&#x174;" horiz-adv-x="1500" 
d="M890 1556l-140 138l-140 -138h-171l258 274h106l258 -274h-171zM220 1416l242 -1141l213 711h150l213 -711l242 1141h160l-311 -1416h-152l-227 762l-227 -762h-152l-311 1416h160z" />
    <glyph glyph-name="wcircumflex" unicode="&#x175;" horiz-adv-x="1408" 
d="M844 1222l-140 138l-140 -138h-171l258 274h106l258 -274h-171zM329 0l-259 1082h153l186 -834l222 834h146l222 -834l186 834h153l-259 -1082h-146l-229 856l-229 -856h-146z" />
    <glyph glyph-name="Ycircumflex" unicode="&#x176;" horiz-adv-x="1082" 
d="M681 1556l-140 138l-140 -138h-171l258 274h106l258 -274h-171zM40 1416h169l332 -744l332 744h169l-423 -910v-506h-156v506z" />
    <glyph glyph-name="ycircumflex" unicode="&#x177;" horiz-adv-x="987" 
d="M634 1222l-140 138l-140 -138h-171l258 274h106l258 -274h-171zM94 -409l33 130q51 -14 95 -14q72 0 120 38q19 15 33.5 37.5t21.5 41t18 52.5l37 122l-392 1084h156l302 -885l256 885h153l-377 -1241q-20 -66 -43.5 -110t-62.5 -78q-90 -80 -222 -80q-56 0 -128 18z" />
    <glyph glyph-name="Ydieresis" unicode="&#x178;" horiz-adv-x="1082" 
d="M732 1769q41 0 67.5 -26.5t26.5 -67.5t-26.5 -67.5t-67.5 -26.5t-67.5 26.5t-26.5 67.5t26.5 67.5t67.5 26.5zM350 1769q41 0 67.5 -26.5t26.5 -67.5t-26.5 -67.5t-67.5 -26.5t-67.5 26.5t-26.5 67.5t26.5 67.5t67.5 26.5zM40 1416h169l332 -744l332 744h169l-423 -910
v-506h-156v506z" />
    <glyph glyph-name="Zacute" unicode="&#x179;" horiz-adv-x="1027" 
d="M726 1830l-165 -274h-158l154 274h169zM105 1276v140h822v-101l-661 -1175h681v-140h-867v101l661 1175h-636z" />
    <glyph glyph-name="zacute" unicode="&#x17a;" horiz-adv-x="880" 
d="M652 1496l-165 -274h-158l154 274h169zM800 134v-134h-720v108l526 840h-519v134h704v-108l-526 -840h535z" />
    <glyph glyph-name="Zdotaccent" unicode="&#x17b;" horiz-adv-x="1027" 
d="M514 1769q41 0 67.5 -26.5t26.5 -67.5t-26.5 -67.5t-67.5 -26.5t-67.5 26.5t-26.5 67.5t26.5 67.5t67.5 26.5zM105 1276v140h822v-101l-661 -1175h681v-140h-867v101l661 1175h-636z" />
    <glyph glyph-name="zdotaccent" unicode="&#x17c;" horiz-adv-x="880" 
d="M440 1435q41 0 67.5 -26.5t26.5 -67.5t-26.5 -67.5t-67.5 -26.5t-67.5 26.5t-26.5 67.5t26.5 67.5t67.5 26.5zM800 134v-134h-720v108l526 840h-519v134h704v-108l-526 -840h535z" />
    <glyph glyph-name="Zcaron" unicode="&#x17d;" horiz-adv-x="1027" 
d="M374 1830l140 -138l140 138h171l-258 -274h-106l-258 274h171zM105 1276v140h822v-101l-661 -1175h681v-140h-867v101l661 1175h-636z" />
    <glyph glyph-name="zcaron" unicode="&#x17e;" horiz-adv-x="880" 
d="M300 1496l140 -138l140 138h171l-258 -274h-106l-258 274h171zM800 134v-134h-720v108l526 840h-519v134h704v-108l-526 -840h535z" />
    <glyph glyph-name="longs" unicode="&#x17f;" horiz-adv-x="565" 
d="M160 1143q0 67 2 100t14.5 78t38.5 82q78 109 230 109q55 0 140 -17l-27 -132q-62 15 -113 15q-70 0 -104 -48q-21 -30 -26 -68t-5 -119v-1143h-150v1143z" />
    <glyph glyph-name="uni018F" unicode="&#x18f;" horiz-adv-x="1236" 
d="M618 1435q153 0 262.5 -68.5t164.5 -188.5q38 -84 49.5 -197t11.5 -273q0 -104 -2.5 -170.5t-17 -153t-41.5 -146.5q-53 -119 -162.5 -188t-264.5 -69q-156 0 -265 69t-162 188q-28 63 -42 152t-16.5 157.5t-2.5 194.5h820q-2 271 -50 383q-74 170 -282 170
q-152 0 -294 -101l-80 120q172 121 374 121zM949 602h-662q5 -211 49 -311q74 -170 282 -170t282 170q44 100 49 311z" />
    <glyph glyph-name="florin" unicode="&#x192;" horiz-adv-x="615" 
d="M210 1143q0 67 2 100t14.5 78t38.5 82q78 109 230 109q55 0 140 -17l-27 -132q-62 15 -113 15q-70 0 -104 -48q-21 -30 -26 -68t-5 -119v-61h200v-124h-200v-1077q0 -54 -1 -79t-8.5 -57t-23.5 -60q-30 -53 -85.5 -83t-126.5 -30q-59 0 -121 19l38 130q45 -15 83 -15
q55 0 78 40q11 19 14 43.5t3 91.5v1077h-150v124h150v61z" />
    <glyph glyph-name="uni01F0" unicode="&#x1f0;" horiz-adv-x="480" 
d="M100 1496l140 -138l140 138h171l-258 -274h-106l-258 274h171zM315 -134q0 -94 -10 -130q-21 -75 -82 -119.5t-143 -44.5q-71 0 -131 19l38 130q45 -15 83 -15q64 0 85 54q10 25 10 111v1211h150v-1216z" />
    <glyph glyph-name="uni0218" unicode="&#x218;" horiz-adv-x="1045" 
d="M615 -220q0 -32 -25 -82l-72 -153h-92l53 149q-57 21 -57 86q0 41 28 68t68 27t68.5 -27t28.5 -68zM84 115l69 126q207 -120 364 -120q62 0 111 17.5t78.5 45t49 64t26.5 71t7 69.5q0 80 -36.5 144t-119.5 95q-40 15 -127.5 32.5t-131.5 32.5q-126 45 -193 142t-67 221
q0 160 108 270t295 110q165 0 373 -100l-60 -129q-184 89 -313 89q-123 0 -185 -70t-62 -170q0 -78 39 -141t121 -91q37 -13 126.5 -31t137.5 -36q125 -48 188 -145.5t63 -222.5q0 -81 -27.5 -153.5t-79 -129.5t-135 -90.5t-186.5 -33.5q-117 0 -220 36t-213 98z" />
    <glyph glyph-name="uni0219" unicode="&#x219;" horiz-adv-x="963" 
d="M576 -220q0 -32 -25 -82l-72 -153h-92l53 149q-57 21 -57 86q0 41 28 68t68 27t68.5 -27t28.5 -68zM478 1098q149 0 343 -82l-51 -127q-176 75 -292 75q-58 0 -102 -17t-66 -44t-32.5 -54t-10.5 -53q0 -50 27.5 -87.5t69.5 -56.5q41 -19 134.5 -32.5t156.5 -36.5
q88 -33 148 -107t60 -175q0 -127 -103 -222t-282 -95q-168 0 -378 93l54 125q186 -84 324 -84q62 0 109.5 17t73.5 45t39 58.5t13 62.5q0 57 -34 99t-84 61q-34 13 -137 29t-164 44q-77 36 -127 104t-50 158q0 123 98.5 212.5t262.5 89.5z" />
    <glyph glyph-name="uni021A" unicode="&#x21a;" horiz-adv-x="1048" 
d="M622 -220q0 -32 -25 -82l-72 -153h-92l53 149q-57 21 -57 86q0 41 28 68t68 27t68.5 -27t28.5 -68zM60 1417h928v-140h-386v-1277h-156v1277h-386v140z" />
    <glyph glyph-name="uni021B" unicode="&#x21b;" horiz-adv-x="652" 
d="M513 -220q0 -32 -25 -82l-72 -153h-92l53 149q-57 21 -57 86q0 41 28 68t68 27t68.5 -27t28.5 -68zM190 303v655h-150v124h150v234h150v-234h200v-124h-200v-655q0 -108 9 -130q23 -55 86 -55q52 0 114 32l58 -124q-96 -42 -182 -42q-85 0 -143.5 41t-80.5 117
q-11 38 -11 161z" />
    <glyph glyph-name="uni0237" unicode="&#x237;" horiz-adv-x="480" 
d="M315 -134q0 -94 -10 -130q-21 -75 -82 -119.5t-143 -44.5q-71 0 -131 19l38 130q45 -15 83 -15q64 0 85 54q10 25 10 111v1211h150v-1216z" />
    <glyph glyph-name="uni0259" unicode="&#x259;" horiz-adv-x="1055" 
d="M485 1098q116 0 205 -43.5t141 -119.5q37 -53 55.5 -126t21 -123.5t2.5 -144.5q0 -77 -1.5 -116.5t-10 -96t-25.5 -102.5q-42 -110 -140.5 -176t-227.5 -66q-127 0 -226.5 66.5t-142.5 176.5q-25 63 -30.5 125.5t-5.5 187.5v33h660q0 65 -2 104.5t-15.5 95t-39.5 92.5
q-69 99 -218 99q-133 0 -286 -73l-57 124q177 83 343 83zM250 449q2 -114 29 -181q27 -69 87.5 -109.5t138.5 -40.5q81 0 140 40.5t85 108.5q27 70 29 182h-509z" />
    <glyph glyph-name="uni02BC" unicode="&#x2bc;" horiz-adv-x="460" 
d="M250 1512q49 0 79.5 -30.5t30.5 -79.5q0 -31 -25 -92l-90 -222h-98l57 213q-28 11 -46 38t-18 63q0 49 30.5 79.5t79.5 30.5z" />
    <glyph glyph-name="circumflex" unicode="&#x2c6;" horiz-adv-x="862" 
d="M571 1222l-140 138l-140 -138h-171l258 274h106l258 -274h-171z" />
    <glyph glyph-name="caron" unicode="&#x2c7;" horiz-adv-x="862" 
d="M291 1496l140 -138l140 138h171l-258 -274h-106l-258 274h171z" />
    <glyph glyph-name="uni02C9" unicode="&#x2c9;" horiz-adv-x="810" 
d="M120 1386h570v-134h-570v134z" />
    <glyph glyph-name="uni02CA" unicode="&#x2ca;" horiz-adv-x="563" 
d="M443 1496l-165 -274h-158l154 274h169z" />
    <glyph glyph-name="uni02CB" unicode="&#x2cb;" horiz-adv-x="563" 
d="M140 1496h169l154 -274h-158z" />
    <glyph glyph-name="breve" unicode="&#x2d8;" horiz-adv-x="750" 
d="M110 1496h140q0 -81 36.5 -122.5t88.5 -41.5t88.5 41.5t36.5 122.5h140q0 -119 -72 -203.5t-193 -84.5t-193 84.5t-72 203.5z" />
    <glyph glyph-name="dotaccent" unicode="&#x2d9;" horiz-adv-x="428" 
d="M214 1435q41 0 67.5 -26.5t26.5 -67.5t-26.5 -67.5t-67.5 -26.5t-67.5 26.5t-26.5 67.5t26.5 67.5t67.5 26.5z" />
    <glyph glyph-name="ring" unicode="&#x2da;" horiz-adv-x="658" 
d="M329 1312q-41 0 -66 -25t-25 -72t25 -72t66 -25t66 25t25 72t-25 72t-66 25zM329 1418q92 0 150.5 -58.5t58.5 -144.5t-58.5 -144.5t-150.5 -58.5t-150.5 58.5t-58.5 144.5t58.5 144.5t150.5 58.5z" />
    <glyph glyph-name="ogonek" unicode="&#x2db;" horiz-adv-x="584" 
d="M244 -216q0 -39 22 -64.5t59 -25.5t74 25l65 -110q-67 -39 -139 -39q-94 0 -149.5 56t-55.5 137q0 186 274 289l52 -52q-35 -13 -67.5 -31t-64 -44t-51 -63t-19.5 -78z" />
    <glyph glyph-name="tilde" unicode="&#x2dc;" horiz-adv-x="858" 
d="M525 1346q48 0 89 70l115 -71q-31 -54 -83.5 -88.5t-120.5 -34.5q-44 0 -81 15t-64 30t-47 15q-48 0 -89 -70l-115 71q31 54 83.5 88.5t120.5 34.5q44 0 81 -15t64 -30t47 -15z" />
    <glyph glyph-name="hungarumlaut" unicode="&#x2dd;" horiz-adv-x="850" 
d="M720 1496l-164 -274h-148l153 274h159zM422 1496l-164 -274h-148l153 274h159z" />
    <glyph glyph-name="uni030F" unicode="&#x30f;" horiz-adv-x="850" 
d="M120 1496h159l153 -274h-148zM418 1496h159l153 -274h-148z" />
    <glyph glyph-name="uni0311" unicode="&#x311;" horiz-adv-x="750" 
d="M620 1222h-140q0 81 -36.5 122.5t-88.5 41.5t-88.5 -41.5t-36.5 -122.5h-140q0 119 72 203.5t193 84.5t193 -84.5t72 -203.5z" />
    <glyph glyph-name="uni0312" unicode="&#x312;" horiz-adv-x="433" 
d="M120 1301q0 32 25 82l72 153h92l-53 -149q57 -21 57 -86q0 -41 -28 -68t-68 -27t-68.5 27t-28.5 68z" />
    <glyph glyph-name="uni0315" unicode="&#x315;" horiz-adv-x="460" 
d="M250 1512q49 0 79.5 -30.5t30.5 -79.5q0 -31 -25 -92l-90 -222h-98l57 213q-28 11 -46 38t-18 63q0 49 30.5 79.5t79.5 30.5z" />
    <glyph glyph-name="dotbelowcomb" unicode="&#x323;" horiz-adv-x="500" 
d="M250 -165q49 0 79.5 -30.5t30.5 -79.5t-30.5 -79.5t-79.5 -30.5t-79.5 30.5t-30.5 79.5t30.5 79.5t79.5 30.5z" />
    <glyph glyph-name="uni0326" unicode="&#x326;" horiz-adv-x="433" 
d="M313 -220q0 -32 -25 -82l-72 -153h-92l53 149q-57 21 -57 86q0 41 28 68t68 27t68.5 -27t28.5 -68z" />
    <glyph glyph-name="tonos" unicode="&#x384;" horiz-adv-x="475" 
d="M354 1496l-96 -274h-126l52 274h170z" />
    <glyph glyph-name="dieresistonos" unicode="&#x385;" horiz-adv-x="890" 
d="M589 1660l-86 -224h-126l52 224h160zM686 1415q37 0 60.5 -23.5t23.5 -60.5t-23.5 -60.5t-60.5 -23.5t-60.5 23.5t-23.5 60.5t23.5 60.5t60.5 23.5zM204 1415q37 0 60.5 -23.5t23.5 -60.5t-23.5 -60.5t-60.5 -23.5t-60.5 23.5t-23.5 60.5t23.5 60.5t60.5 23.5z" />
    <glyph glyph-name="Alphatonos" unicode="&#x386;" horiz-adv-x="1190" 
d="M426 1543l-96 -274h-126l52 274h170zM830 482l-235 723l-235 -723h470zM520 1416h150l480 -1416h-163l-111 342h-562l-111 -342h-163z" />
    <glyph glyph-name="anoteleia" unicode="&#x387;" horiz-adv-x="500" 
d="M270 651q49 0 79.5 -30.5t30.5 -79.5t-30.5 -79.5t-79.5 -30.5t-79.5 30.5t-30.5 79.5t30.5 79.5t79.5 30.5z" />
    <glyph glyph-name="Epsilontonos" unicode="&#x388;" horiz-adv-x="1282" 
d="M362 1416h780v-140h-624v-484h544v-140h-544v-512h624v-140h-780v1416zM272 1543l-96 -274h-126l52 274h170z" />
    <glyph glyph-name="Etatonos" unicode="&#x389;" horiz-adv-x="1462" 
d="M362 1416h156v-624h608v624h156v-1416h-156v652h-608v-652h-156v1416zM272 1543l-96 -274h-126l52 274h170z" />
    <glyph glyph-name="Iotatonos" unicode="&#x38a;" horiz-adv-x="698" 
d="M518 1416v-1416h-156v1416h156zM272 1543l-96 -274h-126l52 274h170z" />
    <glyph glyph-name="Omicrontonos" unicode="&#x38c;" horiz-adv-x="1356" 
d="M728 1435q156 0 267 -69t165 -186q31 -66 46.5 -158t17.5 -152t2 -162t-2 -162t-17.5 -152t-46.5 -158q-54 -117 -165 -186t-267 -69t-267 69t-165 186q-31 66 -46.5 158t-17.5 152t-2 162t2 162t17.5 152t46.5 158q54 117 165 186t267 69zM728 1295q-106 0 -179 -44.5
t-109 -123.5q-25 -53 -37.5 -132.5t-14.5 -136t-2 -150.5t2 -150.5t14.5 -136t37.5 -132.5q36 -79 109 -123.5t179 -44.5t179 44.5t109 123.5q25 53 37.5 132.5t14.5 136t2 150.5t-2 150.5t-14.5 136t-37.5 132.5q-36 79 -109 123.5t-179 44.5zM272 1543l-96 -274h-126
l52 274h170z" />
    <glyph glyph-name="Upsilontonos" unicode="&#x38e;" horiz-adv-x="1426" 
d="M384 1416h169l332 -744l332 744h169l-423 -910v-506h-156v506zM272 1543l-96 -274h-126l52 274h170z" />
    <glyph glyph-name="Omegatonos" unicode="&#x38f;" horiz-adv-x="1364" 
d="M725 1435q116 0 212 -41.5t157 -113.5q73 -85 96 -188t23 -249q0 -130 -3 -209t-13.5 -158t-32 -132t-55.5 -103.5t-87 -99.5h212v-141h-425v109q40 23 72.5 51.5t57 57.5t43 68.5t31 73t21 84t13 88.5t7 98.5t3 102t0.5 110.5q0 55 -2.5 94.5t-10 89.5t-25.5 92t-47 75
q-88 101 -247 101t-247 -101q-53 -62 -69 -147.5t-16 -203.5q0 -69 0.5 -110.5t3 -102t7 -98.5t13 -88.5t21 -84t31 -73t43 -68.5t57 -57.5t72.5 -51.5v-109h-425v141h212q-53 49 -87 99.5t-55.5 103.5t-32 132t-13.5 158t-3 209q0 146 23 249t96 188q61 72 157 113.5
t212 41.5zM292 1543l-96 -274h-126l52 274h170z" />
    <glyph glyph-name="iotadieresistonos" unicode="&#x390;" horiz-adv-x="470" 
d="M379 1633l-86 -224h-126l52 224h160zM476 1388q37 0 60.5 -23.5t23.5 -60.5t-23.5 -60.5t-60.5 -23.5t-60.5 23.5t-23.5 60.5t23.5 60.5t60.5 23.5zM-6 1388q37 0 60.5 -23.5t23.5 -60.5t-23.5 -60.5t-60.5 -23.5t-60.5 23.5t-23.5 60.5t23.5 60.5t60.5 23.5zM310 0h-150
v1082h150v-1082z" />
    <glyph glyph-name="Alpha" unicode="&#x391;" horiz-adv-x="1190" 
d="M830 482l-235 723l-235 -723h470zM520 1416h150l480 -1416h-163l-111 342h-562l-111 -342h-163z" />
    <glyph glyph-name="Beta" unicode="&#x392;" horiz-adv-x="1166" 
d="M336 792h196q49 0 73 0.5t53.5 5.5t51.5 14q68 30 100 92t32 130q0 27 -6 55.5t-20 62t-43.5 62.5t-70.5 45q-44 17 -170 17h-196v-484zM336 652v-512h226q51 0 76 1t57.5 6t57.5 16q73 33 105 98.5t32 134.5q0 33 -7.5 65.5t-23 66t-45.5 61.5t-71 44q-23 9 -53.5 13.5
t-54 5t-73.5 0.5h-226zM846 735q94 -49 147 -135.5t53 -203.5q0 -129 -71.5 -234.5t-203.5 -142.5q-67 -19 -209 -19h-382v1416h352q134 0 194 -16q121 -32 196.5 -131t75.5 -235q0 -97 -39.5 -173.5t-112.5 -125.5z" />
    <glyph glyph-name="Gamma" unicode="&#x393;" horiz-adv-x="990" 
d="M180 0v1416h720v-140h-564v-1276h-156z" />
    <glyph glyph-name="uni0394" unicode="&#x394;" horiz-adv-x="1190" 
d="M940 140l-345 1065l-345 -1065h690zM520 1416h150l480 -1416h-1110z" />
    <glyph glyph-name="Epsilon" unicode="&#x395;" 
d="M180 1416h780v-140h-624v-484h534v-140h-534v-512h624v-140h-780v1416z" />
    <glyph glyph-name="Zeta" unicode="&#x396;" horiz-adv-x="1027" 
d="M105 1276v140h822v-101l-661 -1175h681v-140h-867v101l661 1175h-636z" />
    <glyph glyph-name="Eta" unicode="&#x397;" horiz-adv-x="1280" 
d="M180 1416h156v-624h608v624h156v-1416h-156v652h-608v-652h-156v1416z" />
    <glyph glyph-name="Theta" unicode="&#x398;" horiz-adv-x="1256" 
d="M483 792h328v-140h-328v140zM628 1435q156 0 267 -69t165 -186q31 -66 46.5 -158t17.5 -152t2 -162t-2 -162t-17.5 -152t-46.5 -158q-54 -117 -165 -186t-267 -69t-267 69t-165 186q-31 66 -46.5 158t-17.5 152t-2 162t2 162t17.5 152t46.5 158q54 117 165 186t267 69z
M628 1295q-106 0 -179 -44.5t-109 -123.5q-25 -53 -37.5 -132.5t-14.5 -136t-2 -150.5t2 -150.5t14.5 -136t37.5 -132.5q36 -79 109 -123.5t179 -44.5t179 44.5t109 123.5q25 53 37.5 132.5t14.5 136t2 150.5t-2 150.5t-14.5 136t-37.5 132.5q-36 79 -109 123.5t-179 44.5z
" />
    <glyph glyph-name="Iota" unicode="&#x399;" horiz-adv-x="516" 
d="M336 1416v-1416h-156v1416h156z" />
    <glyph glyph-name="Kappa" unicode="&#x39a;" horiz-adv-x="1179" 
d="M336 601l598 815h177l-505 -681l523 -735h-185l-437 624l-171 -224v-400h-156v1416h156v-815z" />
    <glyph glyph-name="Lambda" unicode="&#x39b;" horiz-adv-x="1190" 
d="M1150 0h-163l-392 1205l-392 -1205h-163l480 1416h150z" />
    <glyph glyph-name="Mu" unicode="&#x39c;" horiz-adv-x="1494" 
d="M180 0v1416h156l411 -839l411 839h156v-1416h-156v1122l-340 -701h-142l-340 701v-1122h-156z" />
    <glyph glyph-name="Nu" unicode="&#x39d;" horiz-adv-x="1294" 
d="M958 1416h156v-1416h-157l-621 1136v-1136h-156v1416h157l621 -1136v1136z" />
    <glyph glyph-name="Xi" unicode="&#x39e;" horiz-adv-x="1017" 
d="M201 792h615v-140h-615v140zM140 140h737v-140h-737v140zM140 1416h737v-140h-737v140z" />
    <glyph glyph-name="Omicron" unicode="&#x39f;" horiz-adv-x="1256" 
d="M628 1435q156 0 267 -69t165 -186q31 -66 46.5 -158t17.5 -152t2 -162t-2 -162t-17.5 -152t-46.5 -158q-54 -117 -165 -186t-267 -69t-267 69t-165 186q-31 66 -46.5 158t-17.5 152t-2 162t2 162t17.5 152t46.5 158q54 117 165 186t267 69zM628 1295q-106 0 -179 -44.5
t-109 -123.5q-25 -53 -37.5 -132.5t-14.5 -136t-2 -150.5t2 -150.5t14.5 -136t37.5 -132.5q36 -79 109 -123.5t179 -44.5t179 44.5t109 123.5q25 53 37.5 132.5t14.5 136t2 150.5t-2 150.5t-14.5 136t-37.5 132.5q-36 79 -109 123.5t-179 44.5z" />
    <glyph glyph-name="Pi" unicode="&#x3a0;" horiz-adv-x="1260" 
d="M180 1416h900v-1416h-156v1276h-588v-1276h-156v1416z" />
    <glyph glyph-name="Rho" unicode="&#x3a1;" horiz-adv-x="1126" 
d="M482 1276h-146v-620h146q55 0 81.5 0.5t61.5 5.5t62 15q90 33 136.5 113.5t46.5 175.5t-46.5 175.5t-136.5 113.5q-27 10 -62 15t-61.5 5.5t-81.5 0.5zM482 1416q145 0 213 -16q155 -37 243 -157t88 -277t-88 -277t-243 -157q-68 -16 -213 -16h-146v-516h-156v1416h302z
" />
    <glyph glyph-name="Sigma" unicode="&#x3a3;" horiz-adv-x="980" 
d="M632 694l-338 -554h586v-140h-780v102l379 620l-379 592v102h780v-140h-586l338 -521v-61z" />
    <glyph glyph-name="Tau" unicode="&#x3a4;" horiz-adv-x="1048" 
d="M60 1417h928v-140h-386v-1277h-156v1277h-386v140z" />
    <glyph glyph-name="Upsilon" unicode="&#x3a5;" horiz-adv-x="1082" 
d="M40 1416h169l332 -744l332 744h169l-423 -910v-506h-156v506z" />
    <glyph glyph-name="Phi" unicode="&#x3a6;" horiz-adv-x="1406" 
d="M115 708q0 152 67 266.5t180.5 176t262.5 74.5v191h156v-191q149 -13 262.5 -74.5t180.5 -176t67 -266.5t-67 -266.5t-180.5 -176t-262.5 -74.5v-191h-156v191q-149 13 -262.5 74.5t-180.5 176t-67 266.5zM625 1079q-164 -18 -259 -111t-95 -260t95 -260t259 -111v742z
M781 337q164 18 259 111t95 260t-95 260t-259 111v-742z" />
    <glyph glyph-name="Chi" unicode="&#x3a7;" horiz-adv-x="1074" 
d="M55 1416h175l307 -570l307 570h175l-394 -694l409 -722h-175l-322 598l-322 -598h-175l409 722z" />
    <glyph glyph-name="Psi" unicode="&#x3a8;" horiz-adv-x="1416" 
d="M786 462q149 13 225 105q64 79 81.5 168t17.5 233v448h156v-448q0 -79 -2.5 -123.5t-13.5 -115t-39 -130.5t-74 -115q-122 -148 -351 -163v-321h-156v321q-229 15 -351 163q-46 55 -74 115t-39 130.5t-13.5 115t-2.5 123.5v448h156v-448q0 -144 17.5 -233t81.5 -168
q76 -92 225 -105v954h156v-954z" />
    <glyph glyph-name="uni03A9" unicode="&#x3a9;" horiz-adv-x="1310" 
d="M655 1435q116 0 212 -41.5t157 -113.5q73 -85 96 -188t23 -249q0 -130 -3 -209t-13.5 -158t-32 -132t-55.5 -103.5t-87 -99.5h212v-141h-425v109q40 23 72.5 51.5t57 57.5t43 68.5t31 73t21 84t13 88.5t7 98.5t3 102t0.5 110.5q0 55 -2.5 94.5t-10 89.5t-25.5 92t-47 75
q-88 101 -247 101t-247 -101q-53 -62 -69 -147.5t-16 -203.5q0 -69 0.5 -110.5t3 -102t7 -98.5t13 -88.5t21 -84t31 -73t43 -68.5t57 -57.5t72.5 -51.5v-109h-425v141h212q-53 49 -87 99.5t-55.5 103.5t-32 132t-13.5 158t-3 209q0 146 23 249t96 188q61 72 157 113.5
t212 41.5z" />
    <glyph glyph-name="Iotadieresis" unicode="&#x3aa;" horiz-adv-x="516" 
d="M449 1769q41 0 67.5 -26.5t26.5 -67.5t-26.5 -67.5t-67.5 -26.5t-67.5 26.5t-26.5 67.5t26.5 67.5t67.5 26.5zM67 1769q41 0 67.5 -26.5t26.5 -67.5t-26.5 -67.5t-67.5 -26.5t-67.5 26.5t-26.5 67.5t26.5 67.5t67.5 26.5zM336 1416v-1416h-156v1416h156z" />
    <glyph glyph-name="Upsilondieresis" unicode="&#x3ab;" horiz-adv-x="1082" 
d="M732 1769q41 0 67.5 -26.5t26.5 -67.5t-26.5 -67.5t-67.5 -26.5t-67.5 26.5t-26.5 67.5t26.5 67.5t67.5 26.5zM350 1769q41 0 67.5 -26.5t26.5 -67.5t-26.5 -67.5t-67.5 -26.5t-67.5 26.5t-26.5 67.5t26.5 67.5t67.5 26.5zM40 1416h169l332 -744l332 744h169l-423 -910
v-506h-156v506z" />
    <glyph glyph-name="alphatonos" unicode="&#x3ac;" horiz-adv-x="1115" 
d="M676 1496l-96 -274h-126l52 274h170zM540 964q-135 0 -205 -99q-28 -39 -42 -97.5t-16 -102.5t-2 -124t2 -124t16 -102.5t42 -97.5q70 -99 205 -99t205 99q28 39 42 97.5t16 102.5t2 124t-2 124t-16 102.5t-42 97.5q-70 99 -205 99zM520 1098q178 0 285 -131v115h150
v-1082h-150v117q-110 -133 -285 -133q-103 0 -183 43.5t-132 116.5q-28 42 -46 89.5t-24.5 106t-8 96.5t-1.5 105q0 63 2 104t9 97t24.5 105t44.5 91q50 73 131 116.5t184 43.5z" />
    <glyph glyph-name="epsilontonos" unicode="&#x3ad;" horiz-adv-x="905" 
d="M641 1496l-96 -274h-126l52 274h170zM485 1098q133 0 326 -67l-44 -128q-171 61 -282 61q-113 0 -167 -52.5t-54 -118.5q0 -42 23 -80.5t61 -59.5q35 -20 79 -25.5t136 -5.5h109v-134h-110q-91 0 -133.5 -5t-79.5 -24q-42 -22 -70.5 -62.5t-28.5 -93.5q0 -27 10 -55
t34 -59t73.5 -51t117.5 -20q114 0 296 64l44 -128q-202 -70 -340 -70q-95 0 -170.5 28.5t-121 75t-69.5 102t-24 113.5q0 84 42 149.5t114 104.5q-67 39 -104.5 101.5t-37.5 134.5q0 126 101 215.5t270 89.5z" />
    <glyph glyph-name="etatonos" unicode="&#x3ae;" 
d="M731 1496l-96 -274h-126l52 274h170zM575 1098q100 0 179 -40.5t127 -109.5q33 -49 48.5 -112.5t18 -110t2.5 -139.5v-1000h-150v1000q0 85 -1.5 124t-12.5 85.5t-34 78.5q-64 90 -197 90q-129 0 -194 -90q-24 -33 -35.5 -79.5t-13.5 -85t-2 -123.5v-586h-150v1082h150
v-112q105 128 265 128z" />
    <glyph glyph-name="iotatonos" unicode="&#x3af;" horiz-adv-x="470" 
d="M346 1494l-96 -274h-126l52 274h170zM310 0h-150v1082h150v-1082z" />
    <glyph glyph-name="upsilondieresistonos" unicode="&#x3b0;" horiz-adv-x="1090" 
d="M689 1660l-86 -224h-126l52 224h160zM786 1415q37 0 60.5 -23.5t23.5 -60.5t-23.5 -60.5t-60.5 -23.5t-60.5 23.5t-23.5 60.5t23.5 60.5t60.5 23.5zM304 1415q37 0 60.5 -23.5t23.5 -60.5t-23.5 -60.5t-60.5 -23.5t-60.5 23.5t-23.5 60.5t23.5 60.5t60.5 23.5zM150 1082
h150v-625q0 -135 15 -181q25 -77 87 -117.5t143 -40.5t143 40.5t87 117.5q15 46 15 181v625h150v-635q0 -53 -1 -81.5t-7 -70.5t-19 -76q-42 -114 -137.5 -174.5t-230.5 -60.5t-230.5 60.5t-137.5 174.5q-13 34 -19 76t-7 70.5t-1 81.5v635z" />
    <glyph glyph-name="alpha" unicode="&#x3b1;" horiz-adv-x="1115" 
d="M540 964q-135 0 -205 -99q-28 -39 -42 -97.5t-16 -102.5t-2 -124t2 -124t16 -102.5t42 -97.5q70 -99 205 -99t205 99q28 39 42 97.5t16 102.5t2 124t-2 124t-16 102.5t-42 97.5q-70 99 -205 99zM520 1098q178 0 285 -131v115h150v-1082h-150v117q-110 -133 -285 -133
q-103 0 -183 43.5t-132 116.5q-28 42 -46 89.5t-24.5 106t-8 96.5t-1.5 105q0 63 2 104t9 97t24.5 105t44.5 91q50 73 131 116.5t184 43.5z" />
    <glyph glyph-name="beta" unicode="&#x3b2;" horiz-adv-x="1120" 
d="M310 35v-449h-150v1395q0 48 0.5 73.5t5.5 68.5t15 72t29.5 64.5t47.5 64.5q103 108 272 108q161 0 265.5 -101.5t104.5 -261.5q0 -174 -127 -266q111 -51 174 -150t63 -234q0 -187 -124.5 -311t-320.5 -124q-122 0 -255 51zM310 183q138 -65 255 -65q134 0 214.5 84.5
t80.5 216.5q0 74 -27 136t-72 100q-45 39 -103.5 52t-155.5 13v134q73 0 111.5 8.5t70.5 37.5q66 59 66 169q0 102 -60.5 165.5t-159.5 63.5q-98 0 -158 -62q-29 -30 -43.5 -74t-16.5 -78.5t-2 -102.5v-798z" />
    <glyph glyph-name="gamma" unicode="&#x3b3;" horiz-adv-x="990" 
d="M570 0v-414h-150v414l-360 1082h157l278 -899l278 899h157z" />
    <glyph glyph-name="delta" unicode="&#x3b4;" horiz-adv-x="1070" 
d="M270 486q0 -183 48 -259q68 -109 217 -109q147 0 217 109q48 75 48 259q0 96 -14 164.5t-60 118.5q-35 37 -98 61.5t-95 24.5q-22 0 -61.5 -11.5t-90 -44.5t-72.5 -79q-39 -79 -39 -234zM120 486q0 180 57 280t208 143q-65 37 -104.5 100t-39.5 145q0 123 84 200.5
t218 77.5q123 0 262 -47l-41 -129q-124 42 -221 42q-47 0 -79.5 -15.5t-47 -40t-20 -46t-5.5 -42.5q0 -16 3 -32t13 -37t26.5 -38t46.5 -32.5t71 -24.5q129 -27 199.5 -66t115.5 -99q48 -64 66 -144.5t18 -194.5q0 -119 -18 -202t-67 -148q-52 -70 -137.5 -111t-192.5 -41
t-192.5 41t-137.5 111q-49 65 -67 148t-18 202z" />
    <glyph glyph-name="epsilon" unicode="&#x3b5;" horiz-adv-x="905" 
d="M485 1098q133 0 326 -67l-44 -128q-171 61 -282 61q-113 0 -167 -52.5t-54 -118.5q0 -42 23 -80.5t61 -59.5q35 -20 79 -25.5t136 -5.5h109v-134h-110q-91 0 -133.5 -5t-79.5 -24q-42 -22 -70.5 -62.5t-28.5 -93.5q0 -27 10 -55t34 -59t73.5 -51t117.5 -20q114 0 296 64
l44 -128q-202 -70 -340 -70q-95 0 -170.5 28.5t-121 75t-69.5 102t-24 113.5q0 84 42 149.5t114 104.5q-67 39 -104.5 101.5t-37.5 134.5q0 126 101 215.5t270 89.5z" />
    <glyph glyph-name="zeta" unicode="&#x3b6;" horiz-adv-x="900" 
d="M586 117q93 -18 148.5 -67t55.5 -129q0 -33 -11.5 -70t-22 -58t-30.5 -57l-110 51q34 73 34 114q0 43 -30.5 62t-85.5 26q-99 13 -165.5 34t-120.5 62q-69 51 -108.5 132t-39.5 176q0 129 55 257t153 267q118 167 279 365h-454v134h663v-106q-237 -291 -335 -426
q-100 -138 -155.5 -258t-55.5 -233q0 -126 87 -200q23 -20 59 -34.5t57.5 -19.5t73 -13t59.5 -9z" />
    <glyph glyph-name="eta" unicode="&#x3b7;" 
d="M575 1098q100 0 179 -40.5t127 -109.5q33 -49 48.5 -112.5t18 -110t2.5 -139.5v-1000h-150v1000q0 85 -1.5 124t-12.5 85.5t-34 78.5q-64 90 -197 90q-129 0 -194 -90q-24 -33 -35.5 -79.5t-13.5 -85t-2 -123.5v-586h-150v1082h150v-112q105 128 265 128z" />
    <glyph glyph-name="theta" unicode="&#x3b8;" horiz-adv-x="1090" 
d="M545 1298q-179 0 -224 -173q-19 -70 -21 -338h490q-2 268 -21 338q-45 173 -224 173zM545 1432q144 0 242 -76t128 -200q25 -103 25 -448t-25 -448q-30 -124 -128 -200t-242 -76t-242 76t-128 200q-25 103 -25 448t25 448q30 124 128 200t242 76zM300 657q0 -284 21 -366
q45 -173 224 -173t224 173q21 82 21 366h-490z" />
    <glyph glyph-name="iota" unicode="&#x3b9;" horiz-adv-x="470" 
d="M310 0h-150v1082h150v-1082z" />
    <glyph glyph-name="kappa" unicode="&#x3ba;" horiz-adv-x="995" 
d="M180 1082h150v-593l439 593h176l-401 -535l411 -547h-180l-325 443l-120 -156v-287h-150v1082z" />
    <glyph glyph-name="lambda" unicode="&#x3bb;" horiz-adv-x="987" 
d="M472 1496l455 -1496h-155l-252 888l-303 -888h-157l392 1084l-125 412h145z" />
    <glyph glyph-name="uni03BC" unicode="&#x3bc;" horiz-adv-x="1110" 
d="M950 0h-150v115q-46 -62 -111 -96.5t-134 -34.5q-148 0 -245 128v-526h-150v1496h150v-586q0 -85 2 -123.5t13.5 -85t35.5 -79.5q65 -90 194 -90q133 0 197 90q33 46 40.5 104.5t7.5 179.5v590h150v-1082z" />
    <glyph glyph-name="nu" unicode="&#x3bd;" horiz-adv-x="990" 
d="M443 0l-363 1082h157l278 -890l278 890h157l-363 -1082h-144z" />
    <glyph glyph-name="xi" unicode="&#x3be;" horiz-adv-x="940" 
d="M524 1432q86 0 161 -17t170 -50l-43 -128q-179 61 -288 61q-114 0 -171 -63q-53 -58 -53 -150q0 -111 69 -172q29 -26 69 -38.5t72 -14.5t98 -2h120v-134h-120q-73 0 -107.5 -2.5t-78.5 -18t-76 -48.5q-76 -78 -76 -228q0 -120 53 -196q30 -44 76.5 -68.5t83.5 -30t90 -9
t73 -7.5q91 -17 147.5 -66.5t56.5 -128.5q0 -33 -11.5 -70t-22 -58t-30.5 -57l-110 51q34 73 34 114q0 19 -6 33t-19.5 23.5t-26.5 15.5t-36 9.5t-39.5 5t-44.5 3.5q-113 7 -198 45.5t-145 124.5q-75 110 -75 266q0 261 193 366q-79 45 -121 119.5t-42 172.5q0 138 84 232
q104 115 290 115z" />
    <glyph glyph-name="omicron" unicode="&#x3bf;" 
d="M570 964q-130 0 -199 -79q-27 -31 -43.5 -69.5t-23 -90t-8 -86t-1.5 -98.5t1.5 -98.5t8 -86t23 -90t43.5 -69.5q69 -79 199 -79t199 79q27 31 43.5 69.5t23 90t8 86t1.5 98.5t-1.5 98.5t-8 86t-23 90t-43.5 69.5q-69 79 -199 79zM570 1098q99 0 180 -34.5t133 -91.5
q40 -44 64.5 -95.5t34 -115t11.5 -105t2 -115.5t-2 -115.5t-11.5 -105t-34 -115t-64.5 -95.5q-52 -57 -133 -91.5t-180 -34.5t-180 34.5t-133 91.5q-40 44 -64.5 95.5t-34 115t-11.5 105t-2 115.5t2 115.5t11.5 105t34 115t64.5 95.5q52 57 133 91.5t180 34.5z" />
    <glyph glyph-name="pi" unicode="&#x3c0;" horiz-adv-x="1200" 
d="M100 1082h1000v-134h-140v-948h-150v948h-420v-948h-150v948h-140v134z" />
    <glyph glyph-name="rho" unicode="&#x3c1;" horiz-adv-x="1095" 
d="M555 964q-136 0 -205 -98q-28 -39 -42 -99t-16 -102.5t-2 -123.5q0 -80 2 -124t16 -102.5t42 -97.5q70 -99 205 -99t205 99q28 39 42 97.5t16 102.5t2 124q0 81 -2 123.5t-16 102.5t-42 99q-69 98 -205 98zM555 1098q107 0 193.5 -44t137.5 -116q30 -43 48.5 -89
t25.5 -104t8.5 -95.5t1.5 -108.5q0 -67 -1.5 -105t-8 -96.5t-24.5 -106t-46 -89.5q-52 -73 -132 -116.5t-183 -43.5q-175 0 -285 133v-531h-150v955q0 71 1.5 108.5t8.5 95.5t25.5 104t48.5 89q51 72 137.5 116t193.5 44z" />
    <glyph glyph-name="sigma1" unicode="&#x3c2;" horiz-adv-x="938" 
d="M751 -264l-110 51q34 73 34 114q0 27 -11 44t-40 27t-45.5 13t-60.5 8q-10 1 -15 2q-206 22 -301 164q-35 52 -52.5 121t-21 121.5t-3.5 140.5q0 130 13 216t56 157q49 82 137.5 132.5t203.5 50.5q149 0 323 -99l-66 -121q-147 86 -257 86q-141 0 -209 -113
q-32 -53 -41.5 -124t-9.5 -185q0 -77 2.5 -121t15 -99t37.5 -93q20 -31 48 -51.5t61 -31t59 -15.5t62 -8.5t51 -6.5q93 -18 148.5 -66.5t55.5 -128.5q0 -33 -11.5 -70t-22 -58t-30.5 -57z" />
    <glyph glyph-name="sigma" unicode="&#x3c3;" horiz-adv-x="1120" 
d="M550 1098q58 0 116 -16h374v-134h-182q34 -35 57 -77t34.5 -77t17.5 -86.5t7 -81t1 -85.5q0 -74 -2 -115.5t-11.5 -105t-34 -115t-64.5 -95.5q-52 -57 -133 -91.5t-180 -34.5t-180 34.5t-133 91.5q-40 44 -64.5 95.5t-34 115t-11.5 105t-2 115.5t2 115.5t11.5 105t34 115
t64.5 95.5q52 57 133 91.5t180 34.5zM550 964q-130 0 -199 -79q-27 -31 -43.5 -69.5t-23 -90t-8 -86t-1.5 -98.5t1.5 -98.5t8 -86t23 -90t43.5 -69.5q69 -79 199 -79t199 79q27 31 43.5 69.5t23 90t8 86t1.5 98.5t-1.5 98.5t-8 86t-23 90t-43.5 69.5q-69 79 -199 79z" />
    <glyph glyph-name="tau" unicode="&#x3c4;" horiz-adv-x="916" 
d="M383 2v946h-303v134h756v-134h-303v-946h-150z" />
    <glyph glyph-name="upsilon" unicode="&#x3c5;" horiz-adv-x="1090" 
d="M150 1082h150v-625q0 -135 15 -181q25 -77 87 -117.5t143 -40.5t143 40.5t87 117.5q15 46 15 181v625h150v-635q0 -53 -1 -81.5t-7 -70.5t-19 -76q-42 -114 -137.5 -174.5t-230.5 -60.5t-230.5 60.5t-137.5 174.5q-13 34 -19 76t-7 70.5t-1 81.5v635z" />
    <glyph glyph-name="phi" unicode="&#x3c6;" horiz-adv-x="1450" 
d="M800 -414h-150v401q-229 25 -374.5 178.5t-145.5 390.5q0 173 80 306.5t213 199.5l64 -123q-92 -47 -149.5 -149.5t-57.5 -233.5q0 -179 102 -294t268 -138v700q0 77 10.5 120t37.5 76q66 78 179 78q157 0 296 -146q147 -155 147 -393q0 -239 -144.5 -393t-375.5 -179
v-401zM800 124q168 24 269 139.5t101 295.5q0 200 -132 326q-83 79 -161 79q-36 0 -58 -24q-12 -15 -15.5 -37.5t-3.5 -78.5v-700z" />
    <glyph glyph-name="chi" unicode="&#x3c7;" horiz-adv-x="968" 
d="M918 -414h-163l-271 611l-271 -611h-163l351 756l-344 740h163l264 -596l264 596h163l-344 -740z" />
    <glyph glyph-name="psi" unicode="&#x3c8;" horiz-adv-x="1390" 
d="M620 -14q-289 12 -406 228q-26 48 -42.5 101.5t-22.5 117t-7.5 103.5t-1.5 112v434h150v-434q0 -90 2 -139.5t16 -117t41 -118.5q77 -142 271 -152v961h150v-961q194 10 271 152q27 51 41 118.5t16 117t2 139.5v434h150v-434q0 -72 -1.5 -112t-7.5 -103.5t-22.5 -117
t-42.5 -101.5q-117 -216 -406 -228v-400h-150v400z" />
    <glyph glyph-name="omega" unicode="&#x3c9;" horiz-adv-x="1618" 
d="M734 774h150v-306v-6q0 -101 8 -145q13 -72 50 -120q30 -39 75 -59t94 -20t94 20q47 21 76 59q31 40 45 98q12 49 12 121q0 98 -27 337q-20 178 -40 321l148 16q29 -210 42 -323q27 -237 27 -351q0 -85 -15 -149q-19 -80 -70 -146q-53 -67 -130 -102q-78 -35 -162 -35
q-100 0 -178 42.5t-124 116.5q-46 -74 -124 -116.5t-178 -42.5q-84 0 -162 35q-77 35 -130 102q-51 66 -70 146q-15 64 -15 149q0 114 27 351q13 113 42 323l148 -16q-20 -143 -40 -321q-27 -239 -27 -337q0 -72 12 -121q14 -58 45 -98q29 -38 76 -59q45 -20 94 -20t94 20
t75 59q37 48 50 120q8 44 8 145v6v306z" />
    <glyph glyph-name="iotadieresis" unicode="&#x3ca;" horiz-adv-x="470" 
d="M426 1408q41 0 67.5 -26.5t26.5 -67.5t-26.5 -67.5t-67.5 -26.5t-67.5 26.5t-26.5 67.5t26.5 67.5t67.5 26.5zM44 1408q41 0 67.5 -26.5t26.5 -67.5t-26.5 -67.5t-67.5 -26.5t-67.5 26.5t-26.5 67.5t26.5 67.5t67.5 26.5zM310 0h-150v1082h150v-1082z" />
    <glyph glyph-name="upsilondieresis" unicode="&#x3cb;" horiz-adv-x="1090" 
d="M736 1435q41 0 67.5 -26.5t26.5 -67.5t-26.5 -67.5t-67.5 -26.5t-67.5 26.5t-26.5 67.5t26.5 67.5t67.5 26.5zM354 1435q41 0 67.5 -26.5t26.5 -67.5t-26.5 -67.5t-67.5 -26.5t-67.5 26.5t-26.5 67.5t26.5 67.5t67.5 26.5zM150 1082h150v-625q0 -135 15 -181
q25 -77 87 -117.5t143 -40.5t143 40.5t87 117.5q15 46 15 181v625h150v-635q0 -53 -1 -81.5t-7 -70.5t-19 -76q-42 -114 -137.5 -174.5t-230.5 -60.5t-230.5 60.5t-137.5 174.5q-13 34 -19 76t-7 70.5t-1 81.5v635z" />
    <glyph glyph-name="omicrontonos" unicode="&#x3cc;" 
d="M706 1496l-96 -274h-126l52 274h170zM570 964q-130 0 -199 -79q-27 -31 -43.5 -69.5t-23 -90t-8 -86t-1.5 -98.5t1.5 -98.5t8 -86t23 -90t43.5 -69.5q69 -79 199 -79t199 79q27 31 43.5 69.5t23 90t8 86t1.5 98.5t-1.5 98.5t-8 86t-23 90t-43.5 69.5q-69 79 -199 79z
M570 1098q99 0 180 -34.5t133 -91.5q40 -44 64.5 -95.5t34 -115t11.5 -105t2 -115.5t-2 -115.5t-11.5 -105t-34 -115t-64.5 -95.5q-52 -57 -133 -91.5t-180 -34.5t-180 34.5t-133 91.5q-40 44 -64.5 95.5t-34 115t-11.5 105t-2 115.5t2 115.5t11.5 105t34 115t64.5 95.5
q52 57 133 91.5t180 34.5z" />
    <glyph glyph-name="upsilontonos" unicode="&#x3cd;" horiz-adv-x="1090" 
d="M701 1496l-96 -274h-126l52 274h170zM150 1082h150v-625q0 -135 15 -181q25 -77 87 -117.5t143 -40.5t143 40.5t87 117.5q15 46 15 181v625h150v-635q0 -53 -1 -81.5t-7 -70.5t-19 -76q-42 -114 -137.5 -174.5t-230.5 -60.5t-230.5 60.5t-137.5 174.5q-13 34 -19 76
t-7 70.5t-1 81.5v635z" />
    <glyph glyph-name="omegatonos" unicode="&#x3ce;" horiz-adv-x="1618" 
d="M965 1497l-96 -274h-126l52 274h170zM734 774h150v-306v-6q0 -101 8 -145q13 -72 50 -120q30 -39 75 -59t94 -20t94 20q47 21 76 59q31 40 45 98q12 49 12 121q0 98 -27 337q-20 178 -40 321l148 16q29 -210 42 -323q27 -237 27 -351q0 -85 -15 -149q-19 -80 -70 -146
q-53 -67 -130 -102q-78 -35 -162 -35q-100 0 -178 42.5t-124 116.5q-46 -74 -124 -116.5t-178 -42.5q-84 0 -162 35q-77 35 -130 102q-51 66 -70 146q-15 64 -15 149q0 114 27 351q13 113 42 323l148 -16q-20 -143 -40 -321q-27 -239 -27 -337q0 -72 12 -121q14 -58 45 -98
q29 -38 76 -59q45 -20 94 -20t94 20t75 59q37 48 50 120q8 44 8 145v6v306z" />
    <glyph glyph-name="uni0410" unicode="&#x410;" horiz-adv-x="1190" 
d="M830 482l-235 723l-235 -723h470zM520 1416h150l480 -1416h-163l-111 342h-562l-111 -342h-163z" />
    <glyph glyph-name="uni0412" unicode="&#x412;" horiz-adv-x="1166" 
d="M336 792h196q49 0 73 0.5t53.5 5.5t51.5 14q68 30 100 92t32 130q0 27 -6 55.5t-20 62t-43.5 62.5t-70.5 45q-44 17 -170 17h-196v-484zM336 652v-512h226q51 0 76 1t57.5 6t57.5 16q73 33 105 98.5t32 134.5q0 33 -7.5 65.5t-23 66t-45.5 61.5t-71 44q-23 9 -53.5 13.5
t-54 5t-73.5 0.5h-226zM846 735q94 -49 147 -135.5t53 -203.5q0 -129 -71.5 -234.5t-203.5 -142.5q-67 -19 -209 -19h-382v1416h352q134 0 194 -16q121 -32 196.5 -131t75.5 -235q0 -97 -39.5 -173.5t-112.5 -125.5z" />
    <glyph glyph-name="uni0413" unicode="&#x413;" horiz-adv-x="990" 
d="M180 0v1416h720v-140h-564v-1276h-156z" />
    <glyph glyph-name="uni0415" unicode="&#x415;" 
d="M180 1416h780v-140h-624v-484h534v-140h-534v-512h624v-140h-780v1416z" />
    <glyph glyph-name="uni0418" unicode="&#x418;" horiz-adv-x="1294" 
d="M336 1416v-1136l621 1136h157v-1416h-156v1136l-621 -1136h-157v1416h156z" />
    <glyph glyph-name="uni041C" unicode="&#x41c;" horiz-adv-x="1494" 
d="M180 0v1416h156l411 -839l411 839h156v-1416h-156v1122l-340 -701h-142l-340 701v-1122h-156z" />
    <glyph glyph-name="uni041D" unicode="&#x41d;" horiz-adv-x="1280" 
d="M180 1416h156v-624h608v624h156v-1416h-156v652h-608v-652h-156v1416z" />
    <glyph glyph-name="uni041E" unicode="&#x41e;" horiz-adv-x="1256" 
d="M628 1435q156 0 267 -69t165 -186q31 -66 46.5 -158t17.5 -152t2 -162t-2 -162t-17.5 -152t-46.5 -158q-54 -117 -165 -186t-267 -69t-267 69t-165 186q-31 66 -46.5 158t-17.5 152t-2 162t2 162t17.5 152t46.5 158q54 117 165 186t267 69zM628 1295q-106 0 -179 -44.5
t-109 -123.5q-25 -53 -37.5 -132.5t-14.5 -136t-2 -150.5t2 -150.5t14.5 -136t37.5 -132.5q36 -79 109 -123.5t179 -44.5t179 44.5t109 123.5q25 53 37.5 132.5t14.5 136t2 150.5t-2 150.5t-14.5 136t-37.5 132.5q-36 79 -109 123.5t-179 44.5z" />
    <glyph glyph-name="uni041F" unicode="&#x41f;" horiz-adv-x="1260" 
d="M180 1416h900v-1416h-156v1276h-588v-1276h-156v1416z" />
    <glyph glyph-name="uni0420" unicode="&#x420;" horiz-adv-x="1126" 
d="M482 1276h-146v-620h146q55 0 81.5 0.5t61.5 5.5t62 15q90 33 136.5 113.5t46.5 175.5t-46.5 175.5t-136.5 113.5q-27 10 -62 15t-61.5 5.5t-81.5 0.5zM482 1416q145 0 213 -16q155 -37 243 -157t88 -277t-88 -277t-243 -157q-68 -16 -213 -16h-146v-516h-156v1416h302z
" />
    <glyph glyph-name="uni0421" unicode="&#x421;" horiz-adv-x="1114" 
d="M618 1435q202 0 374 -121l-80 -120q-142 101 -294 101q-208 0 -282 -170q-32 -73 -41 -173t-9 -244t9 -244t41 -173q74 -170 282 -170q184 0 324 119l88 -116q-182 -143 -412 -143q-155 0 -264.5 69t-162.5 188q-27 60 -41.5 146.5t-17 153t-2.5 170.5q0 160 11.5 273
t49.5 197q55 120 164.5 188.5t262.5 68.5z" />
    <glyph glyph-name="uni0422" unicode="&#x422;" horiz-adv-x="1048" 
d="M60 1417h928v-140h-386v-1277h-156v1277h-386v140z" />
    <glyph glyph-name="uni0424" unicode="&#x424;" horiz-adv-x="1406" 
d="M115 708q0 152 67 266.5t180.5 176t262.5 74.5v191h156v-191q149 -13 262.5 -74.5t180.5 -176t67 -266.5t-67 -266.5t-180.5 -176t-262.5 -74.5v-191h-156v191q-149 13 -262.5 74.5t-180.5 176t-67 266.5zM625 1079q-164 -18 -259 -111t-95 -260t95 -260t259 -111v742z
M781 337q164 18 259 111t95 260t-95 260t-259 111v-742z" />
    <glyph glyph-name="uni0425" unicode="&#x425;" horiz-adv-x="1074" 
d="M55 1416h175l307 -570l307 570h175l-394 -694l409 -722h-175l-322 598l-322 -598h-175l409 722z" />
    <glyph glyph-name="uni042F" unicode="&#x42f;" horiz-adv-x="1141" 
d="M634 1416h327v-1416h-156v556h-292l-254 -556h-169l277 592q-114 45 -183 151t-69 243q0 136 68 241.5t181 151.5q43 18 88.5 26t79 9.5t102.5 1.5zM634 1276q-55 0 -81.5 -1t-61 -6.5t-61.5 -16.5q-45 -19 -77.5 -51.5t-49.5 -70.5t-24.5 -73.5t-7.5 -70.5t7.5 -70.5
t24.5 -73.5t49.5 -70.5t77.5 -51.5q27 -11 61.5 -16.5t61 -6.5t81.5 -1h171v580h-171z" />
    <glyph glyph-name="uni0430" unicode="&#x430;" horiz-adv-x="1020" 
d="M250 321q0 -85 56.5 -144t158.5 -59q82 0 146 40t90 121q9 29 13.5 67t5 71.5t0.5 109.5h-145q-144 0 -190 -14q-65 -20 -100 -71.5t-35 -120.5zM870 651v-651h-150v115q-114 -131 -275 -131q-152 0 -248.5 96.5t-96.5 240.5q0 108 61.5 191.5t173.5 117.5q33 10 73 15
t70 5.5t91 0.5h151q0 80 -2.5 114.5t-13.5 63.5q-25 67 -84 101t-135 34q-111 0 -263 -73l-57 124q182 83 320 83q133 0 233 -64t136 -183q16 -53 16 -200z" />
    <glyph glyph-name="uni0435" unicode="&#x435;" horiz-adv-x="1055" 
d="M550 -16q-116 0 -205 43.5t-141 119.5q-37 53 -55.5 126t-21 123.5t-2.5 144.5q0 77 1.5 116.5t10 96t25.5 102.5q42 110 140.5 176t227.5 66q127 0 226.5 -66.5t142.5 -176.5q25 -63 30.5 -125.5t5.5 -187.5v-33h-660q0 -65 2 -104.5t15.5 -95t39.5 -92.5
q69 -99 218 -99q133 0 286 73l57 -124q-177 -83 -343 -83zM785 633q-2 114 -29 181q-27 69 -87.5 109.5t-138.5 40.5q-81 0 -140 -40.5t-85 -108.5q-27 -70 -29 -182h509z" />
    <glyph glyph-name="uni0437" unicode="&#x437;" horiz-adv-x="905" 
d="M420 1098q169 0 270 -89.5t101 -215.5q0 -72 -37.5 -134.5t-104.5 -101.5q72 -39 114 -104.5t42 -149.5q0 -58 -24 -113.5t-69.5 -102t-121 -75t-170.5 -28.5q-138 0 -340 70l44 128q182 -64 296 -64q68 0 117.5 20t73.5 51t34 59t10 55q0 53 -28.5 93.5t-70.5 62.5
q-37 19 -79.5 24t-133.5 5h-110v134h109q92 0 136 5.5t79 25.5q38 21 61 59.5t23 80.5q0 66 -54 118.5t-167 52.5q-111 0 -282 -61l-44 128q193 67 326 67z" />
    <glyph glyph-name="uni043E" unicode="&#x43e;" 
d="M550 964q-130 0 -199 -79q-27 -31 -43.5 -69.5t-23 -90t-8 -86t-1.5 -98.5t1.5 -98.5t8 -86t23 -90t43.5 -69.5q69 -79 199 -79t199 79q27 31 43.5 69.5t23 90t8 86t1.5 98.5t-1.5 98.5t-8 86t-23 90t-43.5 69.5q-69 79 -199 79zM550 1098q99 0 180 -34.5t133 -91.5
q40 -44 64.5 -95.5t34 -115t11.5 -105t2 -115.5t-2 -115.5t-11.5 -105t-34 -115t-64.5 -95.5q-52 -57 -133 -91.5t-180 -34.5t-180 34.5t-133 91.5q-40 44 -64.5 95.5t-34 115t-11.5 105t-2 115.5t2 115.5t11.5 105t34 115t64.5 95.5q52 57 133 91.5t180 34.5z" />
    <glyph glyph-name="uni0440" unicode="&#x440;" horiz-adv-x="1115" 
d="M595 1098q102 0 185 -44t130 -116q50 -77 65 -165.5t15 -231.5t-15 -231.5t-65 -165.5q-47 -72 -130 -116t-185 -44q-167 0 -285 131v-529h-150v1496h150v-115q118 131 285 131zM575 964q-134 0 -205 -98q-38 -52 -49 -126t-11 -199t11 -199t49 -126q71 -98 205 -98
t205 98q38 52 49 126t11 199t-11 199t-49 126q-71 98 -205 98z" />
    <glyph glyph-name="uni0441" unicode="&#x441;" horiz-adv-x="964" 
d="M535 1098q165 0 327 -101l-71 -118q-131 85 -256 85q-131 0 -204 -105q-26 -38 -39 -99.5t-15 -102.5t-2 -110q0 -78 1.5 -119.5t13.5 -99.5t36 -98q35 -58 91 -85t118 -27q68 0 142.5 26t130.5 64l76 -114q-71 -48 -165 -79t-184 -31q-114 0 -204 50.5t-137 132.5
q-32 56 -48 123.5t-18.5 117t-2.5 139.5q0 78 2.5 125.5t18.5 118.5t48 124q49 82 137.5 132.5t203.5 50.5z" />
    <glyph glyph-name="uni0442" unicode="&#x442;" horiz-adv-x="916" 
d="M383 2v946h-303v134h756v-134h-303v-946h-150z" />
    <glyph glyph-name="uni0443" unicode="&#x443;" horiz-adv-x="987" 
d="M94 -409l33 130q51 -14 95 -14q72 0 120 38q19 15 33.5 37.5t21.5 41t18 52.5l37 122l-392 1084h156l302 -885l256 885h153l-377 -1241q-20 -66 -43.5 -110t-62.5 -78q-90 -80 -222 -80q-56 0 -128 18z" />
    <glyph glyph-name="uni0444" unicode="&#x444;" horiz-adv-x="1450" 
d="M800 -414h-150v401q-229 25 -374.5 178.5t-145.5 390.5q0 173 80 306.5t213 199.5l64 -123q-92 -47 -149.5 -149.5t-57.5 -233.5q0 -179 102 -294t268 -138v700q0 77 10.5 120t37.5 76q66 78 179 78q157 0 296 -146q147 -155 147 -393q0 -239 -144.5 -393t-375.5 -179
v-401zM800 124q168 24 269 139.5t101 295.5q0 200 -132 326q-83 79 -161 79q-36 0 -58 -24q-12 -15 -15.5 -37.5t-3.5 -78.5v-700z" />
    <glyph glyph-name="uni0445" unicode="&#x445;" horiz-adv-x="950" 
d="M880 0h-169l-236 421l-236 -421h-169l320 545l-315 537h169l231 -413l231 413h169l-315 -537z" />
    <glyph glyph-name="uni1E0C" unicode="&#x1e0c;" horiz-adv-x="1217" 
d="M581 -165q49 0 79.5 -30.5t30.5 -79.5t-30.5 -79.5t-79.5 -30.5t-79.5 30.5t-30.5 79.5t30.5 79.5t79.5 30.5zM336 1276v-1136h203q51 0 80.5 1t73 9.5t71.5 24.5q35 20 62 50t44.5 59.5t29.5 75t18 79t9 89.5t3.5 87.5t0.5 92.5t-0.5 92.5t-3.5 87.5t-9 89.5t-18 79
t-29.5 75t-44.5 59.5t-62 50q-28 16 -71.5 24.5t-73 9.5t-80.5 1h-203zM180 1416h359q150 0 229 -23q92 -27 157.5 -90.5t102.5 -146.5q27 -62 41 -148.5t16 -143.5t2 -156t-2 -156t-16 -143.5t-41 -148.5q-37 -83 -102.5 -146.5t-157.5 -90.5q-79 -23 -229 -23h-359v1416z
" />
    <glyph glyph-name="uni1E0D" unicode="&#x1e0d;" horiz-adv-x="1115" 
d="M520 -165q49 0 79.5 -30.5t30.5 -79.5t-30.5 -79.5t-79.5 -30.5t-79.5 30.5t-30.5 79.5t30.5 79.5t79.5 30.5zM520 1098q167 0 285 -131v529h150v-1496h-150v115q-118 -131 -285 -131q-102 0 -185 44t-130 116q-50 77 -65 165.5t-15 231.5t15 231.5t65 165.5
q47 72 130 116t185 44zM540 964q-134 0 -205 -98q-38 -52 -49 -126t-11 -199t11 -199t49 -126q71 -98 205 -98t205 98q38 52 49 126t11 199t-11 199t-49 126q-71 98 -205 98z" />
    <glyph glyph-name="uni1E24" unicode="&#x1e24;" horiz-adv-x="1280" 
d="M630 -165q49 0 79.5 -30.5t30.5 -79.5t-30.5 -79.5t-79.5 -30.5t-79.5 30.5t-30.5 79.5t30.5 79.5t79.5 30.5zM180 1416h156v-624h608v624h156v-1416h-156v652h-608v-652h-156v1416z" />
    <glyph glyph-name="uni1E25" unicode="&#x1e25;" 
d="M550 -165q49 0 79.5 -30.5t30.5 -79.5t-30.5 -79.5t-79.5 -30.5t-79.5 30.5t-30.5 79.5t30.5 79.5t79.5 30.5zM585 1098q88 0 161 -36t121 -96q30 -37 48 -78t25 -91t8.5 -82t1.5 -90v-625h-150v615q0 76 -2 111.5t-15 80.5t-41 77q-68 80 -187 80t-187 -80
q-28 -32 -41 -77t-15 -80.5t-2 -111.5v-615h-150v1496h150v-528q118 130 275 130z" />
    <glyph glyph-name="uni1E36" unicode="&#x1e36;" horiz-adv-x="980" 
d="M541 -165q49 0 79.5 -30.5t30.5 -79.5t-30.5 -79.5t-79.5 -30.5t-79.5 30.5t-30.5 79.5t30.5 79.5t79.5 30.5zM180 1416h156v-1276h564v-140h-720v1416z" />
    <glyph glyph-name="uni1E44" unicode="&#x1e44;" horiz-adv-x="1294" 
d="M647 1769q41 0 67.5 -26.5t26.5 -67.5t-26.5 -67.5t-67.5 -26.5t-67.5 26.5t-26.5 67.5t26.5 67.5t67.5 26.5zM958 1416h156v-1416h-157l-621 1136v-1136h-156v1416h157l621 -1136v1136z" />
    <glyph glyph-name="uni1E45" unicode="&#x1e45;" 
d="M575 1435q41 0 67.5 -26.5t26.5 -67.5t-26.5 -67.5t-67.5 -26.5t-67.5 26.5t-26.5 67.5t26.5 67.5t67.5 26.5zM585 1098q111 0 201.5 -58.5t132.5 -163.5q15 -36 22 -82t8 -77.5t1 -91.5v-625h-150v615q0 95 -4 137.5t-22 81.5q-28 62 -86.5 96t-132.5 34t-132.5 -34
t-86.5 -96q-18 -39 -22 -81.5t-4 -137.5v-615h-150v1082h150v-114q118 130 275 130z" />
    <glyph glyph-name="uni1E5A" unicode="&#x1e5a;" horiz-adv-x="1141" 
d="M601 -165q49 0 79.5 -30.5t30.5 -79.5t-30.5 -79.5t-79.5 -30.5t-79.5 30.5t-30.5 79.5t30.5 79.5t79.5 30.5zM507 1416q69 0 102.5 -1.5t79 -9.5t88.5 -26q113 -46 181 -151.5t68 -241.5q0 -137 -69 -243t-183 -151l277 -592h-169l-254 556h-292v-556h-156v1416h327z
M507 1276h-171v-580h171q55 0 81.5 1t61 6.5t61.5 16.5q45 19 77.5 51.5t49.5 70.5t24.5 73.5t7.5 70.5t-7.5 70.5t-24.5 73.5t-49.5 70.5t-77.5 51.5q-27 11 -61.5 16.5t-61 6.5t-81.5 1z" />
    <glyph glyph-name="uni1E5B" unicode="&#x1e5b;" horiz-adv-x="697" 
d="M234 -165q49 0 79.5 -30.5t30.5 -79.5t-30.5 -79.5t-79.5 -30.5t-79.5 30.5t-30.5 79.5t30.5 79.5t79.5 30.5zM310 968q109 130 255 130q41 0 92 -11l-22 -132q-63 9 -90 9q-76 0 -132 -36t-81 -97q-22 -53 -22 -188v-643h-150v1082h150v-114z" />
    <glyph glyph-name="uni1E62" unicode="&#x1e62;" horiz-adv-x="1045" 
d="M517 -165q49 0 79.5 -30.5t30.5 -79.5t-30.5 -79.5t-79.5 -30.5t-79.5 30.5t-30.5 79.5t30.5 79.5t79.5 30.5zM84 115l69 126q207 -120 364 -120q62 0 111 17.5t78.5 45t49 64t26.5 71t7 69.5q0 80 -36.5 144t-119.5 95q-40 15 -127.5 32.5t-131.5 32.5q-126 45 -193 142
t-67 221q0 160 108 270t295 110q165 0 373 -100l-60 -129q-184 89 -313 89q-123 0 -185 -70t-62 -170q0 -78 39 -141t121 -91q37 -13 126.5 -31t137.5 -36q125 -48 188 -145.5t63 -222.5q0 -81 -27.5 -153.5t-79 -129.5t-135 -90.5t-186.5 -33.5q-117 0 -220 36t-213 98z
" />
    <glyph glyph-name="uni1E63" unicode="&#x1e63;" horiz-adv-x="963" 
d="M478 -165q49 0 79.5 -30.5t30.5 -79.5t-30.5 -79.5t-79.5 -30.5t-79.5 30.5t-30.5 79.5t30.5 79.5t79.5 30.5zM478 1098q149 0 343 -82l-51 -127q-176 75 -292 75q-58 0 -102 -17t-66 -44t-32.5 -54t-10.5 -53q0 -50 27.5 -87.5t69.5 -56.5q41 -19 134.5 -32.5
t156.5 -36.5q88 -33 148 -107t60 -175q0 -127 -103 -222t-282 -95q-168 0 -378 93l54 125q186 -84 324 -84q62 0 109.5 17t73.5 45t39 58.5t13 62.5q0 57 -34 99t-84 61q-34 13 -137 29t-164 44q-77 36 -127 104t-50 158q0 123 98.5 212.5t262.5 89.5z" />
    <glyph glyph-name="uni1E6C" unicode="&#x1e6c;" horiz-adv-x="1048" 
d="M524 -165q49 0 79.5 -30.5t30.5 -79.5t-30.5 -79.5t-79.5 -30.5t-79.5 30.5t-30.5 79.5t30.5 79.5t79.5 30.5zM60 1417h928v-140h-386v-1277h-156v1277h-386v140z" />
    <glyph glyph-name="uni1E6D" unicode="&#x1e6d;" horiz-adv-x="652" 
d="M415 -165q49 0 79.5 -30.5t30.5 -79.5t-30.5 -79.5t-79.5 -30.5t-79.5 30.5t-30.5 79.5t30.5 79.5t79.5 30.5zM190 303v655h-150v124h150v234h150v-234h200v-124h-200v-655q0 -108 9 -130q23 -55 86 -55q52 0 114 32l58 -124q-96 -42 -182 -42q-85 0 -143.5 41t-80.5 117
q-11 38 -11 161z" />
    <glyph glyph-name="Wgrave" unicode="&#x1e80;" horiz-adv-x="1500" 
d="M536 1830h169l154 -274h-158zM220 1416l242 -1141l213 711h150l213 -711l242 1141h160l-311 -1416h-152l-227 762l-227 -762h-152l-311 1416h160z" />
    <glyph glyph-name="wgrave" unicode="&#x1e81;" horiz-adv-x="1408" 
d="M490 1496h169l154 -274h-158zM329 0l-259 1082h153l186 -834l222 834h146l222 -834l186 834h153l-259 -1082h-146l-229 856l-229 -856h-146z" />
    <glyph glyph-name="Wacute" unicode="&#x1e82;" horiz-adv-x="1500" 
d="M962 1830l-165 -274h-158l154 274h169zM220 1416l242 -1141l213 711h150l213 -711l242 1141h160l-311 -1416h-152l-227 762l-227 -762h-152l-311 1416h160z" />
    <glyph glyph-name="wacute" unicode="&#x1e83;" horiz-adv-x="1408" 
d="M916 1496l-165 -274h-158l154 274h169zM329 0l-259 1082h153l186 -834l222 834h146l222 -834l186 834h153l-259 -1082h-146l-229 856l-229 -856h-146z" />
    <glyph glyph-name="Wdieresis" unicode="&#x1e84;" horiz-adv-x="1500" 
d="M941 1769q41 0 67.5 -26.5t26.5 -67.5t-26.5 -67.5t-67.5 -26.5t-67.5 26.5t-26.5 67.5t26.5 67.5t67.5 26.5zM559 1769q41 0 67.5 -26.5t26.5 -67.5t-26.5 -67.5t-67.5 -26.5t-67.5 26.5t-26.5 67.5t26.5 67.5t67.5 26.5zM220 1416l242 -1141l213 711h150l213 -711
l242 1141h160l-311 -1416h-152l-227 762l-227 -762h-152l-311 1416h160z" />
    <glyph glyph-name="wdieresis" unicode="&#x1e85;" horiz-adv-x="1408" 
d="M895 1435q41 0 67.5 -26.5t26.5 -67.5t-26.5 -67.5t-67.5 -26.5t-67.5 26.5t-26.5 67.5t26.5 67.5t67.5 26.5zM513 1435q41 0 67.5 -26.5t26.5 -67.5t-26.5 -67.5t-67.5 -26.5t-67.5 26.5t-26.5 67.5t26.5 67.5t67.5 26.5zM329 0l-259 1082h153l186 -834l222 834h146
l222 -834l186 834h153l-259 -1082h-146l-229 856l-229 -856h-146z" />
    <glyph glyph-name="uni1E92" unicode="&#x1e92;" horiz-adv-x="1027" 
d="M514 -165q49 0 79.5 -30.5t30.5 -79.5t-30.5 -79.5t-79.5 -30.5t-79.5 30.5t-30.5 79.5t30.5 79.5t79.5 30.5zM105 1276v140h822v-101l-661 -1175h681v-140h-867v101l661 1175h-636z" />
    <glyph glyph-name="uni1E93" unicode="&#x1e93;" horiz-adv-x="880" 
d="M440 -165q49 0 79.5 -30.5t30.5 -79.5t-30.5 -79.5t-79.5 -30.5t-79.5 30.5t-30.5 79.5t30.5 79.5t79.5 30.5zM800 134v-134h-720v108l526 840h-519v134h704v-108l-526 -840h535z" />
    <glyph glyph-name="Eszett" unicode="&#x1e9e;" horiz-adv-x="1356" 
d="M477 64l68 126q119 -69 254 -69q127 0 209.5 72.5t82.5 192.5q0 57 -22.5 105t-54.5 80.5t-83 62.5t-91.5 48t-97.5 40q-11 4 -16 6v113l241 435h-284q-113 0 -173 -12t-106 -58q-47 -47 -60 -112t-13 -178v-916h-156v916q0 144 20.5 228t92.5 156q73 73 161.5 94.5
t233.5 21.5h479v-103l-275 -497q75 -32 132.5 -66.5t112 -85t84.5 -120t30 -152.5q0 -180 -127 -295.5t-320 -115.5q-171 0 -322 83z" />
    <glyph glyph-name="uni1EB8" unicode="&#x1eb8;" 
d="M595 -165q49 0 79.5 -30.5t30.5 -79.5t-30.5 -79.5t-79.5 -30.5t-79.5 30.5t-30.5 79.5t30.5 79.5t79.5 30.5zM180 1416h780v-140h-624v-484h534v-140h-534v-512h624v-140h-780v1416z" />
    <glyph glyph-name="uni1EB9" unicode="&#x1eb9;" horiz-adv-x="1055" 
d="M550 -165q49 0 79.5 -30.5t30.5 -79.5t-30.5 -79.5t-79.5 -30.5t-79.5 30.5t-30.5 79.5t30.5 79.5t79.5 30.5zM550 -16q-116 0 -205 43.5t-141 119.5q-37 53 -55.5 126t-21 123.5t-2.5 144.5q0 77 1.5 116.5t10 96t25.5 102.5q42 110 140.5 176t227.5 66
q127 0 226.5 -66.5t142.5 -176.5q25 -63 30.5 -125.5t5.5 -187.5v-33h-660q0 -65 2 -104.5t15.5 -95t39.5 -92.5q69 -99 218 -99q133 0 286 73l57 -124q-177 -83 -343 -83zM785 633q-2 114 -29 181q-27 69 -87.5 109.5t-138.5 40.5q-81 0 -140 -40.5t-85 -108.5
q-27 -70 -29 -182h509z" />
    <glyph glyph-name="uni1EBC" unicode="&#x1ebc;" 
d="M673 1680q48 0 89 70l115 -71q-31 -54 -83.5 -88.5t-120.5 -34.5q-44 0 -81 15t-64 30t-47 15q-48 0 -89 -70l-115 71q31 54 83.5 88.5t120.5 34.5q44 0 81 -15t64 -30t47 -15zM180 1416h780v-140h-624v-484h534v-140h-534v-512h624v-140h-780v1416z" />
    <glyph glyph-name="uni1EBD" unicode="&#x1ebd;" horiz-adv-x="1055" 
d="M626 1346q48 0 89 70l115 -71q-31 -54 -83.5 -88.5t-120.5 -34.5q-44 0 -81 15t-64 30t-47 15q-48 0 -89 -70l-115 71q31 54 83.5 88.5t120.5 34.5q44 0 81 -15t64 -30t47 -15zM550 -16q-116 0 -205 43.5t-141 119.5q-37 53 -55.5 126t-21 123.5t-2.5 144.5
q0 77 1.5 116.5t10 96t25.5 102.5q42 110 140.5 176t227.5 66q127 0 226.5 -66.5t142.5 -176.5q25 -63 30.5 -125.5t5.5 -187.5v-33h-660q0 -65 2 -104.5t15.5 -95t39.5 -92.5q69 -99 218 -99q133 0 286 73l57 -124q-177 -83 -343 -83zM785 633q-2 114 -29 181
q-27 69 -87.5 109.5t-138.5 40.5q-81 0 -140 -40.5t-85 -108.5q-27 -70 -29 -182h509z" />
    <glyph glyph-name="uni1ECA" unicode="&#x1eca;" horiz-adv-x="516" 
d="M257 -165q49 0 79.5 -30.5t30.5 -79.5t-30.5 -79.5t-79.5 -30.5t-79.5 30.5t-30.5 79.5t30.5 79.5t79.5 30.5zM336 1416v-1416h-156v1416h156z" />
    <glyph glyph-name="uni1ECB" unicode="&#x1ecb;" horiz-adv-x="480" 
d="M240 -165q49 0 79.5 -30.5t30.5 -79.5t-30.5 -79.5t-79.5 -30.5t-79.5 30.5t-30.5 79.5t30.5 79.5t79.5 30.5zM240 1435q41 0 67.5 -26.5t26.5 -67.5t-26.5 -67.5t-67.5 -26.5t-67.5 26.5t-26.5 67.5t26.5 67.5t67.5 26.5zM315 0h-150v1082h150v-1082z" />
    <glyph glyph-name="uni1ECC" unicode="&#x1ecc;" horiz-adv-x="1256" 
d="M628 -141q49 0 79.5 -30.5t30.5 -79.5t-30.5 -79.5t-79.5 -30.5t-79.5 30.5t-30.5 79.5t30.5 79.5t79.5 30.5zM628 1435q156 0 267 -69t165 -186q31 -66 46.5 -158t17.5 -152t2 -162t-2 -162t-17.5 -152t-46.5 -158q-54 -117 -165 -186t-267 -69t-267 69t-165 186
q-31 66 -46.5 158t-17.5 152t-2 162t2 162t17.5 152t46.5 158q54 117 165 186t267 69zM628 1295q-106 0 -179 -44.5t-109 -123.5q-25 -53 -37.5 -132.5t-14.5 -136t-2 -150.5t2 -150.5t14.5 -136t37.5 -132.5q36 -79 109 -123.5t179 -44.5t179 44.5t109 123.5
q25 53 37.5 132.5t14.5 136t2 150.5t-2 150.5t-14.5 136t-37.5 132.5q-36 79 -109 123.5t-179 44.5z" />
    <glyph glyph-name="uni1ECD" unicode="&#x1ecd;" 
d="M550 -165q49 0 79.5 -30.5t30.5 -79.5t-30.5 -79.5t-79.5 -30.5t-79.5 30.5t-30.5 79.5t30.5 79.5t79.5 30.5zM550 964q-130 0 -199 -79q-27 -31 -43.5 -69.5t-23 -90t-8 -86t-1.5 -98.5t1.5 -98.5t8 -86t23 -90t43.5 -69.5q69 -79 199 -79t199 79q27 31 43.5 69.5t23 90
t8 86t1.5 98.5t-1.5 98.5t-8 86t-23 90t-43.5 69.5q-69 79 -199 79zM550 1098q99 0 180 -34.5t133 -91.5q40 -44 64.5 -95.5t34 -115t11.5 -105t2 -115.5t-2 -115.5t-11.5 -105t-34 -115t-64.5 -95.5q-52 -57 -133 -91.5t-180 -34.5t-180 34.5t-133 91.5q-40 44 -64.5 95.5
t-34 115t-11.5 105t-2 115.5t2 115.5t11.5 105t34 115t64.5 95.5q52 57 133 91.5t180 34.5z" />
    <glyph glyph-name="uni1EE4" unicode="&#x1ee4;" horiz-adv-x="1236" 
d="M618 -165q49 0 79.5 -30.5t30.5 -79.5t-30.5 -79.5t-79.5 -30.5t-79.5 30.5t-30.5 79.5t30.5 79.5t79.5 30.5zM160 1416h156v-901q0 -146 20 -205q34 -99 113.5 -144t168.5 -45t168.5 45t113.5 144q20 59 20 205v901h156v-901q0 -58 -1 -88.5t-7 -75t-18 -81.5
q-33 -100 -101.5 -166.5t-151 -94.5t-179.5 -28t-179.5 28t-151 94.5t-101.5 166.5q-12 37 -18 81.5t-7 75t-1 88.5v901z" />
    <glyph glyph-name="uni1EE5" unicode="&#x1ee5;" horiz-adv-x="1090" 
d="M545 -165q49 0 79.5 -30.5t30.5 -79.5t-30.5 -79.5t-79.5 -30.5t-79.5 30.5t-30.5 79.5t30.5 79.5t79.5 30.5zM150 1082h150v-625q0 -135 15 -181q25 -77 87 -117.5t143 -40.5t143 40.5t87 117.5q15 46 15 181v625h150v-635q0 -53 -1 -81.5t-7 -70.5t-19 -76
q-42 -114 -137.5 -174.5t-230.5 -60.5t-230.5 60.5t-137.5 174.5q-13 34 -19 76t-7 70.5t-1 81.5v635z" />
    <glyph glyph-name="Ygrave" unicode="&#x1ef2;" horiz-adv-x="1082" 
d="M327 1830h169l154 -274h-158zM40 1416h169l332 -744l332 744h169l-423 -910v-506h-156v506z" />
    <glyph glyph-name="ygrave" unicode="&#x1ef3;" horiz-adv-x="987" 
d="M280 1496h169l154 -274h-158zM94 -409l33 130q51 -14 95 -14q72 0 120 38q19 15 33.5 37.5t21.5 41t18 52.5l37 122l-392 1084h156l302 -885l256 885h153l-377 -1241q-20 -66 -43.5 -110t-62.5 -78q-90 -80 -222 -80q-56 0 -128 18z" />
    <glyph glyph-name="uni1EF8" unicode="&#x1ef8;" horiz-adv-x="1082" 
d="M637 1680q48 0 89 70l115 -71q-31 -54 -83.5 -88.5t-120.5 -34.5q-44 0 -81 15t-64 30t-47 15q-48 0 -89 -70l-115 71q31 54 83.5 88.5t120.5 34.5q44 0 81 -15t64 -30t47 -15zM40 1416h169l332 -744l332 744h169l-423 -910v-506h-156v506z" />
    <glyph glyph-name="ytilde" unicode="&#x1ef9;" horiz-adv-x="987" 
d="M590 1346q48 0 89 70l115 -71q-31 -54 -83.5 -88.5t-120.5 -34.5q-44 0 -81 15t-64 30t-47 15q-48 0 -89 -70l-115 71q31 54 83.5 88.5t120.5 34.5q44 0 81 -15t64 -30t47 -15zM94 -409l33 130q51 -14 95 -14q72 0 120 38q19 15 33.5 37.5t21.5 41t18 52.5l37 122
l-392 1084h156l302 -885l256 885h153l-377 -1241q-20 -66 -43.5 -110t-62.5 -78q-90 -80 -222 -80q-56 0 -128 18z" />
    <glyph glyph-name="uni2000" unicode="&#x2000;" horiz-adv-x="1064" 
 />
    <glyph glyph-name="uni2001" unicode="&#x2001;" horiz-adv-x="2088" 
 />
    <glyph glyph-name="uni2002" unicode="&#x2002;" horiz-adv-x="1064" 
 />
    <glyph glyph-name="uni2003" unicode="&#x2003;" horiz-adv-x="2088" 
 />
    <glyph glyph-name="uni2004" unicode="&#x2004;" horiz-adv-x="722" 
 />
    <glyph glyph-name="uni2005" unicode="&#x2005;" horiz-adv-x="552" 
 />
    <glyph glyph-name="uni2006" unicode="&#x2006;" horiz-adv-x="381" 
 />
    <glyph glyph-name="uni2007" unicode="&#x2007;" horiz-adv-x="1108" 
 />
    <glyph glyph-name="uni2008" unicode="&#x2008;" horiz-adv-x="460" 
 />
    <glyph glyph-name="uni2009" unicode="&#x2009;" horiz-adv-x="382" 
 />
    <glyph glyph-name="uni200A" unicode="&#x200a;" horiz-adv-x="211" 
 />
    <glyph glyph-name="uni200B" unicode="&#x200b;" horiz-adv-x="40" 
 />
    <glyph glyph-name="uni2010" unicode="&#x2010;" horiz-adv-x="740" 
d="M120 474v134h500v-134h-500z" />
    <glyph glyph-name="endash" unicode="&#x2013;" horiz-adv-x="1064" 
d="M120 472v134h824v-134h-824z" />
    <glyph glyph-name="emdash" unicode="&#x2014;" horiz-adv-x="2088" 
d="M120 472v134h1848v-134h-1848z" />
    <glyph glyph-name="uni2015" unicode="&#x2015;" horiz-adv-x="2088" 
d="M120 472v134h1848v-134h-1848z" />
    <glyph glyph-name="quoteleft" unicode="&#x2018;" horiz-adv-x="460" 
d="M230 1072q-49 0 -79.5 30.5t-30.5 79.5q0 31 25 92l90 222h98l-57 -213q28 -11 46 -38t18 -63q0 -49 -30.5 -79.5t-79.5 -30.5z" />
    <glyph glyph-name="quoteright" unicode="&#x2019;" horiz-adv-x="460" 
d="M230 1512q49 0 79.5 -30.5t30.5 -79.5q0 -31 -25 -92l-90 -222h-98l57 213q-28 11 -46 38t-18 63q0 49 30.5 79.5t79.5 30.5z" />
    <glyph glyph-name="quotesinglbase" unicode="&#x201a;" horiz-adv-x="460" 
d="M230 204q49 0 79.5 -30.5t30.5 -79.5q0 -31 -25 -92l-90 -222h-98l57 213q-28 11 -46 38t-18 63q0 49 30.5 79.5t79.5 30.5z" />
    <glyph glyph-name="quotereversed" unicode="&#x201b;" horiz-adv-x="460" 
d="M230 1512q49 0 79.5 -30.5t30.5 -79.5q0 -36 -18 -63t-46 -38l57 -213h-98l-90 222q-25 61 -25 92q0 49 30.5 79.5t79.5 30.5z" />
    <glyph glyph-name="quotedblleft" unicode="&#x201c;" horiz-adv-x="780" 
d="M550 1072q-49 0 -79.5 30.5t-30.5 79.5q0 31 25 92l90 222h98l-57 -213q28 -11 46 -38t18 -63q0 -49 -30.5 -79.5t-79.5 -30.5zM230 1072q-49 0 -79.5 30.5t-30.5 79.5q0 31 25 92l90 222h98l-57 -213q28 -11 46 -38t18 -63q0 -49 -30.5 -79.5t-79.5 -30.5z" />
    <glyph glyph-name="quotedblright" unicode="&#x201d;" horiz-adv-x="780" 
d="M230 1512q49 0 79.5 -30.5t30.5 -79.5q0 -31 -25 -92l-90 -222h-98l57 213q-28 11 -46 38t-18 63q0 49 30.5 79.5t79.5 30.5zM550 1512q49 0 79.5 -30.5t30.5 -79.5q0 -31 -25 -92l-90 -222h-98l57 213q-28 11 -46 38t-18 63q0 49 30.5 79.5t79.5 30.5z" />
    <glyph glyph-name="quotedblbase" unicode="&#x201e;" horiz-adv-x="780" 
d="M550 204q49 0 79.5 -30.5t30.5 -79.5q0 -31 -25 -92l-90 -222h-98l57 213q-28 11 -46 38t-18 63q0 49 30.5 79.5t79.5 30.5zM230 204q49 0 79.5 -30.5t30.5 -79.5q0 -31 -25 -92l-90 -222h-98l57 213q-28 11 -46 38t-18 63q0 49 30.5 79.5t79.5 30.5z" />
    <glyph glyph-name="dagger" unicode="&#x2020;" horiz-adv-x="1000" 
d="M100 948v134h325v279h150v-279h325v-134h-325v-948h-150v948h-325z" />
    <glyph glyph-name="daggerdbl" unicode="&#x2021;" horiz-adv-x="1000" 
d="M100 948v134h325v279h150v-279h325v-134h-325v-948h325v-134h-325v-279h-150v279h-325v134h325v948h-325z" />
    <glyph glyph-name="bullet" unicode="&#x2022;" horiz-adv-x="618" 
d="M310 682q74 0 121 -47.5t47 -122.5t-47 -122.5t-121 -47.5q-75 0 -122.5 47.5t-47.5 122.5t47.5 122.5t122.5 47.5z" />
    <glyph glyph-name="ellipsis" unicode="&#x2026;" horiz-adv-x="1236" 
d="M405 -252zM1006 204q49 0 79.5 -30.5t30.5 -79.5t-30.5 -79.5t-79.5 -30.5t-79.5 30.5t-30.5 79.5t30.5 79.5t79.5 30.5zM638 204q49 0 79.5 -30.5t30.5 -79.5t-30.5 -79.5t-79.5 -30.5t-79.5 30.5t-30.5 79.5t30.5 79.5t79.5 30.5zM270 204q49 0 79.5 -30.5t30.5 -79.5
t-30.5 -79.5t-79.5 -30.5t-79.5 30.5t-30.5 79.5t30.5 79.5t79.5 30.5z" />
    <glyph glyph-name="perthousand" unicode="&#x2030;" horiz-adv-x="1898" 
d="M1081 1352l114 -72l-768 -1216l-114 72zM371 1432q125 0 195 -80q23 -26 37.5 -56.5t20 -68.5t7 -64t1.5 -70t-1.5 -70t-7 -64t-20 -68.5t-37.5 -56.5q-70 -80 -195 -80t-195 80q-23 26 -37.5 56.5t-20 68.5t-7 64t-1.5 70t1.5 70t7 64t20 68.5t37.5 56.5q70 80 195 80z
M371 1314q-27 0 -48 -7.5t-34.5 -17.5t-22.5 -29.5t-14 -34.5t-7 -42.5t-2.5 -43.5t-0.5 -46t0.5 -46t2.5 -43.5t7 -42.5t14 -34.5t22.5 -29.5t34.5 -17.5t48 -7.5t48 7.5t34.5 17.5t22.5 29.5t14 34.5t7 42.5t2.5 43.5t0.5 46t-0.5 46t-2.5 43.5t-7 42.5t-14 34.5
t-22.5 29.5t-34.5 17.5t-48 7.5zM1137 560q-27 0 -48 -7.5t-34.5 -17.5t-22.5 -29.5t-14 -34.5t-7 -42.5t-2.5 -43.5t-0.5 -46t0.5 -46t2.5 -43.5t7 -42.5t14 -34.5t22.5 -29.5t34.5 -17.5t48 -7.5t48 7.5t34.5 17.5t22.5 29.5t14 34.5t7 42.5t2.5 43.5t0.5 46t-0.5 46
t-2.5 43.5t-7 42.5t-14 34.5t-22.5 29.5t-34.5 17.5t-48 7.5zM1527 678q125 0 195 -80q23 -26 37.5 -56.5t20 -68.5t7 -64t1.5 -70t-1.5 -70t-7 -64t-20 -68.5t-37.5 -56.5q-70 -80 -195 -80q-129 0 -195 90q-66 -90 -195 -90q-125 0 -195 80q-23 26 -37.5 56.5t-20 68.5
t-7 64t-1.5 70t1.5 70t7 64t20 68.5t37.5 56.5q70 80 195 80q129 0 195 -90q66 90 195 90zM1398 339q0 -30 0.5 -46t2.5 -43.5t7 -42.5t14 -34.5t22.5 -29.5t34.5 -17.5t48 -7.5t48 7.5t34.5 17.5t22.5 29.5t14 34.5t7 42.5t2.5 43.5t0.5 46t-0.5 46t-2.5 43.5t-7 42.5
t-14 34.5t-22.5 29.5t-34.5 17.5t-48 7.5t-48 -7.5t-34.5 -17.5t-22.5 -29.5t-14 -34.5t-7 -42.5t-2.5 -43.5t-0.5 -46z" />
    <glyph glyph-name="uni2031" unicode="&#x2031;" horiz-adv-x="2288" 
d="M1398 339q0 -30 0.5 -46t2.5 -43.5t7 -42.5t14 -34.5t22.5 -29.5t34.5 -17.5t48 -7.5t48 7.5t34.5 17.5t22.5 29.5t14 34.5t7 42.5t2.5 43.5t0.5 46t-0.5 46t-2.5 43.5t-7 42.5t-14 34.5t-22.5 29.5t-34.5 17.5t-48 7.5t-48 -7.5t-34.5 -17.5t-22.5 -29.5t-14 -34.5
t-7 -42.5t-2.5 -43.5t-0.5 -46zM1137 560q-27 0 -48 -7.5t-34.5 -17.5t-22.5 -29.5t-14 -34.5t-7 -42.5t-2.5 -43.5t-0.5 -46t0.5 -46t2.5 -43.5t7 -42.5t14 -34.5t22.5 -29.5t34.5 -17.5t48 -7.5t48 7.5t34.5 17.5t22.5 29.5t14 34.5t7 42.5t2.5 43.5t0.5 46t-0.5 46
t-2.5 43.5t-7 42.5t-14 34.5t-22.5 29.5t-34.5 17.5t-48 7.5zM371 1314q-27 0 -48 -7.5t-34.5 -17.5t-22.5 -29.5t-14 -34.5t-7 -42.5t-2.5 -43.5t-0.5 -46t0.5 -46t2.5 -43.5t7 -42.5t14 -34.5t22.5 -29.5t34.5 -17.5t48 -7.5t48 7.5t34.5 17.5t22.5 29.5t14 34.5t7 42.5
t2.5 43.5t0.5 46t-0.5 46t-2.5 43.5t-7 42.5t-14 34.5t-22.5 29.5t-34.5 17.5t-48 7.5zM371 1432q125 0 195 -80q23 -26 37.5 -56.5t20 -68.5t7 -64t1.5 -70t-1.5 -70t-7 -64t-20 -68.5t-37.5 -56.5q-70 -80 -195 -80t-195 80q-23 26 -37.5 56.5t-20 68.5t-7 64t-1.5 70
t1.5 70t7 64t20 68.5t37.5 56.5q70 80 195 80zM1081 1352l114 -72l-768 -1216l-114 72zM1917 678q125 0 195 -80q23 -26 37.5 -56.5t20 -68.5t7 -64t1.5 -70t-1.5 -70t-7 -64t-20 -68.5t-37.5 -56.5q-70 -80 -195 -80q-129 0 -195 90q-66 -90 -195 -90t-195 90
q-66 -90 -195 -90q-125 0 -195 80q-23 26 -37.5 56.5t-20 68.5t-7 64t-1.5 70t1.5 70t7 64t20 68.5t37.5 56.5q70 80 195 80q129 0 195 -90q66 90 195 90t195 -90q66 90 195 90zM1788 339q0 -30 0.5 -46t2.5 -43.5t7 -42.5t14 -34.5t22.5 -29.5t34.5 -17.5t48 -7.5t48 7.5
t34.5 17.5t22.5 29.5t14 34.5t7 42.5t2.5 43.5t0.5 46t-0.5 46t-2.5 43.5t-7 42.5t-14 34.5t-22.5 29.5t-34.5 17.5t-48 7.5t-48 -7.5t-34.5 -17.5t-22.5 -29.5t-14 -34.5t-7 -42.5t-2.5 -43.5t-0.5 -46z" />
    <glyph glyph-name="minute" unicode="&#x2032;" horiz-adv-x="440" 
d="M320 1414q0 -29 -15 -68l-88 -258h-97v323q0 45 28 73t70 28q46 0 74 -28t28 -70z" />
    <glyph glyph-name="second" unicode="&#x2033;" horiz-adv-x="770" 
d="M650 1414q0 -29 -15 -68l-88 -258h-97v323q0 45 28 73t70 28q46 0 74 -28t28 -70zM320 1414q0 -29 -15 -68l-88 -258h-97v323q0 45 28 73t70 28q46 0 74 -28t28 -70z" />
    <glyph glyph-name="uni2034" unicode="&#x2034;" horiz-adv-x="1110" 
d="M990 1414q0 -29 -15 -68l-88 -258h-97v323q0 45 28 73t70 28q46 0 74 -28t28 -70zM650 1414q0 -29 -15 -68l-88 -258h-97v323q0 45 28 73t70 28q46 0 74 -28t28 -70zM320 1414q0 -29 -15 -68l-88 -258h-97v323q0 45 28 73t70 28q46 0 74 -28t28 -70z" />
    <glyph glyph-name="guilsinglleft" unicode="&#x2039;" horiz-adv-x="610" 
d="M372 955l118 -72l-218 -344l218 -344l-118 -72l-252 416z" />
    <glyph glyph-name="guilsinglright" unicode="&#x203a;" horiz-adv-x="610" 
d="M238 955l252 -416l-252 -416l-118 72l218 344l-218 344z" />
    <glyph glyph-name="uni203D" unicode="&#x203d;" horiz-adv-x="916" 
d="M178 1193l-98 100q146 139 341 139q173 0 284 -108t111 -272q0 -120 -74 -221q-28 -38 -110 -102t-102 -99q-25 -43 -34 -82t-9 -101l-1 -60h-14h-116q-20 422 -20 663v85h156v-85q0 -112 -5 -272l49.5 42t49.5 43q80 74 80 188q0 109 -66.5 178t-178.5 69
q-134 0 -243 -105zM421 204q49 0 79.5 -30.5t30.5 -79.5t-30.5 -79.5t-79.5 -30.5t-79.5 30.5t-30.5 79.5t30.5 79.5t79.5 30.5z" />
    <glyph glyph-name="fraction" unicode="&#x2044;" horiz-adv-x="276" 
d="M468 1360l108 -68l-768 -1216l-108 68z" />
    <glyph glyph-name="uni2070.sup" unicode="&#x2070;" horiz-adv-x="740" 
d="M370 1605q93 0 159 -40.5t91 -111.5q20 -57 20 -237t-20 -237q-25 -71 -91 -111.5t-159 -40.5t-159 40.5t-91 111.5q-20 57 -20 237t20 237q25 71 91 111.5t159 40.5zM370 1487q-101 0 -124 -70q-14 -42 -14 -201t14 -201q23 -70 124 -70t124 70q14 42 14 201t-14 201
q-23 70 -124 70z" />
    <glyph glyph-name="uni2074.sup" unicode="&#x2074;" horiz-adv-x="740" 
d="M647 1122v-118h-64v-165h-132v165h-357v83l260 506h140l-242 -471h199v164h132v-164h64z" />
    <glyph glyph-name="uni2075.sup" unicode="&#x2075;" horiz-adv-x="740" 
d="M574 1593v-118h-304v-187q46 32 107 32q110 0 181.5 -68.5t71.5 -178.5q0 -111 -79 -178.5t-194 -67.5q-129 0 -239 84l73 97q81 -63 166 -63q62 0 101.5 34t39.5 94t-38.5 94.5t-102.5 34.5q-56 0 -120 -33l-99 51v373h436z" />
    <glyph glyph-name="uni2076.sup" unicode="&#x2076;" horiz-adv-x="740" 
d="M370 1220q-64 0 -102.5 -36t-38.5 -100t38.5 -100t102.5 -36t102.5 36t38.5 100t-38.5 100t-102.5 36zM400 1331q101 0 172 -71.5t71 -175.5q0 -109 -77 -181.5t-196 -72.5t-196 72.5t-77 181.5q0 51 16 91t50 95l201 323h151l-173 -271q24 9 58 9z" />
    <glyph glyph-name="uni2077.sup" unicode="&#x2077;" horiz-adv-x="740" 
d="M116 1475v118h512v-82l-315 -672h-143l298 636h-352z" />
    <glyph glyph-name="uni2078.sup" unicode="&#x2078;" horiz-adv-x="740" 
d="M370 1605q109 0 182.5 -61.5t73.5 -156.5q0 -100 -83 -156q100 -62 100 -174q0 -101 -78.5 -165.5t-194.5 -64.5t-194.5 64.5t-78.5 165.5q0 112 100 174q-83 56 -83 156q0 95 73.5 156.5t182.5 61.5zM370 1487q-60 0 -92 -27t-32 -73t32 -73t92 -27t92 27t32 73t-32 73
t-92 27zM370 1169q-67 0 -104 -30.5t-37 -81.5t37 -81.5t104 -30.5t104 30.5t37 81.5t-37 81.5t-104 30.5z" />
    <glyph glyph-name="uni2079.sup" unicode="&#x2079;" horiz-adv-x="740" 
d="M370 1487q-63 0 -100.5 -36t-37.5 -100t37.5 -100t100.5 -36t100.5 36t37.5 100t-37.5 100t-100.5 36zM370 1605q120 0 195 -74t75 -180q0 -84 -56 -171l-209 -341h-150l169 272q-34 -4 -54 -4q-103 0 -171.5 70.5t-68.5 173.5q0 108 76.5 181t193.5 73z" />
    <glyph glyph-name="uni2080.sub" unicode="&#x2080;" horiz-adv-x="740" 
d="M370 589q93 0 159 -40.5t91 -111.5q20 -57 20 -237t-20 -237q-25 -71 -91 -111.5t-159 -40.5t-159 40.5t-91 111.5q-20 57 -20 237t20 237q25 71 91 111.5t159 40.5zM370 471q-101 0 -124 -70q-14 -42 -14 -201t14 -201q23 -70 124 -70t124 70q14 42 14 201t-14 201
q-23 70 -124 70z" />
    <glyph glyph-name="uni2081.sub" unicode="&#x2081;" horiz-adv-x="548" 
d="M418 -177h-132v600l-110 -58l-56 108l199 104h99v-754z" />
    <glyph glyph-name="uni2082.sub" unicode="&#x2082;" horiz-adv-x="740" 
d="M338 589q111 0 188 -61.5t77 -159.5q0 -19 -2.5 -35.5t-9 -33l-11 -27t-17 -27l-17.5 -23t-21 -25t-20 -23.5l-199 -233h317v-118h-506v96l286 330q49 56 58.5 76t9.5 43q0 50 -37.5 76.5t-95.5 26.5q-79 0 -145 -55l-76 96q97 77 221 77z" />
    <glyph glyph-name="uni2083.sub" unicode="&#x2083;" horiz-adv-x="740" 
d="M625 38q0 -105 -81.5 -166t-192.5 -61q-141 0 -243 86l80 92q71 -60 163 -60q61 0 101.5 28.5t40.5 80.5q0 57 -51 91q-36 24 -169 24l-1 118q84 0 114 4t56 23q37 27 37 75q0 47 -36.5 72.5t-91.5 25.5q-90 0 -163 -62l-76 96q106 84 239 84q109 0 184.5 -60t75.5 -156
q0 -101 -86 -159q100 -63 100 -176z" />
    <glyph glyph-name="uni2084.sub" unicode="&#x2084;" horiz-adv-x="740" 
d="M647 106v-118h-64v-165h-132v165h-357v83l260 506h140l-242 -471h199v164h132v-164h64z" />
    <glyph glyph-name="uni2085.sub" unicode="&#x2085;" horiz-adv-x="740" 
d="M574 577v-118h-304v-187q46 32 107 32q110 0 181.5 -68.5t71.5 -178.5q0 -111 -79 -178.5t-194 -67.5q-129 0 -239 84l73 97q81 -63 166 -63q62 0 101.5 34t39.5 94t-38.5 94.5t-102.5 34.5q-56 0 -120 -33l-99 51v373h436z" />
    <glyph glyph-name="uni2086.sub" unicode="&#x2086;" horiz-adv-x="740" 
d="M370 204q-64 0 -102.5 -36t-38.5 -100t38.5 -100t102.5 -36t102.5 36t38.5 100t-38.5 100t-102.5 36zM400 315q101 0 172 -71.5t71 -175.5q0 -109 -77 -181.5t-196 -72.5t-196 72.5t-77 181.5q0 51 16 91t50 95l201 323h151l-173 -271q24 9 58 9z" />
    <glyph glyph-name="uni2087.sub" unicode="&#x2087;" horiz-adv-x="740" 
d="M116 459v118h512v-82l-315 -672h-143l298 636h-352z" />
    <glyph glyph-name="uni2088.sub" unicode="&#x2088;" horiz-adv-x="740" 
d="M370 589q109 0 182.5 -61.5t73.5 -156.5q0 -100 -83 -156q100 -62 100 -174q0 -101 -78.5 -165.5t-194.5 -64.5t-194.5 64.5t-78.5 165.5q0 112 100 174q-83 56 -83 156q0 95 73.5 156.5t182.5 61.5zM370 471q-60 0 -92 -27t-32 -73t32 -73t92 -27t92 27t32 73t-32 73
t-92 27zM370 153q-67 0 -104 -30.5t-37 -81.5t37 -81.5t104 -30.5t104 30.5t37 81.5t-37 81.5t-104 30.5z" />
    <glyph glyph-name="uni2089.sub" unicode="&#x2089;" horiz-adv-x="740" 
d="M370 471q-63 0 -100.5 -36t-37.5 -100t37.5 -100t100.5 -36t100.5 36t37.5 100t-37.5 100t-100.5 36zM370 589q120 0 195 -74t75 -180q0 -84 -56 -171l-209 -341h-150l169 272q-34 -4 -54 -4q-103 0 -171.5 70.5t-68.5 173.5q0 108 76.5 181t193.5 73z" />
    <glyph glyph-name="Euro" unicode="&#x20ac;" horiz-adv-x="1232" 
d="M725 1435q202 0 374 -121l-80 -120q-142 101 -294 101q-209 0 -283 -170q-35 -79 -45 -227h553l-33 -110h-525v-160h477l-33 -110h-439q10 -148 45 -227q74 -170 283 -170q184 0 324 119l88 -116q-182 -143 -412 -143q-156 0 -265.5 69t-162.5 188q-47 104 -57 280h-134
l33 110h97v160h-123l33 110h94q10 179 57 280q55 120 164.5 188.5t263.5 68.5z" />
    <glyph glyph-name="uni20B9" unicode="&#x20b9;" horiz-adv-x="1203" 
d="M762 1286q54 -38 79 -87.5t40 -117.5h172l-60 -130h-107q-12 -135 -93 -232q-120 -144 -369 -152l407 -567h-186l-406 566h-59v140h140q136 0 200 11.5t116 53.5q73 59 93 180h-579l60 130h512q-29 118 -134 170q-47 23 -103 29t-165 6h-170l60 130h843l-60 -130h-231z
" />
    <glyph glyph-name="uni20BA" unicode="&#x20ba;" horiz-adv-x="1098" 
d="M447 0h-123v599l-184 -94v125l184 94v162l-184 -95v125l184 94v406h156v-334l278 142v-125l-278 -142v-161l278 141v-125l-278 -141v-531q151 0 238 95q48 52 66 115.5t18 159.5h156q0 -121 -28.5 -209t-99.5 -161q-78 -81 -170 -110.5t-213 -29.5z" />
    <glyph glyph-name="trademark" unicode="&#x2122;" horiz-adv-x="1741" 
d="M106 1298v118h575v-118h-222v-636h-132v636h-221zM1565 662h-132v535l-188 -326h-116l-189 326v-535h-132v754h135l244 -415l244 415h134v-754z" />
    <glyph glyph-name="Omega" unicode="&#x2126;" horiz-adv-x="1310" 
d="M675 1435q116 0 212 -41.5t157 -113.5q73 -85 96 -188t23 -249q0 -130 -3 -209t-13.5 -158t-32 -132t-55.5 -103.5t-87 -99.5h212v-141h-425v109q40 23 72.5 51.5t57 57.5t43 68.5t31 73t21 84t13 88.5t7 98.5t3 102t0.5 110.5q0 55 -2.5 94.5t-10 89.5t-25.5 92t-47 75
q-88 101 -247 101t-247 -101q-53 -62 -69 -147.5t-16 -203.5q0 -69 0.5 -110.5t3 -102t7 -98.5t13 -88.5t21 -84t31 -73t43 -68.5t57 -57.5t72.5 -51.5v-109h-425v141h212q-53 49 -87 99.5t-55.5 103.5t-32 132t-13.5 158t-3 209q0 146 23 249t96 188q61 72 157 113.5
t212 41.5z" />
    <glyph glyph-name="arrowleft" unicode="&#x2190;" horiz-adv-x="1360" 
d="M674 100l-106 -92l-428 492v82l428 492l106 -92l-322 -374h868v-134h-868z" />
    <glyph glyph-name="arrowup" unicode="&#x2191;" horiz-adv-x="1306" 
d="M212 609l-92 106l481 417h104l481 -417l-92 -106l-366 317v-876h-150v876z" />
    <glyph glyph-name="arrowright" unicode="&#x2192;" horiz-adv-x="1360" 
d="M666 982l106 92l428 -492v-82l-428 -492l-106 92l322 374h-868v134h868z" />
    <glyph glyph-name="arrowdown" unicode="&#x2193;" horiz-adv-x="1306" 
d="M1074 573l92 -106l-481 -417h-104l-481 417l92 106l366 -317v876h150v-876z" />
    <glyph glyph-name="arrowboth" unicode="&#x2194;" horiz-adv-x="1820" 
d="M1146 982l106 92l428 -492v-82l-428 -492l-106 92l322 374h-1116l322 -374l-106 -92l-428 492v82l428 492l106 -92l-322 -374h1116z" />
    <glyph glyph-name="arrowupdn" unicode="&#x2195;" horiz-adv-x="1306" 
d="M1094 307l92 -106l-481 -417h-104l-481 417l92 106l366 -317v1100l-366 -317l-92 106l481 417h104l481 -417l-92 -106l-366 317v-1100z" />
    <glyph glyph-name="partialdiff" unicode="&#x2202;" horiz-adv-x="1090" 
d="M520 1509q117 0 209 -44t147 -120q37 -51 55.5 -114.5t21 -106t2.5 -122.5v-461q0 -71 -1.5 -108.5t-8.5 -95.5t-25.5 -104t-48.5 -89q-51 -72 -137.5 -116t-193.5 -44t-193.5 44t-137.5 116q-30 43 -48.5 89t-25.5 104t-8.5 95.5t-1.5 108.5q0 67 1.5 105t8 96.5
t24.5 106t46 89.5q50 73 131 116.5t184 43.5q175 0 285 -133v37q0 53 -1 80t-5.5 65.5t-16.5 67.5t-31 56q-75 104 -231 104q-140 0 -277 -80l-67 119q163 95 344 95zM540 964q-135 0 -205 -99q-28 -39 -42 -97.5t-16 -102.5t-2 -124q0 -81 2 -123.5t16 -102.5t42 -99
q69 -98 205 -98t205 98q28 39 42 99t16 102.5t2 123.5q0 80 -2 124t-16 102.5t-42 97.5q-70 99 -205 99z" />
    <glyph glyph-name="Delta" unicode="&#x2206;" horiz-adv-x="1190" 
d="M960 140l-345 1065l-345 -1065h690zM540 1416h150l480 -1416h-1110z" />
    <glyph glyph-name="product" unicode="&#x220f;" horiz-adv-x="1260" 
d="M200 1416h900v-1416h-156v1276h-588v-1276h-156v1416z" />
    <glyph glyph-name="summation" unicode="&#x2211;" horiz-adv-x="980" 
d="M652 694l-338 -554h586v-140h-780v102l379 620l-379 592v102h780v-140h-586l338 -521v-61z" />
    <glyph glyph-name="minus" unicode="&#x2212;" horiz-adv-x="1064" 
d="M140 472v134h824v-134h-824z" />
    <glyph glyph-name="radical" unicode="&#x221a;" horiz-adv-x="1122" 
d="M80 552l120 82l303 -451l384 1313h155l-441 -1496h-142z" />
    <glyph glyph-name="infinity" unicode="&#x221e;" horiz-adv-x="1556" 
d="M1079 166q-105 0 -180 57t-121 151q-46 -94 -121 -151t-180 -57q-100 0 -178.5 54t-118.5 138.5t-40 182.5t40 182.5t118.5 138.5t178.5 54q105 0 180 -57t121 -151q46 94 121 151t180 57q100 0 178.5 -54t118.5 -138.5t40 -182.5t-40 -182.5t-118.5 -138.5t-178.5 -54z
M699 541q-79 241 -222 241q-85 0 -136 -73.5t-51 -167.5t50.5 -167.5t136.5 -73.5q143 0 222 241zM857 541q79 -241 222 -241q86 0 136.5 73t50.5 168q0 94 -50.5 167.5t-136.5 73.5q-143 0 -222 -241z" />
    <glyph glyph-name="integral" unicode="&#x222b;" horiz-adv-x="572" 
d="M160 1143q0 67 2 100t14.5 78t38.5 82q78 109 230 109q55 0 140 -17l-27 -132q-62 15 -113 15q-70 0 -104 -48q-21 -30 -26 -68t-5 -119v-1262q0 -54 -1 -79t-8.5 -57t-23.5 -60q-30 -53 -85.5 -83t-126.5 -30q-59 0 -121 19l38 130q45 -15 83 -15q55 0 78 40
q11 19 14 43.5t3 91.5v1262z" />
    <glyph glyph-name="uni222C" unicode="&#x222c;" horiz-adv-x="1065" 
d="M680 1143q0 67 2 100t14.5 78t38.5 82q78 109 230 109q55 0 140 -17l-27 -132q-62 15 -113 15q-70 0 -104 -48q-21 -30 -26 -68t-5 -119v-1262q0 -54 -1 -79t-8.5 -57t-23.5 -60q-30 -53 -85.5 -83t-126.5 -30q-59 0 -121 19l38 130q45 -15 83 -15q55 0 78 40
q11 19 14 43.5t3 91.5v1262zM180 1143q0 67 2 100t14.5 78t38.5 82q78 109 230 109q55 0 140 -17l-27 -132q-62 15 -113 15q-70 0 -104 -48q-21 -30 -26 -68t-5 -119v-1262q0 -54 -1 -79t-8.5 -57t-23.5 -60q-30 -53 -85.5 -83t-126.5 -30q-59 0 -121 19l38 130
q45 -15 83 -15q55 0 78 40q11 19 14 43.5t3 91.5v1262z" />
    <glyph glyph-name="uni222D" unicode="&#x222d;" horiz-adv-x="1565" 
d="M1180 1143q0 67 2 100t14.5 78t38.5 82q78 109 230 109q55 0 140 -17l-27 -132q-62 15 -113 15q-70 0 -104 -48q-21 -30 -26 -68t-5 -119v-1262q0 -54 -1 -79t-8.5 -57t-23.5 -60q-30 -53 -85.5 -83t-126.5 -30q-59 0 -121 19l38 130q45 -15 83 -15q55 0 78 40
q11 19 14 43.5t3 91.5v1262zM680 1143q0 67 2 100t14.5 78t38.5 82q78 109 230 109q55 0 140 -17l-27 -132q-62 15 -113 15q-70 0 -104 -48q-21 -30 -26 -68t-5 -119v-1262q0 -54 -1 -79t-8.5 -57t-23.5 -60q-30 -53 -85.5 -83t-126.5 -30q-59 0 -121 19l38 130
q45 -15 83 -15q55 0 78 40q11 19 14 43.5t3 91.5v1262zM180 1143q0 67 2 100t14.5 78t38.5 82q78 109 230 109q55 0 140 -17l-27 -132q-62 15 -113 15q-70 0 -104 -48q-21 -30 -26 -68t-5 -119v-1262q0 -54 -1 -79t-8.5 -57t-23.5 -60q-30 -53 -85.5 -83t-126.5 -30
q-59 0 -121 19l38 130q45 -15 83 -15q55 0 78 40q11 19 14 43.5t3 91.5v1262z" />
    <glyph glyph-name="approxequal" unicode="&#x2248;" horiz-adv-x="1036" 
d="M378 356q-29 0 -68.5 -13t-59 -22t-60.5 -30l-60 122q47 23 77 36t79.5 27t91.5 14q64 0 155 -35t125 -35q29 0 68.5 13t59 22t60.5 30l60 -122q-47 -23 -77 -36t-79.5 -27t-91.5 -14q-64 0 -155 35t-125 35zM378 661q-29 0 -68.5 -13t-59 -22t-60.5 -30l-60 122
q47 23 77 36t79.5 27t91.5 14q64 0 155 -35t125 -35q29 0 68.5 13t59 22t60.5 30l60 -122q-47 -23 -77 -36t-79.5 -27t-91.5 -14q-64 0 -155 35t-125 35z" />
    <glyph glyph-name="notequal" unicode="&#x2260;" horiz-adv-x="1060" 
d="M180 314v134h248l92 186h-340v134h406l132 269h112l-132 -269h182v-134h-248l-92 -186h340v-134h-406l-132 -269h-112l132 269h-182z" />
    <glyph glyph-name="lessequal" unicode="&#x2264;" horiz-adv-x="1060" 
d="M825 1144l52 -126l-508 -207l508 -207l-52 -126l-645 272v122zM180 398h700v-134h-700v134z" />
    <glyph glyph-name="greaterequal" unicode="&#x2265;" horiz-adv-x="1060" 
d="M235 1144l645 -272v-122l-645 -272l-52 126l508 207l-508 207zM880 398v-134h-700v134h700z" />
    <glyph glyph-name="lozenge" unicode="&#x25ca;" horiz-adv-x="1036" 
d="M450 1082h136l290 -512v-58l-290 -512h-136l-290 512v58zM518 916l-207 -375l207 -375l207 375z" />
    <glyph glyph-name="uniFEFF" unicode="&#xfeff;" horiz-adv-x="40" 
 />
    <glyph glyph-name="zero.d" horiz-adv-x="740" 
d="M370 766q93 0 159 -40.5t91 -111.5q20 -57 20 -237t-20 -237q-25 -71 -91 -111.5t-159 -40.5t-159 40.5t-91 111.5q-20 57 -20 237t20 237q25 71 91 111.5t159 40.5zM370 648q-101 0 -124 -70q-14 -42 -14 -201t14 -201q23 -70 124 -70t124 70q14 42 14 201t-14 201
q-23 70 -124 70z" />
    <glyph glyph-name="one.d" horiz-adv-x="548" 
d="M418 0h-132v600l-110 -58l-56 108l199 104h99v-754z" />
    <glyph glyph-name="two.d" horiz-adv-x="740" 
d="M338 766q111 0 188 -61.5t77 -159.5q0 -19 -2.5 -35.5t-9 -33l-11 -27t-17 -27l-17.5 -23t-21 -25t-20 -23.5l-199 -233h317v-118h-506v96l286 330q49 56 58.5 76t9.5 43q0 50 -37.5 76.5t-95.5 26.5q-79 0 -145 -55l-76 96q97 77 221 77z" />
    <glyph glyph-name="three.d" horiz-adv-x="740" 
d="M625 215q0 -105 -81.5 -166t-192.5 -61q-141 0 -243 86l80 92q71 -60 163 -60q61 0 101.5 28.5t40.5 80.5q0 57 -51 91q-36 24 -169 24l-1 118q84 0 114 4t56 23q37 27 37 75q0 47 -36.5 72.5t-91.5 25.5q-90 0 -163 -62l-76 96q106 84 239 84q109 0 184.5 -60t75.5 -156
q0 -101 -86 -159q100 -63 100 -176z" />
    <glyph glyph-name="four.d" horiz-adv-x="740" 
d="M647 283v-118h-64v-165h-132v165h-357v83l260 506h140l-242 -471h199v164h132v-164h64z" />
    <glyph glyph-name="five.d" horiz-adv-x="740" 
d="M574 754v-118h-304v-187q46 32 107 32q110 0 181.5 -68.5t71.5 -178.5q0 -111 -79 -178.5t-194 -67.5q-129 0 -239 84l73 97q81 -63 166 -63q62 0 101.5 34t39.5 94t-38.5 94.5t-102.5 34.5q-56 0 -120 -33l-99 51v373h436z" />
    <glyph glyph-name="six.d" horiz-adv-x="740" 
d="M370 381q-64 0 -102.5 -36t-38.5 -100t38.5 -100t102.5 -36t102.5 36t38.5 100t-38.5 100t-102.5 36zM400 492q101 0 172 -71.5t71 -175.5q0 -109 -77 -181.5t-196 -72.5t-196 72.5t-77 181.5q0 51 16 91t50 95l201 323h151l-173 -271q24 9 58 9z" />
    <glyph glyph-name="seven.d" horiz-adv-x="740" 
d="M116 636v118h512v-82l-315 -672h-143l298 636h-352z" />
    <glyph glyph-name="eight.d" horiz-adv-x="740" 
d="M370 766q109 0 182.5 -61.5t73.5 -156.5q0 -100 -83 -156q100 -62 100 -174q0 -101 -78.5 -165.5t-194.5 -64.5t-194.5 64.5t-78.5 165.5q0 112 100 174q-83 56 -83 156q0 95 73.5 156.5t182.5 61.5zM370 648q-60 0 -92 -27t-32 -73t32 -73t92 -27t92 27t32 73t-32 73
t-92 27zM370 330q-67 0 -104 -30.5t-37 -81.5t37 -81.5t104 -30.5t104 30.5t37 81.5t-37 81.5t-104 30.5z" />
    <glyph glyph-name="nine.d" horiz-adv-x="740" 
d="M370 648q-63 0 -100.5 -36t-37.5 -100t37.5 -100t100.5 -36t100.5 36t37.5 100t-37.5 100t-100.5 36zM370 766q120 0 195 -74t75 -180q0 -84 -56 -171l-209 -341h-150l169 272q-34 -4 -54 -4q-103 0 -171.5 70.5t-68.5 173.5q0 108 76.5 181t193.5 73z" />
    <glyph glyph-name="zero.n" horiz-adv-x="740" 
d="M370 1428q93 0 159 -40.5t91 -111.5q20 -57 20 -237t-20 -237q-25 -71 -91 -111.5t-159 -40.5t-159 40.5t-91 111.5q-20 57 -20 237t20 237q25 71 91 111.5t159 40.5zM370 1310q-101 0 -124 -70q-14 -42 -14 -201t14 -201q23 -70 124 -70t124 70q14 42 14 201t-14 201
q-23 70 -124 70z" />
    <glyph glyph-name="one.n" horiz-adv-x="548" 
d="M418 662h-132v600l-110 -58l-56 108l199 104h99v-754z" />
    <glyph glyph-name="two.n" horiz-adv-x="740" 
d="M338 1428q111 0 188 -61.5t77 -159.5q0 -19 -2.5 -35.5t-9 -33l-11 -27t-17 -27l-17.5 -23t-21 -25t-20 -23.5l-199 -233h317v-118h-506v96l286 330q49 56 58.5 76t9.5 43q0 50 -37.5 76.5t-95.5 26.5q-79 0 -145 -55l-76 96q97 77 221 77z" />
    <glyph glyph-name="three.n" horiz-adv-x="740" 
d="M625 877q0 -105 -81.5 -166t-192.5 -61q-141 0 -243 86l80 92q71 -60 163 -60q61 0 101.5 28.5t40.5 80.5q0 57 -51 91q-36 24 -169 24l-1 118q84 0 114 4t56 23q37 27 37 75q0 47 -36.5 72.5t-91.5 25.5q-90 0 -163 -62l-76 96q106 84 239 84q109 0 184.5 -60t75.5 -156
q0 -101 -86 -159q100 -63 100 -176z" />
    <glyph glyph-name="four.n" horiz-adv-x="740" 
d="M647 945v-118h-64v-165h-132v165h-357v83l260 506h140l-242 -471h199v164h132v-164h64z" />
    <glyph glyph-name="five.n" horiz-adv-x="740" 
d="M574 1416v-118h-304v-187q46 32 107 32q110 0 181.5 -68.5t71.5 -178.5q0 -111 -79 -178.5t-194 -67.5q-129 0 -239 84l73 97q81 -63 166 -63q62 0 101.5 34t39.5 94t-38.5 94.5t-102.5 34.5q-56 0 -120 -33l-99 51v373h436z" />
    <glyph glyph-name="six.n" horiz-adv-x="740" 
d="M370 1043q-64 0 -102.5 -36t-38.5 -100t38.5 -100t102.5 -36t102.5 36t38.5 100t-38.5 100t-102.5 36zM400 1154q101 0 172 -71.5t71 -175.5q0 -109 -77 -181.5t-196 -72.5t-196 72.5t-77 181.5q0 51 16 91t50 95l201 323h151l-173 -271q24 9 58 9z" />
    <glyph glyph-name="seven.n" horiz-adv-x="740" 
d="M116 1298v118h512v-82l-315 -672h-143l298 636h-352z" />
    <glyph glyph-name="eight.n" horiz-adv-x="740" 
d="M370 1428q109 0 182.5 -61.5t73.5 -156.5q0 -100 -83 -156q100 -62 100 -174q0 -101 -78.5 -165.5t-194.5 -64.5t-194.5 64.5t-78.5 165.5q0 112 100 174q-83 56 -83 156q0 95 73.5 156.5t182.5 61.5zM370 1310q-60 0 -92 -27t-32 -73t32 -73t92 -27t92 27t32 73t-32 73
t-92 27zM370 992q-67 0 -104 -30.5t-37 -81.5t37 -81.5t104 -30.5t104 30.5t37 81.5t-37 81.5t-104 30.5z" />
    <glyph glyph-name="nine.n" horiz-adv-x="740" 
d="M370 1310q-63 0 -100.5 -36t-37.5 -100t37.5 -100t100.5 -36t100.5 36t37.5 100t-37.5 100t-100.5 36zM370 1428q120 0 195 -74t75 -180q0 -84 -56 -171l-209 -341h-150l169 272q-34 -4 -54 -4q-103 0 -171.5 70.5t-68.5 173.5q0 108 76.5 181t193.5 73z" />
    <glyph glyph-name="a.alt" horiz-adv-x="1115" 
d="M540 964q-135 0 -205 -99q-28 -39 -42 -97.5t-16 -102.5t-2 -124t2 -124t16 -102.5t42 -97.5q70 -99 205 -99t205 99q28 39 42 97.5t16 102.5t2 124t-2 124t-16 102.5t-42 97.5q-70 99 -205 99zM805 1082h150v-1082h-150v117q-110 -133 -285 -133q-103 0 -183 43.5
t-132 116.5q-28 42 -46 89.5t-24.5 106t-8 96.5t-1.5 105q0 63 2 104t9 97t24.5 105t44.5 91q50 73 131 116.5t184 43.5q178 0 285 -131v115z" />
    <glyph glyph-name="agrave.alt" horiz-adv-x="1115" 
d="M540 964q-135 0 -205 -99q-28 -39 -42 -97.5t-16 -102.5t-2 -124t2 -124t16 -102.5t42 -97.5q70 -99 205 -99t205 99q28 39 42 97.5t16 102.5t2 124t-2 124t-16 102.5t-42 97.5q-70 99 -205 99zM805 1082h150v-1082h-150v117q-110 -133 -285 -133q-103 0 -183 43.5
t-132 116.5q-28 42 -46 89.5t-24.5 106t-8 96.5t-1.5 105q0 63 2 104t9 97t24.5 105t44.5 91q50 73 131 116.5t184 43.5q178 0 285 -131v115zM286 1496h169l154 -274h-158z" />
    <glyph glyph-name="aacute.alt" horiz-adv-x="1115" 
d="M752 1496l-165 -274h-158l154 274h169zM540 964q-135 0 -205 -99q-28 -39 -42 -97.5t-16 -102.5t-2 -124t2 -124t16 -102.5t42 -97.5q70 -99 205 -99t205 99q28 39 42 97.5t16 102.5t2 124t-2 124t-16 102.5t-42 97.5q-70 99 -205 99zM805 1082h150v-1082h-150v117
q-110 -133 -285 -133q-103 0 -183 43.5t-132 116.5q-28 42 -46 89.5t-24.5 106t-8 96.5t-1.5 105q0 63 2 104t9 97t24.5 105t44.5 91q50 73 131 116.5t184 43.5q178 0 285 -131v115z" />
    <glyph glyph-name="acircumflex.alt" horiz-adv-x="1115" 
d="M660 1222l-140 138l-140 -138h-171l258 274h106l258 -274h-171zM540 964q-135 0 -205 -99q-28 -39 -42 -97.5t-16 -102.5t-2 -124t2 -124t16 -102.5t42 -97.5q70 -99 205 -99t205 99q28 39 42 97.5t16 102.5t2 124t-2 124t-16 102.5t-42 97.5q-70 99 -205 99zM805 1082
h150v-1082h-150v117q-110 -133 -285 -133q-103 0 -183 43.5t-132 116.5q-28 42 -46 89.5t-24.5 106t-8 96.5t-1.5 105q0 63 2 104t9 97t24.5 105t44.5 91q50 73 131 116.5t184 43.5q178 0 285 -131v115z" />
    <glyph glyph-name="atilde.alt" horiz-adv-x="1115" 
d="M616 1346q48 0 89 70l115 -71q-31 -54 -83.5 -88.5t-120.5 -34.5q-44 0 -81 15t-64 30t-47 15q-48 0 -89 -70l-115 71q31 54 83.5 88.5t120.5 34.5q44 0 81 -15t64 -30t47 -15zM540 964q-135 0 -205 -99q-28 -39 -42 -97.5t-16 -102.5t-2 -124t2 -124t16 -102.5t42 -97.5
q70 -99 205 -99t205 99q28 39 42 97.5t16 102.5t2 124t-2 124t-16 102.5t-42 97.5q-70 99 -205 99zM805 1082h150v-1082h-150v117q-110 -133 -285 -133q-103 0 -183 43.5t-132 116.5q-28 42 -46 89.5t-24.5 106t-8 96.5t-1.5 105q0 63 2 104t9 97t24.5 105t44.5 91
q50 73 131 116.5t184 43.5q178 0 285 -131v115z" />
    <glyph glyph-name="adieresis.alt" horiz-adv-x="1115" 
d="M711 1435q41 0 67.5 -26.5t26.5 -67.5t-26.5 -67.5t-67.5 -26.5t-67.5 26.5t-26.5 67.5t26.5 67.5t67.5 26.5zM329 1435q41 0 67.5 -26.5t26.5 -67.5t-26.5 -67.5t-67.5 -26.5t-67.5 26.5t-26.5 67.5t26.5 67.5t67.5 26.5zM540 964q-135 0 -205 -99q-28 -39 -42 -97.5
t-16 -102.5t-2 -124t2 -124t16 -102.5t42 -97.5q70 -99 205 -99t205 99q28 39 42 97.5t16 102.5t2 124t-2 124t-16 102.5t-42 97.5q-70 99 -205 99zM805 1082h150v-1082h-150v117q-110 -133 -285 -133q-103 0 -183 43.5t-132 116.5q-28 42 -46 89.5t-24.5 106t-8 96.5
t-1.5 105q0 63 2 104t9 97t24.5 105t44.5 91q50 73 131 116.5t184 43.5q178 0 285 -131v115z" />
    <glyph glyph-name="aring.alt" horiz-adv-x="1115" 
d="M520 1292q-41 0 -66 -25t-25 -72t25 -72t66 -25t66 25t25 72t-25 72t-66 25zM520 1398q92 0 150.5 -58.5t58.5 -144.5t-58.5 -144.5t-150.5 -58.5t-150.5 58.5t-58.5 144.5t58.5 144.5t150.5 58.5zM540 964q-135 0 -205 -99q-28 -39 -42 -97.5t-16 -102.5t-2 -124t2 -124
t16 -102.5t42 -97.5q70 -99 205 -99t205 99q28 39 42 97.5t16 102.5t2 124t-2 124t-16 102.5t-42 97.5q-70 99 -205 99zM805 1082h150v-1082h-150v117q-110 -133 -285 -133q-103 0 -183 43.5t-132 116.5q-28 42 -46 89.5t-24.5 106t-8 96.5t-1.5 105q0 63 2 104t9 97
t24.5 105t44.5 91q50 73 131 116.5t184 43.5q178 0 285 -131v115z" />
    <glyph glyph-name="amacron.alt" horiz-adv-x="1115" 
d="M235 1386h570v-134h-570v134zM540 964q-135 0 -205 -99q-28 -39 -42 -97.5t-16 -102.5t-2 -124t2 -124t16 -102.5t42 -97.5q70 -99 205 -99t205 99q28 39 42 97.5t16 102.5t2 124t-2 124t-16 102.5t-42 97.5q-70 99 -205 99zM805 1082h150v-1082h-150v117
q-110 -133 -285 -133q-103 0 -183 43.5t-132 116.5q-28 42 -46 89.5t-24.5 106t-8 96.5t-1.5 105q0 63 2 104t9 97t24.5 105t44.5 91q50 73 131 116.5t184 43.5q178 0 285 -131v115z" />
    <glyph glyph-name="abreve.alt" horiz-adv-x="1115" 
d="M256 1496h140q0 -81 36.5 -122.5t88.5 -41.5t88.5 41.5t36.5 122.5h140q0 -119 -72 -203.5t-193 -84.5t-193 84.5t-72 203.5zM540 964q-135 0 -205 -99q-28 -39 -42 -97.5t-16 -102.5t-2 -124t2 -124t16 -102.5t42 -97.5q70 -99 205 -99t205 99q28 39 42 97.5t16 102.5
t2 124t-2 124t-16 102.5t-42 97.5q-70 99 -205 99zM805 1082h150v-1082h-150v117q-110 -133 -285 -133q-103 0 -183 43.5t-132 116.5q-28 42 -46 89.5t-24.5 106t-8 96.5t-1.5 105q0 63 2 104t9 97t24.5 105t44.5 91q50 73 131 116.5t184 43.5q178 0 285 -131v115z" />
    <glyph glyph-name="aogonek.alt" horiz-adv-x="1115" 
d="M753 -216q0 -39 22 -64.5t59 -25.5t74 25l65 -110q-67 -39 -139 -39q-94 0 -149.5 56t-55.5 137q0 186 274 289l52 -52q-35 -13 -67.5 -31t-64 -44t-51 -63t-19.5 -78zM540 964q-135 0 -205 -99q-28 -39 -42 -97.5t-16 -102.5t-2 -124t2 -124t16 -102.5t42 -97.5
q70 -99 205 -99t205 99q28 39 42 97.5t16 102.5t2 124t-2 124t-16 102.5t-42 97.5q-70 99 -205 99zM805 1082h150v-1082h-150v117q-110 -133 -285 -133q-103 0 -183 43.5t-132 116.5q-28 42 -46 89.5t-24.5 106t-8 96.5t-1.5 105q0 63 2 104t9 97t24.5 105t44.5 91
q50 73 131 116.5t184 43.5q178 0 285 -131v115z" />
    <glyph glyph-name="u.alt" 
d="M525 -16q-100 0 -179 40.5t-127 109.5q-33 49 -48.5 112.5t-18 110t-2.5 139.5v586h150v-586q0 -85 1.5 -124t12.5 -85.5t34 -78.5q64 -90 197 -90q129 0 194 90q24 33 35.5 79.5t13.5 85t2 123.5v586h150v-1082h-150v112q-105 -128 -265 -128z" />
    <glyph glyph-name="ugrave.alt" 
d="M525 -16q-100 0 -179 40.5t-127 109.5q-33 49 -48.5 112.5t-18 110t-2.5 139.5v586h150v-586q0 -85 1.5 -124t12.5 -85.5t34 -78.5q64 -90 197 -90q129 0 194 90q24 33 35.5 79.5t13.5 85t2 123.5v586h150v-1082h-150v112q-105 -128 -265 -128zM311 1496h169l154 -274
h-158z" />
    <glyph glyph-name="uacute.alt" 
d="M525 -16q-100 0 -179 40.5t-127 109.5q-33 49 -48.5 112.5t-18 110t-2.5 139.5v586h150v-586q0 -85 1.5 -124t12.5 -85.5t34 -78.5q64 -90 197 -90q129 0 194 90q24 33 35.5 79.5t13.5 85t2 123.5v586h150v-1082h-150v112q-105 -128 -265 -128zM777 1496l-165 -274h-158
l154 274h169z" />
    <glyph glyph-name="ucircumflex.alt" 
d="M525 -16q-100 0 -179 40.5t-127 109.5q-33 49 -48.5 112.5t-18 110t-2.5 139.5v586h150v-586q0 -85 1.5 -124t12.5 -85.5t34 -78.5q64 -90 197 -90q129 0 194 90q24 33 35.5 79.5t13.5 85t2 123.5v586h150v-1082h-150v112q-105 -128 -265 -128zM685 1222l-140 138
l-140 -138h-171l258 274h106l258 -274h-171z" />
    <glyph glyph-name="udieresis.alt" 
d="M525 -16q-100 0 -179 40.5t-127 109.5q-33 49 -48.5 112.5t-18 110t-2.5 139.5v586h150v-586q0 -85 1.5 -124t12.5 -85.5t34 -78.5q64 -90 197 -90q129 0 194 90q24 33 35.5 79.5t13.5 85t2 123.5v586h150v-1082h-150v112q-105 -128 -265 -128zM736 1435q41 0 67.5 -26.5
t26.5 -67.5t-26.5 -67.5t-67.5 -26.5t-67.5 26.5t-26.5 67.5t26.5 67.5t67.5 26.5zM354 1435q41 0 67.5 -26.5t26.5 -67.5t-26.5 -67.5t-67.5 -26.5t-67.5 26.5t-26.5 67.5t26.5 67.5t67.5 26.5z" />
    <glyph glyph-name="utilde.alt" 
d="M525 -16q-100 0 -179 40.5t-127 109.5q-33 49 -48.5 112.5t-18 110t-2.5 139.5v586h150v-586q0 -85 1.5 -124t12.5 -85.5t34 -78.5q64 -90 197 -90q129 0 194 90q24 33 35.5 79.5t13.5 85t2 123.5v586h150v-1082h-150v112q-105 -128 -265 -128zM368 1228l-130 42
q19 65 71.5 111.5t126.5 46.5q47 0 90.5 -20t75 -40t52.5 -20q43 0 68 76l130 -42q-19 -65 -71.5 -111.5t-126.5 -46.5q-47 0 -90.5 20t-75 40t-52.5 20q-42 0 -68 -76z" />
    <glyph glyph-name="umacron.alt" 
d="M525 -16q-100 0 -179 40.5t-127 109.5q-33 49 -48.5 112.5t-18 110t-2.5 139.5v586h150v-586q0 -85 1.5 -124t12.5 -85.5t34 -78.5q64 -90 197 -90q129 0 194 90q24 33 35.5 79.5t13.5 85t2 123.5v586h150v-1082h-150v112q-105 -128 -265 -128zM260 1386h570v-134h-570
v134z" />
    <glyph glyph-name="ubreve.alt" 
d="M525 -16q-100 0 -179 40.5t-127 109.5q-33 49 -48.5 112.5t-18 110t-2.5 139.5v586h150v-586q0 -85 1.5 -124t12.5 -85.5t34 -78.5q64 -90 197 -90q129 0 194 90q24 33 35.5 79.5t13.5 85t2 123.5v586h150v-1082h-150v112q-105 -128 -265 -128zM281 1497h140
q0 -81 36.5 -122.5t88.5 -41.5t88.5 41.5t36.5 122.5h140q0 -119 -72 -203.5t-193 -84.5t-193 84.5t-72 203.5z" />
    <glyph glyph-name="uring.alt" 
d="M525 -16q-100 0 -179 40.5t-127 109.5q-33 49 -48.5 112.5t-18 110t-2.5 139.5v586h150v-586q0 -85 1.5 -124t12.5 -85.5t34 -78.5q64 -90 197 -90q129 0 194 90q24 33 35.5 79.5t13.5 85t2 123.5v586h150v-1082h-150v112q-105 -128 -265 -128zM545 1432q-41 0 -66 -25
t-25 -72t25 -72t66 -25t66 25t25 72t-25 72t-66 25zM545 1538q92 0 150.5 -58.5t58.5 -144.5t-58.5 -144.5t-150.5 -58.5t-150.5 58.5t-58.5 144.5t58.5 144.5t150.5 58.5z" />
    <glyph glyph-name="uhungarumlaut.alt" 
d="M525 -16q-100 0 -179 40.5t-127 109.5q-33 49 -48.5 112.5t-18 110t-2.5 139.5v586h150v-586q0 -85 1.5 -124t12.5 -85.5t34 -78.5q64 -90 197 -90q129 0 194 90q24 33 35.5 79.5t13.5 85t2 123.5v586h150v-1082h-150v112q-105 -128 -265 -128zM915 1496l-164 -274h-148
l153 274h159zM617 1496l-164 -274h-148l153 274h159z" />
    <glyph glyph-name="uogonek.alt" 
d="M738 -216q0 -39 22 -64.5t59 -25.5q36 0 74 25l65 -110q-67 -39 -139 -39q-94 0 -149.5 56t-55.5 137q0 142 176 237v112q-105 -128 -265 -128q-100 0 -179 40.5t-127 109.5q-33 49 -48.5 112.5t-18 110t-2.5 139.5v586h150v-586q0 -85 1.5 -124t12.5 -85.5t34 -78.5
q64 -90 197 -90q129 0 194 90q24 33 35.5 79.5t13.5 85t2 123.5v586h150v-1082q-35 -13 -67.5 -31t-64 -44t-51 -63t-19.5 -78z" />
    <glyph glyph-name="uni1EE5.alt" 
d="M525 -16q-100 0 -179 40.5t-127 109.5q-33 49 -48.5 112.5t-18 110t-2.5 139.5v586h150v-586q0 -85 1.5 -124t12.5 -85.5t34 -78.5q64 -90 197 -90q129 0 194 90q24 33 35.5 79.5t13.5 85t2 123.5v586h150v-1082h-150v112q-105 -128 -265 -128zM545 -165q49 0 79.5 -30.5
t30.5 -79.5t-30.5 -79.5t-79.5 -30.5t-79.5 30.5t-30.5 79.5t30.5 79.5t79.5 30.5z" />
    <glyph glyph-name="y.alt" horiz-adv-x="987" 
d="M472 -414h-145l125 412l-392 1084h157l303 -888l252 888h155z" />
    <glyph glyph-name="yacute.alt" horiz-adv-x="987" 
d="M472 -414h-145l125 412l-392 1084h157l303 -888l252 888h155zM726 1496l-165 -274h-158l154 274h169z" />
    <glyph glyph-name="ydieresis.alt" horiz-adv-x="987" 
d="M472 -414h-145l125 412l-392 1084h157l303 -888l252 888h155zM685 1435q41 0 67.5 -26.5t26.5 -67.5t-26.5 -67.5t-67.5 -26.5t-67.5 26.5t-26.5 67.5t26.5 67.5t67.5 26.5zM303 1435q41 0 67.5 -26.5t26.5 -67.5t-26.5 -67.5t-67.5 -26.5t-67.5 26.5t-26.5 67.5
t26.5 67.5t67.5 26.5z" />
    <glyph glyph-name="ycircumflex.alt" horiz-adv-x="987" 
d="M472 -414h-145l125 412l-392 1084h157l303 -888l252 888h155zM634 1222l-140 138l-140 -138h-171l258 274h106l258 -274h-171z" />
    <glyph glyph-name="ygrave.alt" horiz-adv-x="987" 
d="M472 -414h-145l125 412l-392 1084h157l303 -888l252 888h155zM260 1496h169l154 -274h-158z" />
    <glyph glyph-name="ytilde.alt" horiz-adv-x="987" 
d="M472 -414h-145l125 412l-392 1084h157l303 -888l252 888h155zM313 1218l-122 64q79 146 213 146q37 0 68.5 -12.5t48 -27.5t33.5 -27.5t30 -12.5q49 0 91 86l122 -64q-33 -61 -86 -103.5t-127 -42.5q-38 0 -69 12.5t-47.5 27.5t-33.5 27.5t-30 12.5q-49 0 -91 -86z" />
    <glyph glyph-name="l.alt" horiz-adv-x="470" 
d="M310 0h-150v1496h150v-1496z" />
    <glyph glyph-name="lacute.alt" horiz-adv-x="470" 
d="M310 0h-150v1496h150v-1496zM467 1870l-165 -274h-158l154 274h169z" />
    <glyph glyph-name="lcedilla.alt" horiz-adv-x="470" 
d="M310 0h-150v1496h150v-1496zM333 -220q0 -32 -25 -82l-72 -153h-92l53 149q-57 21 -57 86q0 41 28 68t68 27t68.5 -27t28.5 -68z" />
    </font>
</defs>
</svg>
