<?xml version="1.0" encoding="utf-8"?>
<!-- Generator: Adobe Illustrator 19.1.0, SVG Export Plug-In . SVG Version: 6.00 Build 0)  -->
<svg version="1.1" xmlns="http://www.w3.org/2000/svg" xmlns:xlink="http://www.w3.org/1999/xlink" x="0px" y="0px"
	 viewBox="0 0 120 120" style="enable-background:new 0 0 120 120;" xml:space="preserve">
<style type="text/css">
	.st0{display:none;}
	.st1{display:inline;fill:#FFFFFF;}
	.st2{display:inline;}
	.st3{fill:#FFFFFF;}
	.st4{display:inline;fill:#FFCC33;}
	.st5{display:inline;fill:none;stroke:#DE1F12;stroke-miterlimit:10;}
	.st6{display:inline;fill:none;stroke:#E5E5E5;stroke-miterlimit:10;}
	.st7{display:inline;fill:none;stroke:#E5E5E5;stroke-width:0.75;stroke-miterlimit:10;}
	.st8{display:inline;fill:#A7A7AA;stroke:#E5E5E5;stroke-miterlimit:10;}
	.st9{display:inline;fill:none;stroke:#E5E5E5;stroke-width:1.5;stroke-miterlimit:10;}
	.st10{fill:none;stroke:#25262E;stroke-width:0.75;stroke-miterlimit:10;}
	.st11{fill:none;stroke:#25262E;stroke-miterlimit:10;}
	.st12{fill:#393B42;}
	.st13{fill:none;stroke:#393B42;stroke-width:0.5;stroke-miterlimit:10;}
	.st14{fill:none;stroke:#393B42;stroke-width:0.75;stroke-miterlimit:10;}
	.st15{fill:none;stroke:#333333;stroke-width:0.5;stroke-linecap:round;stroke-miterlimit:10;}
	.st16{fill:none;stroke:#393B42;stroke-linecap:round;stroke-miterlimit:10;}
	.st17{fill:none;stroke:#393B42;stroke-width:0.75;stroke-linecap:round;stroke-miterlimit:10;}
	.st18{fill:none;stroke:#393B42;stroke-width:0.5;stroke-linecap:round;stroke-miterlimit:10;}
	.st19{fill:none;stroke:#393B42;stroke-width:2;stroke-linecap:round;stroke-miterlimit:10;}
</style>
<g id="Layer_1">
</g>
<g id="white_circles" class="st0">
	<g class="st2">
		<circle class="st3" cx="60.3" cy="60" r="60"/>
	</g>
</g>
<g id="background__x28_test_transparency_x29_" class="st0">
	<rect x="-315.1" y="-14.8" class="st4" width="913.5" height="269.3"/>
</g>
<g id="guides_1_" class="st0">
	<path class="st5" d="M60.3,109.9c-26.3,0-47.7-21.4-47.7-47.7S34,14.4,60.3,14.4S108,35.8,108,62.1S86.6,109.9,60.3,109.9z"/>
	<path class="st5" d="M60.3,103.9c-23,0-41.8-18.7-41.8-41.8s18.7-41.8,41.8-41.8s41.8,18.7,41.8,41.8S83.3,103.9,60.3,103.9z"/>
	<path class="st5" d="M60.3,97.9c-19.7,0-35.8-16.1-35.8-35.8s16.1-35.8,35.8-35.8s35.8,16.1,35.8,35.8S80.1,97.9,60.3,97.9z"/>
	<line class="st6" x1="61" y1="-5.3" x2="61" y2="125"/>
</g>
<g id="icons">
	<g>
		<circle class="st16" cx="61" cy="24" r="8"/>
		<circle class="st12" cx="61" cy="24" r="3.2"/>
		<g>
			<path class="st18" d="M18.2,82.4l7.4-26c0.3-1.1,0.8-1.1,1.1,0l12.8,44.9c0.3,1.1,0.5,1.9,0.5,1.9c0,0,0.2-0.9,0.5-2l17.3-70"/>
		</g>
		<g>
			<path class="st18" d="M101.9,83.4l-7.6-26.7c-0.3-1.1-0.8-1.1-1.1,0l-12.8,44.9c-0.3,1.1-0.7,1-1,0L63.9,31.4"/>
		</g>
	</g>
</g>
<g id="Layer_6">
</g>
</svg>
