<?xml version="1.0" encoding="utf-8"?>
<!-- Generator: Adobe Illustrator 19.1.0, SVG Export Plug-In . SVG Version: 6.00 Build 0)  -->
<svg version="1.1" xmlns="http://www.w3.org/2000/svg" xmlns:xlink="http://www.w3.org/1999/xlink" x="0px" y="0px"
	 viewBox="0 0 120 120" style="enable-background:new 0 0 120 120;" xml:space="preserve">
<style type="text/css">
	.st0{display:none;}
	.st1{display:inline;fill:#FFFFFF;}
	.st2{display:inline;}
	.st3{fill:#FFFFFF;}
	.st4{display:inline;fill:#FFCC33;}
	.st5{display:inline;fill:none;stroke:#DE1F12;stroke-miterlimit:10;}
	.st6{display:inline;fill:none;stroke:#E5E5E5;stroke-miterlimit:10;}
	.st7{display:inline;fill:none;stroke:#E5E5E5;stroke-width:0.75;stroke-miterlimit:10;}
	.st8{display:inline;fill:#A7A7AA;stroke:#E5E5E5;stroke-miterlimit:10;}
	.st9{display:inline;fill:none;stroke:#E5E5E5;stroke-width:1.5;stroke-miterlimit:10;}
	.st10{fill:none;stroke:#25262E;stroke-width:0.75;stroke-miterlimit:10;}
	.st11{fill:none;stroke:#25262E;stroke-miterlimit:10;}
	.st12{fill:#393B42;}
	.st13{fill:none;stroke:#393B42;stroke-width:0.5;stroke-miterlimit:10;}
	.st14{fill:none;stroke:#393B42;stroke-width:0.75;stroke-miterlimit:10;}
	.st15{fill:none;stroke:#333333;stroke-width:0.5;stroke-linecap:round;stroke-miterlimit:10;}
	.st16{fill:none;stroke:#393B42;stroke-linecap:round;stroke-miterlimit:10;}
	.st17{fill:none;stroke:#393B42;stroke-width:0.75;stroke-linecap:round;stroke-miterlimit:10;}
	.st18{fill:none;stroke:#393B42;stroke-width:0.5;stroke-linecap:round;stroke-miterlimit:10;}
	.st19{fill:none;stroke:#393B42;stroke-width:2;stroke-linecap:round;stroke-miterlimit:10;}
</style>
<g id="Layer_1">
</g>
<g id="white_circles" class="st0">
	<g class="st2">
		<circle class="st3" cx="60" cy="59.8" r="60"/>
	</g>
</g>
<g id="background__x28_test_transparency_x29_" class="st0">
	<rect x="-181.8" y="-14.8" class="st4" width="913.5" height="269.3"/>
</g>
<g id="guides_1_" class="st0">
	<path class="st5" d="M60,107.6c-26.3,0-47.7-21.4-47.7-47.7S33.7,12.1,60,12.1s47.7,21.4,47.7,47.7S86.3,107.6,60,107.6z"/>
	<path class="st5" d="M60,101.6c-23,0-41.8-18.7-41.8-41.8S37,18.1,60,18.1s41.8,18.7,41.8,41.8S83,101.6,60,101.6z"/>
	<path class="st5" d="M60,95.6c-19.7,0-35.8-16.1-35.8-35.8S40.3,24,60,24s35.8,16.1,35.8,35.8S79.7,95.6,60,95.6z"/>
	<line class="st6" x1="60" y1="-4.5" x2="60" y2="125.9"/>
</g>
<g id="icons">
	<g>
		<line class="st18" x1="61.8" y1="87.4" x2="46.6" y2="56"/>
		<line class="st18" x1="89.4" y1="61.9" x2="67.7" y2="88.7"/>
		<line class="st18" x1="54.6" y1="47.1" x2="87.8" y2="56.9"/>
		<line class="st18" x1="71.9" y1="106.1" x2="68.1" y2="99.5"/>
		<line class="st18" x1="59.3" y1="99.8" x2="54.6" y2="105.5"/>
		<line class="st18" x1="101.8" y1="45.2" x2="97.4" y2="51.1"/>
		<line class="st18" x1="101.3" y1="60.4" x2="107.6" y2="61.9"/>
		<line class="st18" x1="24.7" y1="41.3" x2="16.5" y2="40.1"/>
		<line class="st18" x1="34.7" y1="19.4" x2="36.7" y2="27.1"/>
		<ellipse class="st17" cx="94.8" cy="57.5" rx="7" ry="6.9"/>
		<ellipse class="st17" cx="63.5" cy="94.3" rx="7" ry="6.9"/>
	</g>
	<g>
		<g>
			<ellipse class="st16" cx="40.1" cy="42.3" rx="15.4" ry="15.1"/>
			<g>
				<path class="st12" d="M46.2,44.9c-1.1,0-2.7,0.6-3.6,1.2c0,0-0.9,0.8-2.5,0.8c-1.6,0-2.5-0.8-2.5-0.8c-0.9-0.7-2.5-1.2-3.6-1.2
					h-1c-1.1,0-2,0.5-2,1.1s0.7,1.7,1.5,2.5c0,0,3.1,2.8,7.7,2.6c5-0.2,7.6-2.6,7.6-2.6c0.8-0.7,1.5-1.9,1.5-2.5s-0.9-1.1-2-1.1
					H46.2z"/>
			</g>
		</g>
		<ellipse class="st12" cx="40.1" cy="39.4" rx="4.9" ry="6"/>
	</g>
</g>
<g id="Layer_6">
</g>
</svg>
