<?xml version="1.0" encoding="utf-8"?>
<!-- Generator: Adobe Illustrator 19.1.0, SVG Export Plug-In . SVG Version: 6.00 Build 0)  -->
<svg version="1.1" xmlns="http://www.w3.org/2000/svg" xmlns:xlink="http://www.w3.org/1999/xlink" x="0px" y="0px"
	 viewBox="0 0 120 120" style="enable-background:new 0 0 120 120;" xml:space="preserve">
<style type="text/css">
	.st0{display:none;}
	.st1{display:inline;fill:#FFFFFF;}
	.st2{display:inline;}
	.st3{fill:#FFFFFF;}
	.st4{display:inline;fill:#FFCC33;}
	.st5{display:inline;fill:none;stroke:#DE1F12;stroke-miterlimit:10;}
	.st6{display:inline;fill:none;stroke:#E5E5E5;stroke-miterlimit:10;}
	.st7{display:inline;fill:none;stroke:#E5E5E5;stroke-width:0.75;stroke-miterlimit:10;}
	.st8{display:inline;fill:#A7A7AA;stroke:#E5E5E5;stroke-miterlimit:10;}
	.st9{display:inline;fill:none;stroke:#E5E5E5;stroke-width:1.5;stroke-miterlimit:10;}
	.st10{fill:none;stroke:#25262E;stroke-width:0.75;stroke-miterlimit:10;}
	.st11{fill:none;stroke:#25262E;stroke-miterlimit:10;}
	.st12{fill:#393B42;}
	.st13{fill:none;stroke:#393B42;stroke-width:0.5;stroke-miterlimit:10;}
	.st14{fill:none;stroke:#393B42;stroke-width:0.75;stroke-miterlimit:10;}
	.st15{fill:none;stroke:#333333;stroke-width:0.5;stroke-linecap:round;stroke-miterlimit:10;}
	.st16{fill:none;stroke:#393B42;stroke-linecap:round;stroke-miterlimit:10;}
	.st17{fill:none;stroke:#393B42;stroke-width:0.75;stroke-linecap:round;stroke-miterlimit:10;}
	.st18{fill:none;stroke:#393B42;stroke-width:0.5;stroke-linecap:round;stroke-miterlimit:10;}
	.st19{fill:none;stroke:#393B42;stroke-width:2;stroke-linecap:round;stroke-miterlimit:10;}
</style>
<g id="Layer_1">
</g>
<g id="white_circles" class="st0">
	<g class="st2">
		<circle class="st3" cx="60.2" cy="60.1" r="60"/>
	</g>
</g>
<g id="background__x28_test_transparency_x29_" class="st0">
	<rect x="-48.6" y="-14.8" class="st4" width="913.5" height="269.3"/>
</g>
<g id="guides_1_" class="st0">
	<path class="st5" d="M60.2,107.9c-26.3,0-47.7-21.4-47.7-47.7s21.4-47.7,47.7-47.7s47.7,21.4,47.7,47.7S86.5,107.9,60.2,107.9z"/>
	<path class="st5" d="M60.2,101.9c-23,0-41.8-18.7-41.8-41.8s18.7-41.8,41.8-41.8S102,37.1,102,60.1S83.2,101.9,60.2,101.9z"/>
	<path class="st5" d="M60.2,95.9c-19.7,0-35.8-16.1-35.8-35.8s16.1-35.8,35.8-35.8S96,40.4,96,60.1S79.9,95.9,60.2,95.9z"/>
	<line class="st6" x1="60.2" y1="-3.7" x2="60.2" y2="126.6"/>
</g>
<g id="icons">
	<g>
		<g>
			<line class="st19" x1="38.6" y1="35.1" x2="36.2" y2="49.5"/>
			<line class="st19" x1="43.4" y1="35.1" x2="41" y2="49.5"/>
			<line class="st19" x1="45.3" y1="40.1" x2="34.9" y2="40.1"/>
			<line class="st19" x1="44.6" y1="44.4" x2="34.2" y2="44.4"/>
		</g>
		<g>
			<line class="st18" x1="62" y1="87.7" x2="46.8" y2="56.2"/>
			<line class="st18" x1="89.5" y1="62.1" x2="67.9" y2="89"/>
			<line class="st18" x1="54.8" y1="47.4" x2="88" y2="57.1"/>
			<line class="st18" x1="72" y1="106.4" x2="68.3" y2="99.8"/>
			<line class="st18" x1="59.5" y1="100.1" x2="54.8" y2="105.8"/>
			<line class="st18" x1="102" y1="45.4" x2="97.6" y2="51.4"/>
			<line class="st18" x1="101.5" y1="60.7" x2="107.8" y2="62.1"/>
			<line class="st18" x1="24.9" y1="41.5" x2="16.7" y2="40.4"/>
			<line class="st18" x1="34.9" y1="19.3" x2="36.9" y2="27.4"/>
		</g>
		<g>
			<ellipse class="st16" cx="40.3" cy="42.5" rx="15.4" ry="15.1"/>
		</g>
		<ellipse class="st17" cx="95" cy="57.8" rx="7" ry="6.9"/>
		<ellipse class="st17" cx="63.7" cy="94.6" rx="7" ry="6.9"/>
	</g>
</g>
<g id="Layer_6">
</g>
</svg>
