<?xml version="1.0" encoding="utf-8"?>
<!-- Generator: Adobe Illustrator 19.1.0, SVG Export Plug-In . SVG Version: 6.00 Build 0)  -->
<svg version="1.1" xmlns="http://www.w3.org/2000/svg" xmlns:xlink="http://www.w3.org/1999/xlink" x="0px" y="0px"
	 viewBox="0 0 120 120" style="enable-background:new 0 0 120 120;" xml:space="preserve">
<style type="text/css">
	.st0{display:none;}
	.st1{display:inline;fill:#FFFFFF;}
	.st2{display:inline;}
	.st3{fill:#FFFFFF;}
	.st4{display:inline;fill:#FFCC33;}
	.st5{display:inline;fill:none;stroke:#DE1F12;stroke-miterlimit:10;}
	.st6{display:inline;fill:none;stroke:#E5E5E5;stroke-miterlimit:10;}
	.st7{display:inline;fill:none;stroke:#E5E5E5;stroke-width:0.75;stroke-miterlimit:10;}
	.st8{display:inline;fill:#A7A7AA;stroke:#E5E5E5;stroke-miterlimit:10;}
	.st9{display:inline;fill:none;stroke:#E5E5E5;stroke-width:1.5;stroke-miterlimit:10;}
	.st10{fill:none;stroke:#25262E;stroke-width:0.75;stroke-miterlimit:10;}
	.st11{fill:none;stroke:#25262E;stroke-miterlimit:10;}
	.st12{fill:#393B42;}
	.st13{fill:none;stroke:#393B42;stroke-width:0.5;stroke-miterlimit:10;}
	.st14{fill:none;stroke:#393B42;stroke-width:0.75;stroke-miterlimit:10;}
	.st15{fill:none;stroke:#333333;stroke-width:0.5;stroke-linecap:round;stroke-miterlimit:10;}
	.st16{fill:none;stroke:#393B42;stroke-linecap:round;stroke-miterlimit:10;}
	.st17{fill:none;stroke:#393B42;stroke-width:0.75;stroke-linecap:round;stroke-miterlimit:10;}
	.st18{fill:none;stroke:#393B42;stroke-width:0.5;stroke-linecap:round;stroke-miterlimit:10;}
	.st19{fill:none;stroke:#393B42;stroke-width:2;stroke-linecap:round;stroke-miterlimit:10;}
</style>
<g id="Layer_1">
</g>
<g id="white_circles" class="st0">
	<circle class="st1" cx="60" cy="59.6" r="60"/>
</g>
<g id="background__x28_test_transparency_x29_" class="st0">
	<rect x="-449.6" y="-14.8" class="st4" width="913.5" height="269.3"/>
</g>
<g id="guides_1_" class="st0">
	<path class="st5" d="M60,107.4c-26.3,0-47.7-21.4-47.7-47.7S33.7,11.9,60,11.9s47.7,21.4,47.7,47.7S86.3,107.4,60,107.4z"/>
	<path class="st5" d="M60,101.4c-23,0-41.8-18.7-41.8-41.8S37,17.8,60,17.8s41.8,18.7,41.8,41.8S83,101.4,60,101.4z"/>
	<path class="st5" d="M60,95.4c-19.7,0-35.8-16.1-35.8-35.8S40.3,23.8,60,23.8s35.8,16.1,35.8,35.8S79.7,95.4,60,95.4z"/>
	<line class="st6" x1="58.8" y1="-15.2" x2="58.8" y2="125.1"/>
	<line class="st7" x1="83.4" y1="27.3" x2="25" y2="27.3"/>
	<line class="st7" x1="93.6" y1="92.8" x2="25" y2="92.8"/>
	<line class="st8" x1="117.3" y1="48.7" x2="269.1" y2="48.7"/>
	<line class="st8" x1="117" y1="73.5" x2="268.9" y2="73.5"/>
</g>
<g id="icons">
	<g>
		<g>
			<g>
				<g>
					<g>
						<path class="st10" d="M78.5,38H54.7c-2.7,0-4.9-2.2-4.9-4.9V21.4c0-2.7,2.2-4.9,4.9-4.9h23.8c2.7,0,4.9,2.2,4.9,4.9v11.7
							C83.4,35.8,81.2,38,78.5,38z"/>
					</g>
				</g>
			</g>
		</g>
		<g>
			<g>
				<g>
					<g>
						<path class="st11" d="M90,74.6H56.6c-3.8,0-6.8-3.1-6.8-6.8V51.4c0-3.8,3.1-6.8,6.8-6.8H90c3.8,0,6.8,3.1,6.8,6.8v16.4
							C96.8,71.6,93.8,74.6,90,74.6z"/>
					</g>
				</g>
			</g>
			<path class="st12" d="M64,51.2c-4.6,0-8.3,3.8-8.3,8.4S59.5,68,64,68s8.3-3.8,8.3-8.4S68.6,51.2,64,51.2z M66.3,56.8
				c1.8,0.2,1.3,2.8,1.3,2.8c-0.1,0.2-0.2,0-0.2,0c-0.3-0.8-0.6-1-0.6-1c-0.2-0.1-0.5-0.1-0.5-0.1s-0.1,0-0.4,0.1c0,0-0.3,0.2-0.6,1
				c0,0-0.1,0.2-0.2,0C65.1,59.6,64.7,56.9,66.3,56.8z M61.7,56.8c1.8,0.2,1.3,2.8,1.3,2.8c-0.1,0.2-0.2,0-0.2,0
				c-0.3-0.8-0.6-1-0.6-1c-0.2-0.1-0.5-0.1-0.5-0.1s-0.1,0-0.4,0.1c0,0-0.3,0.2-0.6,1c0,0-0.1,0.2-0.2,0
				C60.5,59.6,60.1,56.9,61.7,56.8z M67.8,62C66,64.3,64,64,64,64s-2,0.3-3.8-2.1c0,0-0.1-0.1-0.1-0.4c0,0,0.1-0.1,0.3,0.1
				c0,0,1.1,1.3,3.6,1.3c2.4,0,3.6-1.3,3.6-1.3c0.2-0.2,0.3-0.1,0.3-0.1C67.9,61.8,67.8,62,67.8,62z"/>
			<g>
				<path d="M80.9,61.5V64h-1.3v-2.4h-2.4v-1.4h2.4v-2.4h1.3v2.4h2.4v1.4H80.9z"/>
				<path d="M84.9,64.8v-1.3l3.9-4.8c0.2-0.2,0.3-0.5,0.4-0.7c0.1-0.2,0.1-0.4,0.1-0.7c0-0.5-0.1-0.8-0.4-1.1
					c-0.3-0.3-0.6-0.4-1.1-0.4c-0.2,0-0.4,0-0.6,0.1c-0.2,0.1-0.3,0.1-0.5,0.3c-0.1,0.1-0.2,0.3-0.3,0.5c-0.1,0.2-0.1,0.4-0.1,0.7
					h-1.5c0-0.4,0.1-0.8,0.2-1.2c0.1-0.4,0.4-0.7,0.6-0.9c0.3-0.3,0.6-0.4,0.9-0.6c0.4-0.1,0.8-0.2,1.2-0.2c0.4,0,0.8,0.1,1.2,0.2
					c0.4,0.1,0.7,0.3,0.9,0.6s0.5,0.6,0.6,0.9c0.1,0.4,0.2,0.8,0.2,1.2c0,0.5-0.1,0.8-0.2,1.2c-0.2,0.3-0.4,0.7-0.7,1.1l-3.2,3.9
					h4.1v1.3H84.9z"/>
			</g>
		</g>
		<g>
			<g>
				<g>
					<g>
						<path class="st10" d="M78.5,102.6H54.7c-2.7,0-4.9-2.2-4.9-4.9V86c0-2.7,2.2-4.9,4.9-4.9h23.8c2.7,0,4.9,2.2,4.9,4.9v11.7
							C83.4,100.5,81.2,102.6,78.5,102.6z"/>
					</g>
				</g>
			</g>
		</g>
		<line class="st13" x1="41" y1="15.8" x2="41" y2="24.3"/>
		<line class="st13" x1="41" y1="95.8" x2="41" y2="104.3"/>
		<line class="st13" x1="41" y1="30.3" x2="41" y2="56"/>
		<line class="st13" x1="41" y1="64.4" x2="41" y2="90"/>
		<circle class="st14" cx="41" cy="27.3" r="3"/>
		<circle class="st14" cx="41.2" cy="60.2" r="4.2"/>
		<circle class="st14" cx="41" cy="92.8" r="3"/>
	</g>
</g>
<g id="Layer_6">
</g>
</svg>
