<?xml version="1.0" encoding="utf-8"?>
<!-- Generator: Adobe Illustrator 19.1.0, SVG Export Plug-In . SVG Version: 6.00 Build 0)  -->
<svg version="1.1" xmlns="http://www.w3.org/2000/svg" xmlns:xlink="http://www.w3.org/1999/xlink" x="0px" y="0px"
	 viewBox="0 0 120 120" style="enable-background:new 0 0 120 120;" xml:space="preserve">
<style type="text/css">
	.st0{display:none;}
	.st1{display:inline;fill:#FFFFFF;}
	.st2{display:inline;}
	.st3{fill:#FFFFFF;}
	.st4{display:inline;fill:#FFCC33;}
	.st5{display:inline;fill:none;stroke:#DE1F12;stroke-miterlimit:10;}
	.st6{display:inline;fill:none;stroke:#E5E5E5;stroke-miterlimit:10;}
	.st7{display:inline;fill:none;stroke:#E5E5E5;stroke-width:0.75;stroke-miterlimit:10;}
	.st8{display:inline;fill:#A7A7AA;stroke:#E5E5E5;stroke-miterlimit:10;}
	.st9{display:inline;fill:none;stroke:#E5E5E5;stroke-width:1.5;stroke-miterlimit:10;}
	.st10{fill:none;stroke:#25262E;stroke-width:0.75;stroke-miterlimit:10;}
	.st11{fill:none;stroke:#25262E;stroke-miterlimit:10;}
	.st12{fill:#393B42;}
	.st13{fill:none;stroke:#393B42;stroke-width:0.5;stroke-miterlimit:10;}
	.st14{fill:none;stroke:#393B42;stroke-width:0.75;stroke-miterlimit:10;}
	.st15{fill:none;stroke:#333333;stroke-width:0.5;stroke-linecap:round;stroke-miterlimit:10;}
	.st16{fill:none;stroke:#393B42;stroke-linecap:round;stroke-miterlimit:10;}
	.st17{fill:none;stroke:#393B42;stroke-width:0.75;stroke-linecap:round;stroke-miterlimit:10;}
	.st18{fill:none;stroke:#393B42;stroke-width:0.5;stroke-linecap:round;stroke-miterlimit:10;}
	.st19{fill:none;stroke:#393B42;stroke-width:2;stroke-linecap:round;stroke-miterlimit:10;}
</style>
<g id="Layer_1">
</g>
<g id="white_circles" class="st0">
	<circle class="st1" cx="60.3" cy="60.5" r="60"/>
</g>
<g id="background__x28_test_transparency_x29_" class="st0">
	<rect x="-584.8" y="-14.8" class="st4" width="913.5" height="269.3"/>
</g>
<g id="guides_1_" class="st0">
	<line class="st8" x1="118.1" y1="48.3" x2="270" y2="48.3"/>
	<line class="st8" x1="117.8" y1="73.2" x2="269.7" y2="73.2"/>
	<path class="st5" d="M60.3,108.2c-26.3,0-47.7-21.4-47.7-47.7S34,12.7,60.3,12.7s47.7,21.4,47.7,47.7S86.7,108.2,60.3,108.2z"/>
	<path class="st5" d="M60.3,102.3c-23,0-41.8-18.7-41.8-41.8s18.7-41.8,41.8-41.8s41.8,18.7,41.8,41.8S83.4,102.3,60.3,102.3z"/>
	<path class="st5" d="M60.3,96.3c-19.7,0-35.8-16.1-35.8-35.8s16.1-35.8,35.8-35.8s35.8,16.1,35.8,35.8S80.1,96.3,60.3,96.3z"/>
	<line class="st6" x1="59.6" y1="-4.3" x2="59.6" y2="126"/>
	<line class="st7" x1="-3" y1="61" x2="126.3" y2="61"/>
	<rect x="25.6" y="28.9" class="st9" width="69.4" height="15.1"/>
	<rect x="25.6" y="53.5" class="st9" width="69.4" height="15.1"/>
	<rect x="25.6" y="78" class="st9" width="69.4" height="15.1"/>
	<line class="st8" x1="-17.9" y1="48.7" x2="133.9" y2="48.7"/>
	<line class="st8" x1="-18.2" y1="73.5" x2="133.7" y2="73.5"/>
</g>
<g id="icons">
	<g>
		<path class="st11" d="M94.8,48.2h-29c-3.3,0-5.9,2.7-5.9,5.9v4.6l-4.4,2.5l4.4,2.5v4.6c0,3.3,2.7,5.9,5.9,5.9h29
			c3.3,0,5.9-2.7,5.9-5.9V54.1C100.7,50.9,98,48.2,94.8,48.2z"/>
		<g>
			<g>
				<line class="st18" x1="41.4" y1="27" x2="41.4" y2="16.6"/>
				<line class="st13" x1="41.4" y1="50.1" x2="41.4" y2="33"/>
				<line class="st13" x1="41.4" y1="88" x2="41.4" y2="70.1"/>
			</g>
			<line class="st18" x1="41.4" y1="104.4" x2="41.4" y2="94"/>
		</g>
		<path class="st10" d="M86.2,21H64.7c-2.4,0-4.4,2-4.4,4.4v3.4L57,30.7l3.2,1.9V36c0,2.4,2,4.4,4.4,4.4h21.5c2.4,0,4.4-2,4.4-4.4
			V25.4C90.6,23,88.6,21,86.2,21z"/>
		<path class="st10" d="M86.2,80.8H64.7c-2.4,0-4.4,2-4.4,4.4v3.4L57,90.5l3.2,1.9v3.4c0,2.4,2,4.4,4.4,4.4h21.5
			c2.4,0,4.4-2,4.4-4.4V85.2C90.6,82.7,88.6,80.8,86.2,80.8z"/>
		<circle class="st14" cx="41.4" cy="30" r="3"/>
		<circle class="st14" cx="41.4" cy="91" r="3"/>
	</g>
	<g>
		<g>
			<ellipse class="st16" cx="41.4" cy="60.3" rx="10.4" ry="10.2"/>
			<g>
				<path class="st12" d="M45.8,62.1c-0.9,0-2.4,0.6-3.3,1.2c0,0-0.1,0.1-1.2,0.1c-1.1,0-1.2-0.1-1.2-0.1c-0.9-0.7-2.3-1.2-3.3-1.2
					c-0.9,0-1.7,0.3-1.7,0.8s0.7,1.4,1.5,2.1c0,0,1.6,1.5,4.7,1.3c3.4-0.2,4.7-1.3,4.7-1.3c0.8-0.7,1.5-1.7,1.5-2.1
					S46.8,62.1,45.8,62.1z"/>
			</g>
		</g>
		<ellipse class="st12" cx="41.4" cy="58.4" rx="3.3" ry="4.1"/>
	</g>
</g>
<g id="Layer_6">
</g>
</svg>
