<?xml version="1.0" encoding="utf-8"?>
<!-- Generator: Adobe Illustrator 19.1.0, SVG Export Plug-In . SVG Version: 6.00 Build 0)  -->
<svg version="1.1" xmlns="http://www.w3.org/2000/svg" xmlns:xlink="http://www.w3.org/1999/xlink" x="0px" y="0px"
	 viewBox="0 0 120 120" style="enable-background:new 0 0 120 120;" xml:space="preserve">
<style type="text/css">
	.st0{display:none;}
	.st1{display:inline;fill:#FFFFFF;}
	.st2{display:inline;}
	.st3{fill:#FFFFFF;}
	.st4{display:inline;fill:#FFCC33;}
	.st5{display:inline;fill:none;stroke:#DE1F12;stroke-miterlimit:10;}
	.st6{display:inline;fill:none;stroke:#E5E5E5;stroke-miterlimit:10;}
	.st7{display:inline;fill:none;stroke:#E5E5E5;stroke-width:0.75;stroke-miterlimit:10;}
	.st8{display:inline;fill:#A7A7AA;stroke:#E5E5E5;stroke-miterlimit:10;}
	.st9{display:inline;fill:none;stroke:#E5E5E5;stroke-width:1.5;stroke-miterlimit:10;}
	.st10{fill:none;stroke:#25262E;stroke-width:0.75;stroke-miterlimit:10;}
	.st11{fill:none;stroke:#25262E;stroke-miterlimit:10;}
	.st12{fill:#393B42;}
	.st13{fill:none;stroke:#393B42;stroke-width:0.5;stroke-miterlimit:10;}
	.st14{fill:none;stroke:#393B42;stroke-width:0.75;stroke-miterlimit:10;}
	.st15{fill:none;stroke:#333333;stroke-width:0.5;stroke-linecap:round;stroke-miterlimit:10;}
	.st16{fill:none;stroke:#393B42;stroke-linecap:round;stroke-miterlimit:10;}
	.st17{fill:none;stroke:#393B42;stroke-width:0.75;stroke-linecap:round;stroke-miterlimit:10;}
	.st18{fill:none;stroke:#393B42;stroke-width:0.5;stroke-linecap:round;stroke-miterlimit:10;}
	.st19{fill:none;stroke:#393B42;stroke-width:2;stroke-linecap:round;stroke-miterlimit:10;}
</style>
<g id="Layer_1">
</g>
<g id="white_circles" class="st0">
	<circle class="st1" cx="59.8" cy="60.1" r="60"/>
</g>
<g id="background__x28_test_transparency_x29_" class="st0">
	<rect x="-721.3" y="-14.8" class="st4" width="913.5" height="269.3"/>
</g>
<g id="guides_1_" class="st0">
	<path class="st5" d="M59.8,107.9C33.4,107.9,12,86.5,12,60.1s21.4-47.7,47.7-47.7s47.7,21.4,47.7,47.7S86.1,107.9,59.8,107.9z"/>
	<path class="st5" d="M59.8,101.9c-23,0-41.8-18.7-41.8-41.8s18.7-41.8,41.8-41.8s41.8,18.7,41.8,41.8S82.8,101.9,59.8,101.9z"/>
	<path class="st5" d="M59.8,95.9C40,95.9,24,79.9,24,60.1S40,24.3,59.8,24.3s35.8,16.1,35.8,35.8S79.5,95.9,59.8,95.9z"/>
	<line class="st6" x1="58.6" y1="-4.7" x2="58.6" y2="125.7"/>
	<line class="st7" x1="-3.6" y1="60.7" x2="125.7" y2="60.7"/>
	<line class="st8" x1="-18.4" y1="48.3" x2="133.5" y2="48.3"/>
	<line class="st8" x1="-18.7" y1="73.2" x2="133.2" y2="73.2"/>
</g>
<g id="icons">
	<g>
		<line class="st14" x1="54.4" y1="93.3" x2="37.4" y2="93.3"/>
		<polyline class="st13" points="92.8,93.3 93.5,93.3 88,93.3 		"/>
		<line class="st13" x1="62.8" y1="93.3" x2="81.9" y2="93.3"/>
		<line class="st13" x1="37.2" y1="93.3" x2="54.4" y2="93.3"/>
		<polyline class="st13" points="28.1,93.3 24.8,93.3 31.2,93.3 		"/>
		<line class="st13" x1="58.6" y1="89.1" x2="58.6" y2="41.8"/>
		<line class="st13" x1="85" y1="90.3" x2="85" y2="60.5"/>
		<line class="st13" x1="34.2" y1="90.3" x2="34.2" y2="60.5"/>
		<circle class="st14" cx="85" cy="93.3" r="3"/>
		<circle class="st14" cx="34.2" cy="93.3" r="3"/>
		<circle class="st14" cx="58.6" cy="93.3" r="4.2"/>
		<ellipse class="st16" cx="58.6" cy="26.7" rx="15.4" ry="15.1"/>
		<ellipse class="st17" cx="34.2" cy="53.6" rx="7" ry="6.9"/>
		<ellipse class="st17" cx="84.9" cy="53.6" rx="7" ry="6.9"/>
		<path class="st12" d="M50.7,25.6c0,0-0.6,0.5-0.7,1.2c0,0-0.6,3.5,0,5.4c0,0,0,1,0.7,1.5c0,0,0.9,0.8,3.4,0.4c0,0,0.8-0.1,1-0.5
			c0,0,2,0.5,2.7,0.6c0,0,2.3,0.5,4.2,0l0.3-0.2h2.8c0,0,0.9-0.2,1.3-0.8c0,0,0.4-1-0.3-1.4c0,0,1.2-0.6,0.4-2.1
			c0,0,1.9-0.8,0.3-2.7c0,0,0.9-1.3-0.2-2.3c0,0-2.1-1.1-5.6-0.3l-0.5,0.1c0,0,0.5-0.7,0.6-2.1c0,0,2.3-6.6-2.6-6.2
			c-0.3,0-0.5,0.2-0.6,0.4c-0.2,0.5-0.4,1.7-0.3,4.4c0,0-1.6,3.8-3.4,4.7C54.2,25.6,52.7,24.5,50.7,25.6z"/>
	</g>
</g>
<g id="Layer_6">
</g>
</svg>
